ISO-10303-21;
HEADER;
/* Generated by software containing ST-Developer
 * from STEP Tools, Inc. (www.steptools.com) 
 */
/* OPTION: using custom renumber hook */

FILE_DESCRIPTION(
/* description */ ('STEP AP242 Edition 2',
'CAx-IF Rec.Pracs.---Representation and Presentation of Product Manufa
cturing Information (PMI)---4.0---2014-10-13',
'CAx-IF Rec.Pracs.---3D Tessellated Geometry---0.4---2014-09-14','2;1',
'CAx-IF Rec.Pracs.---User Defined Attributes---1.5---2016-08-15'),
/* implementation_level */ '2;1');

FILE_NAME(
/* name */ 'Case Buttons - Push',
/* time_stamp */ '2026-04-29T19:25:58Z',
/* author */ (''),
/* organization */ (''),
/* preprocessor_version */ 'ST-DEVELOPER v20',
/* originating_system */ 'ONSHAPE BY PTC INC, 1.214',
/* authorisation */ '  ');

FILE_SCHEMA (('AP242_MANAGED_MODEL_BASED_3D_ENGINEERING_MIM_LF { 1 0 10303 442 3 1 4 }'));
ENDSEC;

DATA;
#10=SHAPE_REPRESENTATION_RELATIONSHIP('','',#447,#11);
#11=ADVANCED_BREP_SHAPE_REPRESENTATION('',(#445),#745);
#12=SPHERICAL_SURFACE('',#474,0.0005);
#13=SPHERICAL_SURFACE('',#476,0.0005);
#14=SPHERICAL_SURFACE('',#486,0.0005);
#15=SPHERICAL_SURFACE('',#488,0.0005);
#16=CYLINDRICAL_SURFACE('',#467,0.0005);
#17=CYLINDRICAL_SURFACE('',#469,0.0005);
#18=CYLINDRICAL_SURFACE('',#471,0.0005);
#19=CYLINDRICAL_SURFACE('',#478,0.0005);
#20=CYLINDRICAL_SURFACE('',#480,0.0005);
#21=CYLINDRICAL_SURFACE('',#482,0.0005);
#22=CYLINDRICAL_SURFACE('',#484,0.0005);
#23=CYLINDRICAL_SURFACE('',#490,0.0005);
#24=CIRCLE('',#453,0.0005);
#25=CIRCLE('',#454,0.0005);
#26=CIRCLE('',#463,0.0005);
#27=CIRCLE('',#464,0.0005);
#28=CIRCLE('',#468,0.0005);
#29=CIRCLE('',#470,0.0005);
#30=CIRCLE('',#472,0.0005);
#31=CIRCLE('',#473,0.0005);
#32=CIRCLE('',#475,0.0005);
#33=CIRCLE('',#477,0.0005);
#34=CIRCLE('',#479,0.0005);
#35=CIRCLE('',#481,0.0005);
#36=CIRCLE('',#483,0.0005);
#37=CIRCLE('',#485,0.0005);
#38=CIRCLE('',#487,0.0005);
#39=CIRCLE('',#489,0.0005);
#40=ORIENTED_EDGE('',*,*,#160,.T.);
#41=ORIENTED_EDGE('',*,*,#161,.T.);
#42=ORIENTED_EDGE('',*,*,#162,.T.);
#43=ORIENTED_EDGE('',*,*,#163,.T.);
#44=ORIENTED_EDGE('',*,*,#164,.T.);
#45=ORIENTED_EDGE('',*,*,#165,.T.);
#46=ORIENTED_EDGE('',*,*,#166,.T.);
#47=ORIENTED_EDGE('',*,*,#167,.T.);
#48=ORIENTED_EDGE('',*,*,#168,.F.);
#49=ORIENTED_EDGE('',*,*,#169,.T.);
#50=ORIENTED_EDGE('',*,*,#170,.T.);
#51=ORIENTED_EDGE('',*,*,#171,.T.);
#52=ORIENTED_EDGE('',*,*,#172,.F.);
#53=ORIENTED_EDGE('',*,*,#173,.F.);
#54=ORIENTED_EDGE('',*,*,#174,.T.);
#55=ORIENTED_EDGE('',*,*,#175,.T.);
#56=ORIENTED_EDGE('',*,*,#168,.T.);
#57=ORIENTED_EDGE('',*,*,#176,.T.);
#58=ORIENTED_EDGE('',*,*,#177,.F.);
#59=ORIENTED_EDGE('',*,*,#178,.F.);
#60=ORIENTED_EDGE('',*,*,#179,.T.);
#61=ORIENTED_EDGE('',*,*,#173,.T.);
#62=ORIENTED_EDGE('',*,*,#180,.F.);
#63=ORIENTED_EDGE('',*,*,#181,.F.);
#64=ORIENTED_EDGE('',*,*,#182,.T.);
#65=ORIENTED_EDGE('',*,*,#178,.T.);
#66=ORIENTED_EDGE('',*,*,#183,.F.);
#67=ORIENTED_EDGE('',*,*,#184,.F.);
#68=ORIENTED_EDGE('',*,*,#185,.T.);
#69=ORIENTED_EDGE('',*,*,#181,.T.);
#70=ORIENTED_EDGE('',*,*,#186,.F.);
#71=ORIENTED_EDGE('',*,*,#187,.F.);
#72=ORIENTED_EDGE('',*,*,#188,.T.);
#73=ORIENTED_EDGE('',*,*,#184,.T.);
#74=ORIENTED_EDGE('',*,*,#189,.F.);
#75=ORIENTED_EDGE('',*,*,#190,.F.);
#76=ORIENTED_EDGE('',*,*,#191,.T.);
#77=ORIENTED_EDGE('',*,*,#187,.T.);
#78=ORIENTED_EDGE('',*,*,#192,.F.);
#79=ORIENTED_EDGE('',*,*,#193,.F.);
#80=ORIENTED_EDGE('',*,*,#194,.T.);
#81=ORIENTED_EDGE('',*,*,#190,.T.);
#82=ORIENTED_EDGE('',*,*,#195,.F.);
#83=ORIENTED_EDGE('',*,*,#196,.F.);
#84=ORIENTED_EDGE('',*,*,#197,.T.);
#85=ORIENTED_EDGE('',*,*,#193,.T.);
#86=ORIENTED_EDGE('',*,*,#198,.F.);
#87=ORIENTED_EDGE('',*,*,#199,.T.);
#88=ORIENTED_EDGE('',*,*,#162,.F.);
#89=ORIENTED_EDGE('',*,*,#200,.T.);
#90=ORIENTED_EDGE('',*,*,#201,.T.);
#91=ORIENTED_EDGE('',*,*,#196,.T.);
#92=ORIENTED_EDGE('',*,*,#202,.T.);
#93=ORIENTED_EDGE('',*,*,#174,.F.);
#94=ORIENTED_EDGE('',*,*,#179,.F.);
#95=ORIENTED_EDGE('',*,*,#182,.F.);
#96=ORIENTED_EDGE('',*,*,#185,.F.);
#97=ORIENTED_EDGE('',*,*,#188,.F.);
#98=ORIENTED_EDGE('',*,*,#191,.F.);
#99=ORIENTED_EDGE('',*,*,#194,.F.);
#100=ORIENTED_EDGE('',*,*,#197,.F.);
#101=ORIENTED_EDGE('',*,*,#201,.F.);
#102=ORIENTED_EDGE('',*,*,#203,.T.);
#103=ORIENTED_EDGE('',*,*,#204,.T.);
#104=ORIENTED_EDGE('',*,*,#205,.T.);
#105=ORIENTED_EDGE('',*,*,#198,.T.);
#106=ORIENTED_EDGE('',*,*,#195,.T.);
#107=ORIENTED_EDGE('',*,*,#192,.T.);
#108=ORIENTED_EDGE('',*,*,#189,.T.);
#109=ORIENTED_EDGE('',*,*,#186,.T.);
#110=ORIENTED_EDGE('',*,*,#183,.T.);
#111=ORIENTED_EDGE('',*,*,#180,.T.);
#112=ORIENTED_EDGE('',*,*,#177,.T.);
#113=ORIENTED_EDGE('',*,*,#172,.T.);
#114=ORIENTED_EDGE('',*,*,#206,.T.);
#115=ORIENTED_EDGE('',*,*,#207,.T.);
#116=ORIENTED_EDGE('',*,*,#199,.F.);
#117=ORIENTED_EDGE('',*,*,#205,.F.);
#118=ORIENTED_EDGE('',*,*,#208,.F.);
#119=ORIENTED_EDGE('',*,*,#163,.F.);
#120=ORIENTED_EDGE('',*,*,#176,.F.);
#121=ORIENTED_EDGE('',*,*,#171,.F.);
#122=ORIENTED_EDGE('',*,*,#209,.F.);
#123=ORIENTED_EDGE('',*,*,#206,.F.);
#124=ORIENTED_EDGE('',*,*,#210,.F.);
#125=ORIENTED_EDGE('',*,*,#207,.F.);
#126=ORIENTED_EDGE('',*,*,#211,.F.);
#127=ORIENTED_EDGE('',*,*,#164,.F.);
#128=ORIENTED_EDGE('',*,*,#208,.T.);
#129=ORIENTED_EDGE('',*,*,#210,.T.);
#130=ORIENTED_EDGE('',*,*,#212,.F.);
#131=ORIENTED_EDGE('',*,*,#211,.T.);
#132=ORIENTED_EDGE('',*,*,#209,.T.);
#133=ORIENTED_EDGE('',*,*,#213,.F.);
#134=ORIENTED_EDGE('',*,*,#212,.T.);
#135=ORIENTED_EDGE('',*,*,#167,.F.);
#136=ORIENTED_EDGE('',*,*,#214,.F.);
#137=ORIENTED_EDGE('',*,*,#160,.F.);
#138=ORIENTED_EDGE('',*,*,#200,.F.);
#139=ORIENTED_EDGE('',*,*,#161,.F.);
#140=ORIENTED_EDGE('',*,*,#215,.F.);
#141=ORIENTED_EDGE('',*,*,#203,.F.);
#142=ORIENTED_EDGE('',*,*,#175,.F.);
#143=ORIENTED_EDGE('',*,*,#202,.F.);
#144=ORIENTED_EDGE('',*,*,#216,.F.);
#145=ORIENTED_EDGE('',*,*,#169,.F.);
#146=ORIENTED_EDGE('',*,*,#213,.T.);
#147=ORIENTED_EDGE('',*,*,#170,.F.);
#148=ORIENTED_EDGE('',*,*,#217,.F.);
#149=ORIENTED_EDGE('',*,*,#165,.F.);
#150=ORIENTED_EDGE('',*,*,#215,.T.);
#151=ORIENTED_EDGE('',*,*,#214,.T.);
#152=ORIENTED_EDGE('',*,*,#218,.F.);
#153=ORIENTED_EDGE('',*,*,#217,.T.);
#154=ORIENTED_EDGE('',*,*,#216,.T.);
#155=ORIENTED_EDGE('',*,*,#219,.F.);
#156=ORIENTED_EDGE('',*,*,#218,.T.);
#157=ORIENTED_EDGE('',*,*,#166,.F.);
#158=ORIENTED_EDGE('',*,*,#219,.T.);
#159=ORIENTED_EDGE('',*,*,#204,.F.);
#160=EDGE_CURVE('',#220,#221,#256,.F.);
#161=EDGE_CURVE('',#221,#222,#257,.T.);
#162=EDGE_CURVE('',#222,#223,#258,.T.);
#163=EDGE_CURVE('',#223,#220,#259,.F.);
#164=EDGE_CURVE('',#224,#225,#260,.T.);
#165=EDGE_CURVE('',#225,#226,#261,.F.);
#166=EDGE_CURVE('',#226,#227,#262,.F.);
#167=EDGE_CURVE('',#227,#224,#263,.T.);
#168=EDGE_CURVE('',#228,#229,#264,.T.);
#169=EDGE_CURVE('',#228,#230,#265,.F.);
#170=EDGE_CURVE('',#230,#231,#266,.T.);
#171=EDGE_CURVE('',#231,#229,#267,.T.);
#172=EDGE_CURVE('',#232,#233,#268,.T.);
#173=EDGE_CURVE('',#234,#232,#269,.T.);
#174=EDGE_CURVE('',#234,#235,#270,.T.);
#175=EDGE_CURVE('',#235,#228,#24,.F.);
#176=EDGE_CURVE('',#229,#233,#25,.F.);
#177=EDGE_CURVE('',#236,#232,#271,.T.);
#178=EDGE_CURVE('',#237,#236,#272,.T.);
#179=EDGE_CURVE('',#237,#234,#273,.T.);
#180=EDGE_CURVE('',#238,#236,#274,.T.);
#181=EDGE_CURVE('',#239,#238,#275,.T.);
#182=EDGE_CURVE('',#239,#237,#276,.T.);
#183=EDGE_CURVE('',#240,#238,#277,.T.);
#184=EDGE_CURVE('',#241,#240,#278,.T.);
#185=EDGE_CURVE('',#241,#239,#279,.T.);
#186=EDGE_CURVE('',#242,#240,#280,.T.);
#187=EDGE_CURVE('',#243,#242,#281,.T.);
#188=EDGE_CURVE('',#243,#241,#282,.T.);
#189=EDGE_CURVE('',#244,#242,#283,.T.);
#190=EDGE_CURVE('',#245,#244,#284,.T.);
#191=EDGE_CURVE('',#245,#243,#285,.T.);
#192=EDGE_CURVE('',#246,#244,#286,.T.);
#193=EDGE_CURVE('',#247,#246,#287,.T.);
#194=EDGE_CURVE('',#247,#245,#288,.T.);
#195=EDGE_CURVE('',#248,#246,#289,.T.);
#196=EDGE_CURVE('',#249,#248,#290,.T.);
#197=EDGE_CURVE('',#249,#247,#291,.T.);
#198=EDGE_CURVE('',#250,#248,#292,.T.);
#199=EDGE_CURVE('',#250,#223,#26,.F.);
#200=EDGE_CURVE('',#222,#251,#27,.F.);
#201=EDGE_CURVE('',#251,#249,#293,.T.);
#202=EDGE_CURVE('',#252,#235,#294,.T.);
#203=EDGE_CURVE('',#251,#253,#295,.F.);
#204=EDGE_CURVE('',#253,#252,#296,.T.);
#205=EDGE_CURVE('',#254,#250,#297,.T.);
#206=EDGE_CURVE('',#233,#255,#298,.F.);
#207=EDGE_CURVE('',#255,#254,#299,.F.);
#208=EDGE_CURVE('',#220,#254,#28,.T.);
#209=EDGE_CURVE('',#255,#231,#29,.T.);
#210=EDGE_CURVE('',#254,#224,#30,.T.);
#211=EDGE_CURVE('',#225,#255,#31,.T.);
#212=EDGE_CURVE('',#220,#224,#32,.F.);
#213=EDGE_CURVE('',#225,#231,#33,.F.);
#214=EDGE_CURVE('',#221,#227,#34,.T.);
#215=EDGE_CURVE('',#253,#221,#35,.T.);
#216=EDGE_CURVE('',#230,#252,#36,.T.);
#217=EDGE_CURVE('',#226,#230,#37,.T.);
#218=EDGE_CURVE('',#253,#227,#38,.F.);
#219=EDGE_CURVE('',#226,#252,#39,.F.);
#220=VERTEX_POINT('',#624);
#221=VERTEX_POINT('',#625);
#222=VERTEX_POINT('',#627);
#223=VERTEX_POINT('',#629);
#224=VERTEX_POINT('',#633);
#225=VERTEX_POINT('',#634);
#226=VERTEX_POINT('',#636);
#227=VERTEX_POINT('',#638);
#228=VERTEX_POINT('',#642);
#229=VERTEX_POINT('',#643);
#230=VERTEX_POINT('',#645);
#231=VERTEX_POINT('',#647);
#232=VERTEX_POINT('',#651);
#233=VERTEX_POINT('',#652);
#234=VERTEX_POINT('',#654);
#235=VERTEX_POINT('',#656);
#236=VERTEX_POINT('',#661);
#237=VERTEX_POINT('',#663);
#238=VERTEX_POINT('',#667);
#239=VERTEX_POINT('',#669);
#240=VERTEX_POINT('',#673);
#241=VERTEX_POINT('',#675);
#242=VERTEX_POINT('',#679);
#243=VERTEX_POINT('',#681);
#244=VERTEX_POINT('',#685);
#245=VERTEX_POINT('',#687);
#246=VERTEX_POINT('',#691);
#247=VERTEX_POINT('',#693);
#248=VERTEX_POINT('',#697);
#249=VERTEX_POINT('',#699);
#250=VERTEX_POINT('',#703);
#251=VERTEX_POINT('',#706);
#252=VERTEX_POINT('',#710);
#253=VERTEX_POINT('',#712);
#254=VERTEX_POINT('',#716);
#255=VERTEX_POINT('',#718);
#256=LINE('',#623,#300);
#257=LINE('',#626,#301);
#258=LINE('',#628,#302);
#259=LINE('',#630,#303);
#260=LINE('',#632,#304);
#261=LINE('',#635,#305);
#262=LINE('',#637,#306);
#263=LINE('',#639,#307);
#264=LINE('',#641,#308);
#265=LINE('',#644,#309);
#266=LINE('',#646,#310);
#267=LINE('',#648,#311);
#268=LINE('',#650,#312);
#269=LINE('',#653,#313);
#270=LINE('',#655,#314);
#271=LINE('',#660,#315);
#272=LINE('',#662,#316);
#273=LINE('',#664,#317);
#274=LINE('',#666,#318);
#275=LINE('',#668,#319);
#276=LINE('',#670,#320);
#277=LINE('',#672,#321);
#278=LINE('',#674,#322);
#279=LINE('',#676,#323);
#280=LINE('',#678,#324);
#281=LINE('',#680,#325);
#282=LINE('',#682,#326);
#283=LINE('',#684,#327);
#284=LINE('',#686,#328);
#285=LINE('',#688,#329);
#286=LINE('',#690,#330);
#287=LINE('',#692,#331);
#288=LINE('',#694,#332);
#289=LINE('',#696,#333);
#290=LINE('',#698,#334);
#291=LINE('',#700,#335);
#292=LINE('',#702,#336);
#293=LINE('',#707,#337);
#294=LINE('',#709,#338);
#295=LINE('',#711,#339);
#296=LINE('',#713,#340);
#297=LINE('',#715,#341);
#298=LINE('',#717,#342);
#299=LINE('',#719,#343);
#300=VECTOR('',#495,1.);
#301=VECTOR('',#496,1.);
#302=VECTOR('',#497,1.);
#303=VECTOR('',#498,1.);
#304=VECTOR('',#501,1.);
#305=VECTOR('',#502,1.);
#306=VECTOR('',#503,1.);
#307=VECTOR('',#504,1.);
#308=VECTOR('',#507,1.);
#309=VECTOR('',#508,1.);
#310=VECTOR('',#509,1.);
#311=VECTOR('',#510,1.);
#312=VECTOR('',#513,1.);
#313=VECTOR('',#514,1.);
#314=VECTOR('',#515,1.);
#315=VECTOR('',#522,1.);
#316=VECTOR('',#523,1.);
#317=VECTOR('',#524,1.);
#318=VECTOR('',#527,1.);
#319=VECTOR('',#528,1.);
#320=VECTOR('',#529,1.);
#321=VECTOR('',#532,1.);
#322=VECTOR('',#533,1.);
#323=VECTOR('',#534,1.);
#324=VECTOR('',#537,1.);
#325=VECTOR('',#538,1.);
#326=VECTOR('',#539,1.);
#327=VECTOR('',#542,1.);
#328=VECTOR('',#543,1.);
#329=VECTOR('',#544,1.);
#330=VECTOR('',#547,1.);
#331=VECTOR('',#548,1.);
#332=VECTOR('',#549,1.);
#333=VECTOR('',#552,1.);
#334=VECTOR('',#553,1.);
#335=VECTOR('',#554,1.);
#336=VECTOR('',#557,1.);
#337=VECTOR('',#562,1.);
#338=VECTOR('',#565,1.);
#339=VECTOR('',#566,1.);
#340=VECTOR('',#567,1.);
#341=VECTOR('',#570,1.);
#342=VECTOR('',#571,1.);
#343=VECTOR('',#572,1.);
#344=EDGE_LOOP('',(#40,#41,#42,#43));
#345=EDGE_LOOP('',(#44,#45,#46,#47));
#346=EDGE_LOOP('',(#48,#49,#50,#51));
#347=EDGE_LOOP('',(#52,#53,#54,#55,#56,#57));
#348=EDGE_LOOP('',(#58,#59,#60,#61));
#349=EDGE_LOOP('',(#62,#63,#64,#65));
#350=EDGE_LOOP('',(#66,#67,#68,#69));
#351=EDGE_LOOP('',(#70,#71,#72,#73));
#352=EDGE_LOOP('',(#74,#75,#76,#77));
#353=EDGE_LOOP('',(#78,#79,#80,#81));
#354=EDGE_LOOP('',(#82,#83,#84,#85));
#355=EDGE_LOOP('',(#86,#87,#88,#89,#90,#91));
#356=EDGE_LOOP('',(#92,#93,#94,#95,#96,#97,#98,#99,#100,#101,#102,#103));
#357=EDGE_LOOP('',(#104,#105,#106,#107,#108,#109,#110,#111,#112,#113,#114,
#115));
#358=EDGE_LOOP('',(#116,#117,#118,#119));
#359=EDGE_LOOP('',(#120,#121,#122,#123));
#360=EDGE_LOOP('',(#124,#125,#126,#127));
#361=EDGE_LOOP('',(#128,#129,#130));
#362=EDGE_LOOP('',(#131,#132,#133));
#363=EDGE_LOOP('',(#134,#135,#136,#137));
#364=EDGE_LOOP('',(#138,#139,#140,#141));
#365=EDGE_LOOP('',(#142,#143,#144,#145));
#366=EDGE_LOOP('',(#146,#147,#148,#149));
#367=EDGE_LOOP('',(#150,#151,#152));
#368=EDGE_LOOP('',(#153,#154,#155));
#369=EDGE_LOOP('',(#156,#157,#158,#159));
#370=FACE_BOUND('',#344,.T.);
#371=FACE_BOUND('',#345,.T.);
#372=FACE_BOUND('',#346,.T.);
#373=FACE_BOUND('',#347,.T.);
#374=FACE_BOUND('',#348,.T.);
#375=FACE_BOUND('',#349,.T.);
#376=FACE_BOUND('',#350,.T.);
#377=FACE_BOUND('',#351,.T.);
#378=FACE_BOUND('',#352,.T.);
#379=FACE_BOUND('',#353,.T.);
#380=FACE_BOUND('',#354,.T.);
#381=FACE_BOUND('',#355,.T.);
#382=FACE_BOUND('',#356,.T.);
#383=FACE_BOUND('',#357,.T.);
#384=FACE_BOUND('',#358,.T.);
#385=FACE_BOUND('',#359,.T.);
#386=FACE_BOUND('',#360,.T.);
#387=FACE_BOUND('',#361,.T.);
#388=FACE_BOUND('',#362,.T.);
#389=FACE_BOUND('',#363,.T.);
#390=FACE_BOUND('',#364,.T.);
#391=FACE_BOUND('',#365,.T.);
#392=FACE_BOUND('',#366,.T.);
#393=FACE_BOUND('',#367,.T.);
#394=FACE_BOUND('',#368,.T.);
#395=FACE_BOUND('',#369,.T.);
#396=PLANE('',#449);
#397=PLANE('',#450);
#398=PLANE('',#451);
#399=PLANE('',#452);
#400=PLANE('',#455);
#401=PLANE('',#456);
#402=PLANE('',#457);
#403=PLANE('',#458);
#404=PLANE('',#459);
#405=PLANE('',#460);
#406=PLANE('',#461);
#407=PLANE('',#462);
#408=PLANE('',#465);
#409=PLANE('',#466);
#410=ADVANCED_FACE('',(#370),#396,.T.);
#411=ADVANCED_FACE('',(#371),#397,.F.);
#412=ADVANCED_FACE('',(#372),#398,.F.);
#413=ADVANCED_FACE('',(#373),#399,.T.);
#414=ADVANCED_FACE('',(#374),#400,.T.);
#415=ADVANCED_FACE('',(#375),#401,.T.);
#416=ADVANCED_FACE('',(#376),#402,.T.);
#417=ADVANCED_FACE('',(#377),#403,.T.);
#418=ADVANCED_FACE('',(#378),#404,.T.);
#419=ADVANCED_FACE('',(#379),#405,.T.);
#420=ADVANCED_FACE('',(#380),#406,.T.);
#421=ADVANCED_FACE('',(#381),#407,.T.);
#422=ADVANCED_FACE('',(#382),#408,.T.);
#423=ADVANCED_FACE('',(#383),#409,.F.);
#424=ADVANCED_FACE('',(#384),#16,.T.);
#425=ADVANCED_FACE('',(#385),#17,.T.);
#426=ADVANCED_FACE('',(#386),#18,.T.);
#427=ADVANCED_FACE('',(#387),#12,.T.);
#428=ADVANCED_FACE('',(#388),#13,.T.);
#429=ADVANCED_FACE('',(#389),#19,.T.);
#430=ADVANCED_FACE('',(#390),#20,.T.);
#431=ADVANCED_FACE('',(#391),#21,.T.);
#432=ADVANCED_FACE('',(#392),#22,.T.);
#433=ADVANCED_FACE('',(#393),#14,.T.);
#434=ADVANCED_FACE('',(#394),#15,.T.);
#435=ADVANCED_FACE('',(#395),#23,.T.);
#436=CLOSED_SHELL('',(#410,#411,#412,#413,#414,#415,#416,#417,#418,#419,
#420,#421,#422,#423,#424,#425,#426,#427,#428,#429,#430,#431,#432,#433,#434,
#435));
#437=STYLED_ITEM('',(#438),#445);
#438=PRESENTATION_STYLE_ASSIGNMENT((#439));
#439=SURFACE_STYLE_USAGE(.BOTH.,#440);
#440=SURFACE_SIDE_STYLE('',(#441));
#441=SURFACE_STYLE_FILL_AREA(#442);
#442=FILL_AREA_STYLE('',(#443));
#443=FILL_AREA_STYLE_COLOUR('',#444);
#444=COLOUR_RGB('',0.231372549019608,0.380392156862745,0.705882352941177);
#445=MANIFOLD_SOLID_BREP('Push',#436);
#446=SHAPE_DEFINITION_REPRESENTATION(#750,#447);
#447=SHAPE_REPRESENTATION('Push',(#448),#745);
#448=AXIS2_PLACEMENT_3D('',#621,#491,#492);
#449=AXIS2_PLACEMENT_3D('',#622,#493,#494);
#450=AXIS2_PLACEMENT_3D('',#631,#499,#500);
#451=AXIS2_PLACEMENT_3D('',#640,#505,#506);
#452=AXIS2_PLACEMENT_3D('',#649,#511,#512);
#453=AXIS2_PLACEMENT_3D('',#657,#516,#517);
#454=AXIS2_PLACEMENT_3D('',#658,#518,#519);
#455=AXIS2_PLACEMENT_3D('',#659,#520,#521);
#456=AXIS2_PLACEMENT_3D('',#665,#525,#526);
#457=AXIS2_PLACEMENT_3D('',#671,#530,#531);
#458=AXIS2_PLACEMENT_3D('',#677,#535,#536);
#459=AXIS2_PLACEMENT_3D('',#683,#540,#541);
#460=AXIS2_PLACEMENT_3D('',#689,#545,#546);
#461=AXIS2_PLACEMENT_3D('',#695,#550,#551);
#462=AXIS2_PLACEMENT_3D('',#701,#555,#556);
#463=AXIS2_PLACEMENT_3D('',#704,#558,#559);
#464=AXIS2_PLACEMENT_3D('',#705,#560,#561);
#465=AXIS2_PLACEMENT_3D('',#708,#563,#564);
#466=AXIS2_PLACEMENT_3D('',#714,#568,#569);
#467=AXIS2_PLACEMENT_3D('',#720,#573,#574);
#468=AXIS2_PLACEMENT_3D('',#721,#575,#576);
#469=AXIS2_PLACEMENT_3D('',#722,#577,#578);
#470=AXIS2_PLACEMENT_3D('',#723,#579,#580);
#471=AXIS2_PLACEMENT_3D('',#724,#581,#582);
#472=AXIS2_PLACEMENT_3D('',#725,#583,#584);
#473=AXIS2_PLACEMENT_3D('',#726,#585,#586);
#474=AXIS2_PLACEMENT_3D('',#727,#587,#588);
#475=AXIS2_PLACEMENT_3D('',#728,#589,#590);
#476=AXIS2_PLACEMENT_3D('',#729,#591,#592);
#477=AXIS2_PLACEMENT_3D('',#730,#593,#594);
#478=AXIS2_PLACEMENT_3D('',#731,#595,#596);
#479=AXIS2_PLACEMENT_3D('',#732,#597,#598);
#480=AXIS2_PLACEMENT_3D('',#733,#599,#600);
#481=AXIS2_PLACEMENT_3D('',#734,#601,#602);
#482=AXIS2_PLACEMENT_3D('',#735,#603,#604);
#483=AXIS2_PLACEMENT_3D('',#736,#605,#606);
#484=AXIS2_PLACEMENT_3D('',#737,#607,#608);
#485=AXIS2_PLACEMENT_3D('',#738,#609,#610);
#486=AXIS2_PLACEMENT_3D('',#739,#611,#612);
#487=AXIS2_PLACEMENT_3D('',#740,#613,#614);
#488=AXIS2_PLACEMENT_3D('',#741,#615,#616);
#489=AXIS2_PLACEMENT_3D('',#742,#617,#618);
#490=AXIS2_PLACEMENT_3D('',#743,#619,#620);
#491=DIRECTION('',(0.,0.,1.));
#492=DIRECTION('',(1.,0.,0.));
#493=DIRECTION('',(-1.11200222819026E-16,0.,-1.));
#494=DIRECTION('',(-1.,0.,1.11200222819026E-16));
#495=DIRECTION('',(0.,1.,0.));
#496=DIRECTION('',(-1.,0.,1.11200222819026E-16));
#497=DIRECTION('',(0.,1.,0.));
#498=DIRECTION('',(-1.,0.,1.11200222819026E-16));
#499=DIRECTION('',(-1.,0.,0.));
#500=DIRECTION('',(0.,0.,1.));
#501=DIRECTION('',(0.,0.,1.));
#502=DIRECTION('',(0.,1.,0.));
#503=DIRECTION('',(0.,0.,1.));
#504=DIRECTION('',(0.,1.,0.));
#505=DIRECTION('',(0.,0.,-1.));
#506=DIRECTION('',(-1.,0.,0.));
#507=DIRECTION('',(0.,1.,0.));
#508=DIRECTION('',(-1.,0.,0.));
#509=DIRECTION('',(0.,1.,0.));
#510=DIRECTION('',(-1.,0.,0.));
#511=DIRECTION('',(1.,0.,0.));
#512=DIRECTION('',(0.,0.,-1.));
#513=DIRECTION('',(0.,0.,-1.));
#514=DIRECTION('',(0.,1.,0.));
#515=DIRECTION('',(0.,0.,-1.));
#516=DIRECTION('',(1.,0.,0.));
#517=DIRECTION('',(0.,0.,-1.));
#518=DIRECTION('',(1.,0.,0.));
#519=DIRECTION('',(0.,0.,-1.));
#520=DIRECTION('',(0.,0.,1.));
#521=DIRECTION('',(1.,0.,0.));
#522=DIRECTION('',(1.,0.,0.));
#523=DIRECTION('',(0.,1.,0.));
#524=DIRECTION('',(1.,0.,0.));
#525=DIRECTION('',(-1.,0.,0.));
#526=DIRECTION('',(0.,0.,1.));
#527=DIRECTION('',(0.,0.,1.));
#528=DIRECTION('',(0.,1.,0.));
#529=DIRECTION('',(0.,0.,1.));
#530=DIRECTION('',(0.,0.,-1.));
#531=DIRECTION('',(-1.,0.,0.));
#532=DIRECTION('',(-1.,0.,0.));
#533=DIRECTION('',(0.,1.,0.));
#534=DIRECTION('',(-1.,0.,0.));
#535=DIRECTION('',(-1.,0.,0.));
#536=DIRECTION('',(0.,0.,1.));
#537=DIRECTION('',(0.,0.,1.));
#538=DIRECTION('',(0.,1.,0.));
#539=DIRECTION('',(0.,0.,1.));
#540=DIRECTION('',(0.,0.,1.));
#541=DIRECTION('',(1.,0.,0.));
#542=DIRECTION('',(1.,0.,0.));
#543=DIRECTION('',(0.,1.,0.));
#544=DIRECTION('',(1.,0.,0.));
#545=DIRECTION('',(-1.,0.,0.));
#546=DIRECTION('',(0.,0.,1.));
#547=DIRECTION('',(0.,0.,1.));
#548=DIRECTION('',(0.,1.,0.));
#549=DIRECTION('',(0.,0.,1.));
#550=DIRECTION('',(-7.22801448323669E-17,0.,-1.));
#551=DIRECTION('',(-1.,0.,7.22801448323669E-17));
#552=DIRECTION('',(-1.,0.,7.22801448323669E-17));
#553=DIRECTION('',(0.,1.,0.));
#554=DIRECTION('',(-1.,0.,7.22801448323669E-17));
#555=DIRECTION('',(1.,0.,0.));
#556=DIRECTION('',(0.,0.,-1.));
#557=DIRECTION('',(0.,0.,-1.));
#558=DIRECTION('',(1.,0.,0.));
#559=DIRECTION('',(0.,0.,-1.));
#560=DIRECTION('',(1.,0.,0.));
#561=DIRECTION('',(0.,0.,-1.));
#562=DIRECTION('',(0.,0.,-1.));
#563=DIRECTION('',(0.,-1.,0.));
#564=DIRECTION('',(1.,0.,0.));
#565=DIRECTION('',(-1.,0.,0.));
#566=DIRECTION('',(-1.,0.,1.11200222819026E-16));
#567=DIRECTION('',(0.,0.,1.));
#568=DIRECTION('',(0.,-1.,0.));
#569=DIRECTION('',(1.,0.,0.));
#570=DIRECTION('',(-1.,0.,1.11200222819026E-16));
#571=DIRECTION('',(-1.,0.,0.));
#572=DIRECTION('',(0.,0.,1.));
#573=DIRECTION('',(1.,0.,-1.11200222819026E-16));
#574=DIRECTION('',(-1.11200222819026E-16,0.,-1.));
#575=DIRECTION('',(1.,0.,0.));
#576=DIRECTION('',(0.,0.,-1.));
#577=DIRECTION('',(-1.,0.,0.));
#578=DIRECTION('',(0.,0.,1.));
#579=DIRECTION('',(1.,0.,0.));
#580=DIRECTION('',(0.,0.,-1.));
#581=DIRECTION('',(0.,0.,1.));
#582=DIRECTION('',(1.,0.,0.));
#583=DIRECTION('',(0.,0.,-1.));
#584=DIRECTION('',(-1.,0.,0.));
#585=DIRECTION('',(0.,0.,1.));
#586=DIRECTION('',(1.,0.,0.));
#587=DIRECTION('',(0.,1.,0.));
#588=DIRECTION('',(0.,0.,1.));
#589=DIRECTION('',(0.,1.,0.));
#590=DIRECTION('',(0.,0.,1.));
#591=DIRECTION('',(0.,1.,0.));
#592=DIRECTION('',(0.,0.,1.));
#593=DIRECTION('',(0.,1.,0.));
#594=DIRECTION('',(0.,0.,1.));
#595=DIRECTION('',(0.,-1.,0.));
#596=DIRECTION('',(0.,0.,-1.));
#597=DIRECTION('',(0.,-1.,0.));
#598=DIRECTION('',(0.,0.,-1.));
#599=DIRECTION('',(-1.,0.,1.11200222819026E-16));
#600=DIRECTION('',(1.11200222819026E-16,0.,1.));
#601=DIRECTION('',(1.,0.,0.));
#602=DIRECTION('',(0.,0.,-1.));
#603=DIRECTION('',(1.,0.,0.));
#604=DIRECTION('',(0.,0.,-1.));
#605=DIRECTION('',(1.,0.,0.));
#606=DIRECTION('',(0.,0.,-1.));
#607=DIRECTION('',(0.,1.,0.));
#608=DIRECTION('',(0.,0.,1.));
#609=DIRECTION('',(0.,-1.,0.));
#610=DIRECTION('',(0.,0.,-1.));
#611=DIRECTION('',(0.,0.,-1.));
#612=DIRECTION('',(-1.,0.,0.));
#613=DIRECTION('',(0.,0.,-1.));
#614=DIRECTION('',(-1.,0.,0.));
#615=DIRECTION('',(0.,0.,1.));
#616=DIRECTION('',(1.,0.,0.));
#617=DIRECTION('',(0.,0.,1.));
#618=DIRECTION('',(1.,0.,0.));
#619=DIRECTION('',(0.,0.,-1.));
#620=DIRECTION('',(-1.,0.,0.));
#621=CARTESIAN_POINT('',(0.,0.,0.));
#622=CARTESIAN_POINT('',(0.070125,0.00477910035000001,0.0017));
#623=CARTESIAN_POINT('',(0.0706,0.00477910035000001,0.0017));
#624=CARTESIAN_POINT('',(0.0706,0.00827910035000001,0.0017));
#625=CARTESIAN_POINT('',(0.0706,0.00527910035000001,0.0017));
#626=CARTESIAN_POINT('',(0.070125,0.00527910035000001,0.0017));
#627=CARTESIAN_POINT('',(0.06915,0.00527910035000001,0.0017));
#628=CARTESIAN_POINT('',(0.06915,0.00477910035000001,0.0017));
#629=CARTESIAN_POINT('',(0.06915,0.00827910035000001,0.0017));
#630=CARTESIAN_POINT('',(0.0711,0.00827910035000001,0.0017));
#631=CARTESIAN_POINT('',(0.0711,0.00477910035000001,0.003));
#632=CARTESIAN_POINT('',(0.0711,0.00827910035000001,0.003));
#633=CARTESIAN_POINT('',(0.0711,0.00827910035000001,0.0022));
#634=CARTESIAN_POINT('',(0.0711,0.00827910035000001,0.0038));
#635=CARTESIAN_POINT('',(0.0711,0.00477910035000001,0.0038));
#636=CARTESIAN_POINT('',(0.0711,0.00527910035000001,0.0038));
#637=CARTESIAN_POINT('',(0.0711,0.00527910035000001,0.0017));
#638=CARTESIAN_POINT('',(0.0711,0.00527910035000001,0.0022));
#639=CARTESIAN_POINT('',(0.0711,0.00877910035000001,0.0022));
#640=CARTESIAN_POINT('',(0.070125,0.00477910035000001,0.0043));
#641=CARTESIAN_POINT('',(0.06915,0.00477910035000001,0.0043));
#642=CARTESIAN_POINT('',(0.06915,0.00527910035000001,0.0043));
#643=CARTESIAN_POINT('',(0.06915,0.00827910035000001,0.0043));
#644=CARTESIAN_POINT('',(0.0711,0.00527910035000001,0.0043));
#645=CARTESIAN_POINT('',(0.0706,0.00527910035000001,0.0043));
#646=CARTESIAN_POINT('',(0.0706,0.00477910035000001,0.0043));
#647=CARTESIAN_POINT('',(0.0706,0.00827910035000001,0.0043));
#648=CARTESIAN_POINT('',(0.070125,0.00827910035000001,0.0043));
#649=CARTESIAN_POINT('',(0.06915,0.00477910035000001,0.005));
#650=CARTESIAN_POINT('',(0.06915,0.00877910035000001,0.005));
#651=CARTESIAN_POINT('',(0.06915,0.00877910035000001,0.0057));
#652=CARTESIAN_POINT('',(0.06915,0.00877910035000001,0.0038));
#653=CARTESIAN_POINT('',(0.06915,0.00477910035000001,0.0057));
#654=CARTESIAN_POINT('',(0.06915,0.00477910035000001,0.0057));
#655=CARTESIAN_POINT('',(0.06915,0.00477910035000001,0.005));
#656=CARTESIAN_POINT('',(0.06915,0.00477910035000001,0.0038));
#657=CARTESIAN_POINT('',(0.06915,0.00527910035000001,0.0038));
#658=CARTESIAN_POINT('',(0.06915,0.00827910035000001,0.0038));
#659=CARTESIAN_POINT('',(0.0686,0.00477910035000001,0.0057));
#660=CARTESIAN_POINT('',(0.0686,0.00877910035000001,0.0057));
#661=CARTESIAN_POINT('',(0.06805,0.00877910035000001,0.0057));
#662=CARTESIAN_POINT('',(0.06805,0.00477910035000001,0.0057));
#663=CARTESIAN_POINT('',(0.06805,0.00477910035000001,0.0057));
#664=CARTESIAN_POINT('',(0.0686,0.00477910035000001,0.0057));
#665=CARTESIAN_POINT('',(0.06805,0.00477910035000001,0.0047));
#666=CARTESIAN_POINT('',(0.06805,0.00877910035000001,0.0047));
#667=CARTESIAN_POINT('',(0.06805,0.00877910035000001,0.0037));
#668=CARTESIAN_POINT('',(0.06805,0.00477910035000001,0.0037));
#669=CARTESIAN_POINT('',(0.06805,0.00477910035000001,0.0037));
#670=CARTESIAN_POINT('',(0.06805,0.00477910035000001,0.0047));
#671=CARTESIAN_POINT('',(0.06835,0.00477910035000001,0.0037));
#672=CARTESIAN_POINT('',(0.06835,0.00877910035000001,0.0037));
#673=CARTESIAN_POINT('',(0.06865,0.00877910035000001,0.0037));
#674=CARTESIAN_POINT('',(0.06865,0.00477910035000001,0.0037));
#675=CARTESIAN_POINT('',(0.06865,0.00477910035000001,0.0037));
#676=CARTESIAN_POINT('',(0.06835,0.00477910035000001,0.0037));
#677=CARTESIAN_POINT('',(0.06865,0.00477910035000001,0.003));
#678=CARTESIAN_POINT('',(0.06865,0.00877910035000001,0.003));
#679=CARTESIAN_POINT('',(0.06865,0.00877910035000001,0.0023));
#680=CARTESIAN_POINT('',(0.06865,0.00477910035000001,0.0023));
#681=CARTESIAN_POINT('',(0.06865,0.00477910035000001,0.0023));
#682=CARTESIAN_POINT('',(0.06865,0.00477910035000001,0.003));
#683=CARTESIAN_POINT('',(0.06815,0.00477910035000001,0.0023));
#684=CARTESIAN_POINT('',(0.06815,0.00877910035000001,0.0023));
#685=CARTESIAN_POINT('',(0.06765,0.00877910035000001,0.0023));
#686=CARTESIAN_POINT('',(0.06765,0.00477910035000001,0.0023));
#687=CARTESIAN_POINT('',(0.06765,0.00477910035000001,0.0023));
#688=CARTESIAN_POINT('',(0.06815,0.00477910035000001,0.0023));
#689=CARTESIAN_POINT('',(0.06765,0.00477910035000001,0.0013));
#690=CARTESIAN_POINT('',(0.06765,0.00877910035000001,0.0013));
#691=CARTESIAN_POINT('',(0.06765,0.00877910035000001,0.0003));
#692=CARTESIAN_POINT('',(0.06765,0.00477910035000001,0.0003));
#693=CARTESIAN_POINT('',(0.06765,0.00477910035000001,0.0003));
#694=CARTESIAN_POINT('',(0.06765,0.00477910035000001,0.0013));
#695=CARTESIAN_POINT('',(0.0684,0.00477910035000001,0.0003));
#696=CARTESIAN_POINT('',(0.0684,0.00877910035000001,0.0003));
#697=CARTESIAN_POINT('',(0.06915,0.00877910035000001,0.0003));
#698=CARTESIAN_POINT('',(0.06915,0.00477910035000001,0.0003));
#699=CARTESIAN_POINT('',(0.06915,0.00477910035000001,0.0003));
#700=CARTESIAN_POINT('',(0.0684,0.00477910035000001,0.0003));
#701=CARTESIAN_POINT('',(0.06915,0.00477910035000001,0.001));
#702=CARTESIAN_POINT('',(0.06915,0.00877910035000001,0.001));
#703=CARTESIAN_POINT('',(0.06915,0.00877910035000001,0.0022));
#704=CARTESIAN_POINT('',(0.06915,0.00827910035000001,0.0022));
#705=CARTESIAN_POINT('',(0.06915,0.00527910035000001,0.0022));
#706=CARTESIAN_POINT('',(0.06915,0.00477910035000001,0.0022));
#707=CARTESIAN_POINT('',(0.06915,0.00477910035000001,0.001));
#708=CARTESIAN_POINT('',(0.069375,0.00477910035000001,0.003));
#709=CARTESIAN_POINT('',(0.06915,0.00477910035000001,0.0038));
#710=CARTESIAN_POINT('',(0.0706,0.00477910035000001,0.0038));
#711=CARTESIAN_POINT('',(0.069375,0.00477910035000001,0.0022));
#712=CARTESIAN_POINT('',(0.0706,0.00477910035000001,0.0022));
#713=CARTESIAN_POINT('',(0.0706,0.00477910035000001,0.0043));
#714=CARTESIAN_POINT('',(0.069375,0.00877910035000001,0.003));
#715=CARTESIAN_POINT('',(0.06915,0.00877910035000001,0.0022));
#716=CARTESIAN_POINT('',(0.0706,0.00877910035000001,0.0022));
#717=CARTESIAN_POINT('',(0.069375,0.00877910035000001,0.0038));
#718=CARTESIAN_POINT('',(0.0706,0.00877910035000001,0.0038));
#719=CARTESIAN_POINT('',(0.0706,0.00877910035000001,0.003));
#720=CARTESIAN_POINT('',(0.069375,0.00827910035000001,0.0022));
#721=CARTESIAN_POINT('',(0.0706,0.00827910035000001,0.0022));
#722=CARTESIAN_POINT('',(0.070125,0.00827910035000001,0.0038));
#723=CARTESIAN_POINT('',(0.0706,0.00827910035000001,0.0038));
#724=CARTESIAN_POINT('',(0.0706,0.00827910035000001,0.003));
#725=CARTESIAN_POINT('',(0.0706,0.00827910035000001,0.0022));
#726=CARTESIAN_POINT('',(0.0706,0.00827910035000001,0.0038));
#727=CARTESIAN_POINT('',(0.0706,0.00827910035000001,0.0022));
#728=CARTESIAN_POINT('',(0.0706,0.00827910035000001,0.0022));
#729=CARTESIAN_POINT('',(0.0706,0.00827910035000001,0.0038));
#730=CARTESIAN_POINT('',(0.0706,0.00827910035000001,0.0038));
#731=CARTESIAN_POINT('',(0.0706,0.00477910035000001,0.0022));
#732=CARTESIAN_POINT('',(0.0706,0.00527910035000001,0.0022));
#733=CARTESIAN_POINT('',(0.070125,0.00527910035000001,0.0022));
#734=CARTESIAN_POINT('',(0.0706,0.00527910035000001,0.0022));
#735=CARTESIAN_POINT('',(0.069375,0.00527910035000001,0.0038));
#736=CARTESIAN_POINT('',(0.0706,0.00527910035000001,0.0038));
#737=CARTESIAN_POINT('',(0.0706,0.00477910035000001,0.0038));
#738=CARTESIAN_POINT('',(0.0706,0.00527910035000001,0.0038));
#739=CARTESIAN_POINT('',(0.0706,0.00527910035000001,0.0022));
#740=CARTESIAN_POINT('',(0.0706,0.00527910035000001,0.0022));
#741=CARTESIAN_POINT('',(0.0706,0.00527910035000001,0.0038));
#742=CARTESIAN_POINT('',(0.0706,0.00527910035000001,0.0038));
#743=CARTESIAN_POINT('',(0.0706,0.00527910035000001,0.003));
#744=MECHANICAL_DESIGN_GEOMETRIC_PRESENTATION_REPRESENTATION('',(#437),
#745);
#745=(
GEOMETRIC_REPRESENTATION_CONTEXT(3)
GLOBAL_UNCERTAINTY_ASSIGNED_CONTEXT((#746))
GLOBAL_UNIT_ASSIGNED_CONTEXT((#749,#748,#747))
REPRESENTATION_CONTEXT('Push','TOP_LEVEL_ASSEMBLY_PART')
);
#746=UNCERTAINTY_MEASURE_WITH_UNIT(LENGTH_MEASURE(1.E-8),#749,
'DISTANCE_ACCURACY_VALUE','Maximum Tolerance applied to model');
#747=(
NAMED_UNIT(*)
SI_UNIT($,.STERADIAN.)
SOLID_ANGLE_UNIT()
);
#748=(
NAMED_UNIT(*)
PLANE_ANGLE_UNIT()
SI_UNIT($,.RADIAN.)
);
#749=(
LENGTH_UNIT()
NAMED_UNIT(*)
SI_UNIT($,.METRE.)
);
#750=PRODUCT_DEFINITION_SHAPE('','',#751);
#751=PRODUCT_DEFINITION('','',#753,#752);
#752=PRODUCT_DEFINITION_CONTEXT('',#759,'design');
#753=PRODUCT_DEFINITION_FORMATION_WITH_SPECIFIED_SOURCE('','',#755,
 .NOT_KNOWN.);
#754=PRODUCT_RELATED_PRODUCT_CATEGORY('','',(#755));
#755=PRODUCT('Push','Push','Push',(#757));
#756=PRODUCT_CATEGORY('','');
#757=PRODUCT_CONTEXT('',#759,'mechanical');
#758=APPLICATION_PROTOCOL_DEFINITION('international standard',
'ap242_managed_model_based_3d_engineering',2020,#759);
#759=APPLICATION_CONTEXT('managed model based 3d engineering');
ENDSEC;
END-ISO-10303-21;
