ISO-10303-21;
HEADER;
/* Generated by software containing ST-Developer
 * from STEP Tools, Inc. (www.steptools.com) 
 */
/* OPTION: using custom renumber hook */

FILE_DESCRIPTION(
/* description */ ('STEP AP242 Edition 2',
'CAx-IF Rec.Pracs.---Representation and Presentation of Product Manufa
cturing Information (PMI)---4.0---2014-10-13',
'CAx-IF Rec.Pracs.---3D Tessellated Geometry---0.4---2014-09-14','2;1',
'CAx-IF Rec.Pracs.---User Defined Attributes---1.5---2016-08-15'),
/* implementation_level */ '2;1');

FILE_NAME(
/* name */ 'Case Buttons - Button Housing',
/* time_stamp */ '2026-04-29T19:25:30Z',
/* author */ (''),
/* organization */ (''),
/* preprocessor_version */ 'ST-DEVELOPER v20',
/* originating_system */ 'ONSHAPE BY PTC INC, 1.214',
/* authorisation */ '  ');

FILE_SCHEMA (('AP242_MANAGED_MODEL_BASED_3D_ENGINEERING_MIM_LF { 1 0 10303 442 3 1 4 }'));
ENDSEC;

DATA;
#10=SHAPE_REPRESENTATION_RELATIONSHIP('','',#730,#11);
#11=ADVANCED_BREP_SHAPE_REPRESENTATION('',(#728),#1190);
#12=CYLINDRICAL_SURFACE('',#746,0.00295);
#13=CYLINDRICAL_SURFACE('',#749,0.00295);
#14=CYLINDRICAL_SURFACE('',#779,0.0005);
#15=CYLINDRICAL_SURFACE('',#780,0.0005);
#16=CYLINDRICAL_SURFACE('',#781,0.0005);
#17=CYLINDRICAL_SURFACE('',#782,0.0005);
#18=CYLINDRICAL_SURFACE('',#783,0.0005);
#19=CYLINDRICAL_SURFACE('',#784,0.0005);
#20=CYLINDRICAL_SURFACE('',#785,0.0005);
#21=CYLINDRICAL_SURFACE('',#786,0.0005);
#22=CIRCLE('',#733,0.00295);
#23=CIRCLE('',#738,0.00295);
#24=CIRCLE('',#747,0.00295);
#25=CIRCLE('',#750,0.00295);
#26=CIRCLE('',#752,0.0005);
#27=CIRCLE('',#753,0.0005);
#28=CIRCLE('',#754,0.0005);
#29=CIRCLE('',#755,0.0005);
#30=CIRCLE('',#756,0.0005);
#31=CIRCLE('',#757,0.0005);
#32=CIRCLE('',#758,0.0005);
#33=CIRCLE('',#759,0.0005);
#34=CIRCLE('',#767,0.0005);
#35=CIRCLE('',#768,0.0005);
#36=CIRCLE('',#770,0.0005);
#37=CIRCLE('',#771,0.0005);
#38=CIRCLE('',#774,0.0005);
#39=CIRCLE('',#775,0.0005);
#40=CIRCLE('',#777,0.0005);
#41=CIRCLE('',#778,0.0005);
#42=ORIENTED_EDGE('',*,*,#248,.T.);
#43=ORIENTED_EDGE('',*,*,#249,.T.);
#44=ORIENTED_EDGE('',*,*,#250,.F.);
#45=ORIENTED_EDGE('',*,*,#251,.F.);
#46=ORIENTED_EDGE('',*,*,#252,.T.);
#47=ORIENTED_EDGE('',*,*,#253,.T.);
#48=ORIENTED_EDGE('',*,*,#254,.T.);
#49=ORIENTED_EDGE('',*,*,#255,.F.);
#50=ORIENTED_EDGE('',*,*,#256,.F.);
#51=ORIENTED_EDGE('',*,*,#257,.T.);
#52=ORIENTED_EDGE('',*,*,#258,.F.);
#53=ORIENTED_EDGE('',*,*,#259,.T.);
#54=ORIENTED_EDGE('',*,*,#260,.T.);
#55=ORIENTED_EDGE('',*,*,#261,.T.);
#56=ORIENTED_EDGE('',*,*,#262,.F.);
#57=ORIENTED_EDGE('',*,*,#263,.T.);
#58=ORIENTED_EDGE('',*,*,#264,.F.);
#59=ORIENTED_EDGE('',*,*,#265,.T.);
#60=ORIENTED_EDGE('',*,*,#266,.T.);
#61=ORIENTED_EDGE('',*,*,#267,.T.);
#62=ORIENTED_EDGE('',*,*,#268,.T.);
#63=ORIENTED_EDGE('',*,*,#269,.T.);
#64=ORIENTED_EDGE('',*,*,#270,.T.);
#65=ORIENTED_EDGE('',*,*,#271,.T.);
#66=ORIENTED_EDGE('',*,*,#272,.F.);
#67=ORIENTED_EDGE('',*,*,#273,.F.);
#68=ORIENTED_EDGE('',*,*,#258,.T.);
#69=ORIENTED_EDGE('',*,*,#274,.T.);
#70=ORIENTED_EDGE('',*,*,#250,.T.);
#71=ORIENTED_EDGE('',*,*,#275,.F.);
#72=ORIENTED_EDGE('',*,*,#276,.F.);
#73=ORIENTED_EDGE('',*,*,#277,.T.);
#74=ORIENTED_EDGE('',*,*,#278,.T.);
#75=ORIENTED_EDGE('',*,*,#270,.F.);
#76=ORIENTED_EDGE('',*,*,#279,.T.);
#77=ORIENTED_EDGE('',*,*,#280,.T.);
#78=ORIENTED_EDGE('',*,*,#281,.F.);
#79=ORIENTED_EDGE('',*,*,#282,.T.);
#80=ORIENTED_EDGE('',*,*,#283,.T.);
#81=ORIENTED_EDGE('',*,*,#284,.T.);
#82=ORIENTED_EDGE('',*,*,#285,.F.);
#83=ORIENTED_EDGE('',*,*,#286,.T.);
#84=ORIENTED_EDGE('',*,*,#287,.F.);
#85=ORIENTED_EDGE('',*,*,#252,.F.);
#86=ORIENTED_EDGE('',*,*,#288,.F.);
#87=ORIENTED_EDGE('',*,*,#289,.T.);
#88=ORIENTED_EDGE('',*,*,#290,.F.);
#89=ORIENTED_EDGE('',*,*,#291,.F.);
#90=ORIENTED_EDGE('',*,*,#292,.T.);
#91=ORIENTED_EDGE('',*,*,#293,.T.);
#92=ORIENTED_EDGE('',*,*,#294,.T.);
#93=ORIENTED_EDGE('',*,*,#295,.T.);
#94=ORIENTED_EDGE('',*,*,#254,.F.);
#95=ORIENTED_EDGE('',*,*,#296,.F.);
#96=ORIENTED_EDGE('',*,*,#297,.T.);
#97=ORIENTED_EDGE('',*,*,#298,.T.);
#98=ORIENTED_EDGE('',*,*,#299,.F.);
#99=ORIENTED_EDGE('',*,*,#300,.T.);
#100=ORIENTED_EDGE('',*,*,#301,.F.);
#101=ORIENTED_EDGE('',*,*,#302,.T.);
#102=ORIENTED_EDGE('',*,*,#303,.F.);
#103=ORIENTED_EDGE('',*,*,#304,.T.);
#104=ORIENTED_EDGE('',*,*,#291,.T.);
#105=ORIENTED_EDGE('',*,*,#305,.F.);
#106=ORIENTED_EDGE('',*,*,#256,.T.);
#107=ORIENTED_EDGE('',*,*,#306,.F.);
#108=ORIENTED_EDGE('',*,*,#307,.F.);
#109=ORIENTED_EDGE('',*,*,#308,.T.);
#110=ORIENTED_EDGE('',*,*,#309,.F.);
#111=ORIENTED_EDGE('',*,*,#310,.T.);
#112=ORIENTED_EDGE('',*,*,#311,.F.);
#113=ORIENTED_EDGE('',*,*,#312,.T.);
#114=ORIENTED_EDGE('',*,*,#276,.T.);
#115=ORIENTED_EDGE('',*,*,#269,.F.);
#116=ORIENTED_EDGE('',*,*,#313,.F.);
#117=ORIENTED_EDGE('',*,*,#314,.T.);
#118=ORIENTED_EDGE('',*,*,#248,.F.);
#119=ORIENTED_EDGE('',*,*,#315,.T.);
#120=ORIENTED_EDGE('',*,*,#316,.T.);
#121=ORIENTED_EDGE('',*,*,#317,.F.);
#122=ORIENTED_EDGE('',*,*,#277,.F.);
#123=ORIENTED_EDGE('',*,*,#312,.F.);
#124=ORIENTED_EDGE('',*,*,#259,.F.);
#125=ORIENTED_EDGE('',*,*,#273,.T.);
#126=ORIENTED_EDGE('',*,*,#318,.T.);
#127=ORIENTED_EDGE('',*,*,#315,.F.);
#128=ORIENTED_EDGE('',*,*,#319,.T.);
#129=ORIENTED_EDGE('',*,*,#320,.T.);
#130=ORIENTED_EDGE('',*,*,#321,.T.);
#131=ORIENTED_EDGE('',*,*,#275,.T.);
#132=ORIENTED_EDGE('',*,*,#249,.F.);
#133=ORIENTED_EDGE('',*,*,#314,.F.);
#134=ORIENTED_EDGE('',*,*,#322,.T.);
#135=ORIENTED_EDGE('',*,*,#323,.T.);
#136=ORIENTED_EDGE('',*,*,#278,.F.);
#137=ORIENTED_EDGE('',*,*,#317,.T.);
#138=ORIENTED_EDGE('',*,*,#324,.T.);
#139=ORIENTED_EDGE('',*,*,#271,.F.);
#140=ORIENTED_EDGE('',*,*,#316,.F.);
#141=ORIENTED_EDGE('',*,*,#318,.F.);
#142=ORIENTED_EDGE('',*,*,#272,.T.);
#143=ORIENTED_EDGE('',*,*,#324,.F.);
#144=ORIENTED_EDGE('',*,*,#260,.F.);
#145=ORIENTED_EDGE('',*,*,#325,.T.);
#146=ORIENTED_EDGE('',*,*,#309,.T.);
#147=ORIENTED_EDGE('',*,*,#326,.T.);
#148=ORIENTED_EDGE('',*,*,#264,.T.);
#149=ORIENTED_EDGE('',*,*,#327,.T.);
#150=ORIENTED_EDGE('',*,*,#319,.F.);
#151=ORIENTED_EDGE('',*,*,#328,.T.);
#152=ORIENTED_EDGE('',*,*,#292,.F.);
#153=ORIENTED_EDGE('',*,*,#329,.T.);
#154=ORIENTED_EDGE('',*,*,#281,.T.);
#155=ORIENTED_EDGE('',*,*,#330,.T.);
#156=ORIENTED_EDGE('',*,*,#301,.T.);
#157=ORIENTED_EDGE('',*,*,#331,.T.);
#158=ORIENTED_EDGE('',*,*,#283,.F.);
#159=ORIENTED_EDGE('',*,*,#332,.T.);
#160=ORIENTED_EDGE('',*,*,#257,.F.);
#161=ORIENTED_EDGE('',*,*,#305,.T.);
#162=ORIENTED_EDGE('',*,*,#290,.T.);
#163=ORIENTED_EDGE('',*,*,#333,.T.);
#164=ORIENTED_EDGE('',*,*,#334,.T.);
#165=ORIENTED_EDGE('',*,*,#335,.F.);
#166=ORIENTED_EDGE('',*,*,#251,.T.);
#167=ORIENTED_EDGE('',*,*,#336,.T.);
#168=ORIENTED_EDGE('',*,*,#337,.F.);
#169=ORIENTED_EDGE('',*,*,#338,.F.);
#170=ORIENTED_EDGE('',*,*,#288,.T.);
#171=ORIENTED_EDGE('',*,*,#339,.T.);
#172=ORIENTED_EDGE('',*,*,#334,.F.);
#173=ORIENTED_EDGE('',*,*,#340,.F.);
#174=ORIENTED_EDGE('',*,*,#337,.T.);
#175=ORIENTED_EDGE('',*,*,#333,.F.);
#176=ORIENTED_EDGE('',*,*,#289,.F.);
#177=ORIENTED_EDGE('',*,*,#338,.T.);
#178=ORIENTED_EDGE('',*,*,#340,.T.);
#179=ORIENTED_EDGE('',*,*,#274,.F.);
#180=ORIENTED_EDGE('',*,*,#335,.T.);
#181=ORIENTED_EDGE('',*,*,#339,.F.);
#182=ORIENTED_EDGE('',*,*,#336,.F.);
#183=ORIENTED_EDGE('',*,*,#287,.T.);
#184=ORIENTED_EDGE('',*,*,#304,.F.);
#185=ORIENTED_EDGE('',*,*,#341,.T.);
#186=ORIENTED_EDGE('',*,*,#296,.T.);
#187=ORIENTED_EDGE('',*,*,#253,.F.);
#188=ORIENTED_EDGE('',*,*,#297,.F.);
#189=ORIENTED_EDGE('',*,*,#341,.F.);
#190=ORIENTED_EDGE('',*,*,#303,.T.);
#191=ORIENTED_EDGE('',*,*,#342,.T.);
#192=ORIENTED_EDGE('',*,*,#279,.F.);
#193=ORIENTED_EDGE('',*,*,#343,.T.);
#194=ORIENTED_EDGE('',*,*,#294,.F.);
#195=ORIENTED_EDGE('',*,*,#344,.T.);
#196=ORIENTED_EDGE('',*,*,#285,.T.);
#197=ORIENTED_EDGE('',*,*,#345,.T.);
#198=ORIENTED_EDGE('',*,*,#299,.T.);
#199=ORIENTED_EDGE('',*,*,#346,.T.);
#200=ORIENTED_EDGE('',*,*,#255,.T.);
#201=ORIENTED_EDGE('',*,*,#295,.F.);
#202=ORIENTED_EDGE('',*,*,#346,.F.);
#203=ORIENTED_EDGE('',*,*,#306,.T.);
#204=ORIENTED_EDGE('',*,*,#307,.T.);
#205=ORIENTED_EDGE('',*,*,#268,.F.);
#206=ORIENTED_EDGE('',*,*,#321,.F.);
#207=ORIENTED_EDGE('',*,*,#347,.T.);
#208=ORIENTED_EDGE('',*,*,#266,.F.);
#209=ORIENTED_EDGE('',*,*,#348,.T.);
#210=ORIENTED_EDGE('',*,*,#311,.T.);
#211=ORIENTED_EDGE('',*,*,#349,.T.);
#212=ORIENTED_EDGE('',*,*,#262,.T.);
#213=ORIENTED_EDGE('',*,*,#350,.T.);
#214=ORIENTED_EDGE('',*,*,#322,.F.);
#215=ORIENTED_EDGE('',*,*,#313,.T.);
#216=ORIENTED_EDGE('',*,*,#348,.F.);
#217=ORIENTED_EDGE('',*,*,#265,.F.);
#218=ORIENTED_EDGE('',*,*,#326,.F.);
#219=ORIENTED_EDGE('',*,*,#308,.F.);
#220=ORIENTED_EDGE('',*,*,#347,.F.);
#221=ORIENTED_EDGE('',*,*,#320,.F.);
#222=ORIENTED_EDGE('',*,*,#327,.F.);
#223=ORIENTED_EDGE('',*,*,#267,.F.);
#224=ORIENTED_EDGE('',*,*,#350,.F.);
#225=ORIENTED_EDGE('',*,*,#261,.F.);
#226=ORIENTED_EDGE('',*,*,#328,.F.);
#227=ORIENTED_EDGE('',*,*,#323,.F.);
#228=ORIENTED_EDGE('',*,*,#349,.F.);
#229=ORIENTED_EDGE('',*,*,#310,.F.);
#230=ORIENTED_EDGE('',*,*,#325,.F.);
#231=ORIENTED_EDGE('',*,*,#263,.F.);
#232=ORIENTED_EDGE('',*,*,#345,.F.);
#233=ORIENTED_EDGE('',*,*,#284,.F.);
#234=ORIENTED_EDGE('',*,*,#331,.F.);
#235=ORIENTED_EDGE('',*,*,#300,.F.);
#236=ORIENTED_EDGE('',*,*,#344,.F.);
#237=ORIENTED_EDGE('',*,*,#293,.F.);
#238=ORIENTED_EDGE('',*,*,#332,.F.);
#239=ORIENTED_EDGE('',*,*,#286,.F.);
#240=ORIENTED_EDGE('',*,*,#342,.F.);
#241=ORIENTED_EDGE('',*,*,#302,.F.);
#242=ORIENTED_EDGE('',*,*,#330,.F.);
#243=ORIENTED_EDGE('',*,*,#280,.F.);
#244=ORIENTED_EDGE('',*,*,#343,.F.);
#245=ORIENTED_EDGE('',*,*,#282,.F.);
#246=ORIENTED_EDGE('',*,*,#329,.F.);
#247=ORIENTED_EDGE('',*,*,#298,.F.);
#248=EDGE_CURVE('',#351,#352,#419,.T.);
#249=EDGE_CURVE('',#352,#353,#420,.T.);
#250=EDGE_CURVE('',#354,#353,#421,.T.);
#251=EDGE_CURVE('',#355,#354,#422,.T.);
#252=EDGE_CURVE('',#355,#356,#423,.T.);
#253=EDGE_CURVE('',#356,#357,#424,.T.);
#254=EDGE_CURVE('',#357,#358,#425,.T.);
#255=EDGE_CURVE('',#359,#358,#426,.T.);
#256=EDGE_CURVE('',#360,#359,#427,.T.);
#257=EDGE_CURVE('',#360,#361,#428,.T.);
#258=EDGE_CURVE('',#362,#361,#429,.T.);
#259=EDGE_CURVE('',#362,#351,#22,.T.);
#260=EDGE_CURVE('',#363,#364,#430,.T.);
#261=EDGE_CURVE('',#364,#365,#431,.F.);
#262=EDGE_CURVE('',#366,#365,#432,.T.);
#263=EDGE_CURVE('',#366,#363,#433,.T.);
#264=EDGE_CURVE('',#367,#368,#434,.T.);
#265=EDGE_CURVE('',#367,#369,#435,.F.);
#266=EDGE_CURVE('',#369,#370,#436,.T.);
#267=EDGE_CURVE('',#370,#368,#437,.T.);
#268=EDGE_CURVE('',#371,#372,#438,.T.);
#269=EDGE_CURVE('',#372,#373,#439,.T.);
#270=EDGE_CURVE('',#373,#374,#440,.T.);
#271=EDGE_CURVE('',#374,#375,#441,.T.);
#272=EDGE_CURVE('',#376,#375,#442,.T.);
#273=EDGE_CURVE('',#362,#376,#443,.T.);
#274=EDGE_CURVE('',#361,#354,#444,.T.);
#275=EDGE_CURVE('',#371,#353,#445,.T.);
#276=EDGE_CURVE('',#377,#373,#446,.T.);
#277=EDGE_CURVE('',#377,#378,#447,.T.);
#278=EDGE_CURVE('',#378,#374,#23,.T.);
#279=EDGE_CURVE('',#379,#380,#448,.T.);
#280=EDGE_CURVE('',#380,#381,#449,.T.);
#281=EDGE_CURVE('',#382,#381,#450,.T.);
#282=EDGE_CURVE('',#382,#379,#451,.F.);
#283=EDGE_CURVE('',#383,#384,#452,.T.);
#284=EDGE_CURVE('',#384,#385,#453,.F.);
#285=EDGE_CURVE('',#386,#385,#454,.T.);
#286=EDGE_CURVE('',#386,#383,#455,.T.);
#287=EDGE_CURVE('',#356,#387,#456,.F.);
#288=EDGE_CURVE('',#388,#355,#457,.F.);
#289=EDGE_CURVE('',#388,#389,#458,.T.);
#290=EDGE_CURVE('',#390,#389,#459,.F.);
#291=EDGE_CURVE('',#387,#390,#460,.F.);
#292=EDGE_CURVE('',#391,#392,#461,.T.);
#293=EDGE_CURVE('',#392,#393,#462,.F.);
#294=EDGE_CURVE('',#393,#394,#463,.T.);
#295=EDGE_CURVE('',#394,#358,#464,.T.);
#296=EDGE_CURVE('',#395,#357,#465,.T.);
#297=EDGE_CURVE('',#395,#396,#466,.T.);
#298=EDGE_CURVE('',#396,#391,#467,.T.);
#299=EDGE_CURVE('',#397,#398,#468,.T.);
#300=EDGE_CURVE('',#397,#399,#469,.T.);
#301=EDGE_CURVE('',#400,#399,#470,.T.);
#302=EDGE_CURVE('',#400,#401,#471,.F.);
#303=EDGE_CURVE('',#402,#401,#472,.T.);
#304=EDGE_CURVE('',#402,#387,#473,.T.);
#305=EDGE_CURVE('',#360,#390,#474,.F.);
#306=EDGE_CURVE('',#398,#359,#475,.T.);
#307=EDGE_CURVE('',#403,#372,#476,.T.);
#308=EDGE_CURVE('',#403,#404,#477,.T.);
#309=EDGE_CURVE('',#405,#404,#478,.T.);
#310=EDGE_CURVE('',#405,#406,#479,.F.);
#311=EDGE_CURVE('',#407,#406,#480,.T.);
#312=EDGE_CURVE('',#407,#377,#481,.T.);
#313=EDGE_CURVE('',#408,#407,#482,.T.);
#314=EDGE_CURVE('',#408,#352,#483,.T.);
#315=EDGE_CURVE('',#351,#409,#484,.T.);
#316=EDGE_CURVE('',#409,#410,#485,.T.);
#317=EDGE_CURVE('',#378,#410,#486,.T.);
#318=EDGE_CURVE('',#376,#409,#24,.T.);
#319=EDGE_CURVE('',#411,#412,#487,.T.);
#320=EDGE_CURVE('',#412,#413,#488,.F.);
#321=EDGE_CURVE('',#413,#371,#489,.T.);
#322=EDGE_CURVE('',#408,#414,#490,.T.);
#323=EDGE_CURVE('',#414,#411,#491,.T.);
#324=EDGE_CURVE('',#410,#375,#25,.T.);
#325=EDGE_CURVE('',#363,#405,#26,.F.);
#326=EDGE_CURVE('',#404,#367,#27,.F.);
#327=EDGE_CURVE('',#368,#412,#28,.F.);
#328=EDGE_CURVE('',#411,#364,#29,.F.);
#329=EDGE_CURVE('',#391,#382,#30,.F.);
#330=EDGE_CURVE('',#381,#400,#31,.F.);
#331=EDGE_CURVE('',#399,#384,#32,.F.);
#332=EDGE_CURVE('',#383,#392,#33,.F.);
#333=EDGE_CURVE('',#389,#415,#492,.T.);
#334=EDGE_CURVE('',#415,#416,#493,.T.);
#335=EDGE_CURVE('',#361,#416,#494,.T.);
#336=EDGE_CURVE('',#354,#417,#495,.T.);
#337=EDGE_CURVE('',#418,#417,#496,.T.);
#338=EDGE_CURVE('',#388,#418,#497,.T.);
#339=EDGE_CURVE('',#417,#416,#498,.T.);
#340=EDGE_CURVE('',#418,#415,#499,.T.);
#341=EDGE_CURVE('',#402,#395,#500,.T.);
#342=EDGE_CURVE('',#401,#380,#34,.F.);
#343=EDGE_CURVE('',#379,#396,#35,.F.);
#344=EDGE_CURVE('',#393,#386,#36,.F.);
#345=EDGE_CURVE('',#385,#397,#37,.F.);
#346=EDGE_CURVE('',#398,#394,#501,.T.);
#347=EDGE_CURVE('',#413,#370,#38,.F.);
#348=EDGE_CURVE('',#369,#403,#39,.F.);
#349=EDGE_CURVE('',#406,#366,#40,.F.);
#350=EDGE_CURVE('',#365,#414,#41,.F.);
#351=VERTEX_POINT('',#985);
#352=VERTEX_POINT('',#986);
#353=VERTEX_POINT('',#988);
#354=VERTEX_POINT('',#990);
#355=VERTEX_POINT('',#992);
#356=VERTEX_POINT('',#994);
#357=VERTEX_POINT('',#996);
#358=VERTEX_POINT('',#998);
#359=VERTEX_POINT('',#1000);
#360=VERTEX_POINT('',#1002);
#361=VERTEX_POINT('',#1004);
#362=VERTEX_POINT('',#1006);
#363=VERTEX_POINT('',#1010);
#364=VERTEX_POINT('',#1011);
#365=VERTEX_POINT('',#1013);
#366=VERTEX_POINT('',#1015);
#367=VERTEX_POINT('',#1019);
#368=VERTEX_POINT('',#1020);
#369=VERTEX_POINT('',#1022);
#370=VERTEX_POINT('',#1024);
#371=VERTEX_POINT('',#1028);
#372=VERTEX_POINT('',#1029);
#373=VERTEX_POINT('',#1031);
#374=VERTEX_POINT('',#1033);
#375=VERTEX_POINT('',#1035);
#376=VERTEX_POINT('',#1037);
#377=VERTEX_POINT('',#1043);
#378=VERTEX_POINT('',#1045);
#379=VERTEX_POINT('',#1049);
#380=VERTEX_POINT('',#1050);
#381=VERTEX_POINT('',#1052);
#382=VERTEX_POINT('',#1054);
#383=VERTEX_POINT('',#1058);
#384=VERTEX_POINT('',#1059);
#385=VERTEX_POINT('',#1061);
#386=VERTEX_POINT('',#1063);
#387=VERTEX_POINT('',#1067);
#388=VERTEX_POINT('',#1069);
#389=VERTEX_POINT('',#1071);
#390=VERTEX_POINT('',#1073);
#391=VERTEX_POINT('',#1077);
#392=VERTEX_POINT('',#1078);
#393=VERTEX_POINT('',#1080);
#394=VERTEX_POINT('',#1082);
#395=VERTEX_POINT('',#1085);
#396=VERTEX_POINT('',#1087);
#397=VERTEX_POINT('',#1091);
#398=VERTEX_POINT('',#1092);
#399=VERTEX_POINT('',#1094);
#400=VERTEX_POINT('',#1096);
#401=VERTEX_POINT('',#1098);
#402=VERTEX_POINT('',#1100);
#403=VERTEX_POINT('',#1106);
#404=VERTEX_POINT('',#1108);
#405=VERTEX_POINT('',#1110);
#406=VERTEX_POINT('',#1112);
#407=VERTEX_POINT('',#1114);
#408=VERTEX_POINT('',#1118);
#409=VERTEX_POINT('',#1121);
#410=VERTEX_POINT('',#1123);
#411=VERTEX_POINT('',#1129);
#412=VERTEX_POINT('',#1130);
#413=VERTEX_POINT('',#1132);
#414=VERTEX_POINT('',#1135);
#415=VERTEX_POINT('',#1150);
#416=VERTEX_POINT('',#1152);
#417=VERTEX_POINT('',#1156);
#418=VERTEX_POINT('',#1158);
#419=LINE('',#984,#502);
#420=LINE('',#987,#503);
#421=LINE('',#989,#504);
#422=LINE('',#991,#505);
#423=LINE('',#993,#506);
#424=LINE('',#995,#507);
#425=LINE('',#997,#508);
#426=LINE('',#999,#509);
#427=LINE('',#1001,#510);
#428=LINE('',#1003,#511);
#429=LINE('',#1005,#512);
#430=LINE('',#1009,#513);
#431=LINE('',#1012,#514);
#432=LINE('',#1014,#515);
#433=LINE('',#1016,#516);
#434=LINE('',#1018,#517);
#435=LINE('',#1021,#518);
#436=LINE('',#1023,#519);
#437=LINE('',#1025,#520);
#438=LINE('',#1027,#521);
#439=LINE('',#1030,#522);
#440=LINE('',#1032,#523);
#441=LINE('',#1034,#524);
#442=LINE('',#1036,#525);
#443=LINE('',#1038,#526);
#444=LINE('',#1039,#527);
#445=LINE('',#1040,#528);
#446=LINE('',#1042,#529);
#447=LINE('',#1044,#530);
#448=LINE('',#1048,#531);
#449=LINE('',#1051,#532);
#450=LINE('',#1053,#533);
#451=LINE('',#1055,#534);
#452=LINE('',#1057,#535);
#453=LINE('',#1060,#536);
#454=LINE('',#1062,#537);
#455=LINE('',#1064,#538);
#456=LINE('',#1066,#539);
#457=LINE('',#1068,#540);
#458=LINE('',#1070,#541);
#459=LINE('',#1072,#542);
#460=LINE('',#1074,#543);
#461=LINE('',#1076,#544);
#462=LINE('',#1079,#545);
#463=LINE('',#1081,#546);
#464=LINE('',#1083,#547);
#465=LINE('',#1084,#548);
#466=LINE('',#1086,#549);
#467=LINE('',#1088,#550);
#468=LINE('',#1090,#551);
#469=LINE('',#1093,#552);
#470=LINE('',#1095,#553);
#471=LINE('',#1097,#554);
#472=LINE('',#1099,#555);
#473=LINE('',#1101,#556);
#474=LINE('',#1102,#557);
#475=LINE('',#1103,#558);
#476=LINE('',#1105,#559);
#477=LINE('',#1107,#560);
#478=LINE('',#1109,#561);
#479=LINE('',#1111,#562);
#480=LINE('',#1113,#563);
#481=LINE('',#1115,#564);
#482=LINE('',#1117,#565);
#483=LINE('',#1119,#566);
#484=LINE('',#1120,#567);
#485=LINE('',#1122,#568);
#486=LINE('',#1124,#569);
#487=LINE('',#1128,#570);
#488=LINE('',#1131,#571);
#489=LINE('',#1133,#572);
#490=LINE('',#1134,#573);
#491=LINE('',#1136,#574);
#492=LINE('',#1149,#575);
#493=LINE('',#1151,#576);
#494=LINE('',#1153,#577);
#495=LINE('',#1155,#578);
#496=LINE('',#1157,#579);
#497=LINE('',#1159,#580);
#498=LINE('',#1161,#581);
#499=LINE('',#1162,#582);
#500=LINE('',#1166,#583);
#501=LINE('',#1173,#584);
#502=VECTOR('',#791,1.);
#503=VECTOR('',#792,1.);
#504=VECTOR('',#793,1.);
#505=VECTOR('',#794,1.);
#506=VECTOR('',#795,1.);
#507=VECTOR('',#796,1.);
#508=VECTOR('',#797,1.);
#509=VECTOR('',#798,1.);
#510=VECTOR('',#799,1.);
#511=VECTOR('',#800,1.);
#512=VECTOR('',#801,1.);
#513=VECTOR('',#806,1.);
#514=VECTOR('',#807,1.);
#515=VECTOR('',#808,1.);
#516=VECTOR('',#809,1.);
#517=VECTOR('',#812,1.);
#518=VECTOR('',#813,1.);
#519=VECTOR('',#814,1.);
#520=VECTOR('',#815,1.);
#521=VECTOR('',#818,1.);
#522=VECTOR('',#819,1.);
#523=VECTOR('',#820,1.);
#524=VECTOR('',#821,1.);
#525=VECTOR('',#822,1.);
#526=VECTOR('',#823,1.);
#527=VECTOR('',#824,1.);
#528=VECTOR('',#825,1.);
#529=VECTOR('',#828,1.);
#530=VECTOR('',#829,1.);
#531=VECTOR('',#834,1.);
#532=VECTOR('',#835,1.);
#533=VECTOR('',#836,1.);
#534=VECTOR('',#837,1.);
#535=VECTOR('',#840,1.);
#536=VECTOR('',#841,1.);
#537=VECTOR('',#842,1.);
#538=VECTOR('',#843,1.);
#539=VECTOR('',#846,1.);
#540=VECTOR('',#847,1.);
#541=VECTOR('',#848,1.);
#542=VECTOR('',#849,1.);
#543=VECTOR('',#850,1.);
#544=VECTOR('',#853,1.);
#545=VECTOR('',#854,1.);
#546=VECTOR('',#855,1.);
#547=VECTOR('',#856,1.);
#548=VECTOR('',#857,1.);
#549=VECTOR('',#858,1.);
#550=VECTOR('',#859,1.);
#551=VECTOR('',#862,1.);
#552=VECTOR('',#863,1.);
#553=VECTOR('',#864,1.);
#554=VECTOR('',#865,1.);
#555=VECTOR('',#866,1.);
#556=VECTOR('',#867,1.);
#557=VECTOR('',#868,1.);
#558=VECTOR('',#869,1.);
#559=VECTOR('',#872,1.);
#560=VECTOR('',#873,1.);
#561=VECTOR('',#874,1.);
#562=VECTOR('',#875,1.);
#563=VECTOR('',#876,1.);
#564=VECTOR('',#877,1.);
#565=VECTOR('',#880,1.);
#566=VECTOR('',#881,1.);
#567=VECTOR('',#882,1.);
#568=VECTOR('',#883,1.);
#569=VECTOR('',#884,1.);
#570=VECTOR('',#891,1.);
#571=VECTOR('',#892,1.);
#572=VECTOR('',#893,1.);
#573=VECTOR('',#894,1.);
#574=VECTOR('',#895,1.);
#575=VECTOR('',#920,1.);
#576=VECTOR('',#921,1.);
#577=VECTOR('',#922,1.);
#578=VECTOR('',#925,1.);
#579=VECTOR('',#926,1.);
#580=VECTOR('',#927,1.);
#581=VECTOR('',#930,1.);
#582=VECTOR('',#931,1.);
#583=VECTOR('',#938,1.);
#584=VECTOR('',#951,1.);
#585=EDGE_LOOP('',(#42,#43,#44,#45,#46,#47,#48,#49,#50,#51,#52,#53));
#586=EDGE_LOOP('',(#54,#55,#56,#57));
#587=EDGE_LOOP('',(#58,#59,#60,#61));
#588=EDGE_LOOP('',(#62,#63,#64,#65,#66,#67,#68,#69,#70,#71));
#589=EDGE_LOOP('',(#72,#73,#74,#75));
#590=EDGE_LOOP('',(#76,#77,#78,#79));
#591=EDGE_LOOP('',(#80,#81,#82,#83));
#592=EDGE_LOOP('',(#84,#85,#86,#87,#88,#89));
#593=EDGE_LOOP('',(#90,#91,#92,#93,#94,#95,#96,#97));
#594=EDGE_LOOP('',(#98,#99,#100,#101,#102,#103,#104,#105,#106,#107));
#595=EDGE_LOOP('',(#108,#109,#110,#111,#112,#113,#114,#115));
#596=EDGE_LOOP('',(#116,#117,#118,#119,#120,#121,#122,#123));
#597=EDGE_LOOP('',(#124,#125,#126,#127));
#598=EDGE_LOOP('',(#128,#129,#130,#131,#132,#133,#134,#135));
#599=EDGE_LOOP('',(#136,#137,#138,#139));
#600=EDGE_LOOP('',(#140,#141,#142,#143));
#601=EDGE_LOOP('',(#144,#145,#146,#147,#148,#149,#150,#151));
#602=EDGE_LOOP('',(#152,#153,#154,#155,#156,#157,#158,#159));
#603=EDGE_LOOP('',(#160,#161,#162,#163,#164,#165));
#604=EDGE_LOOP('',(#166,#167,#168,#169,#170));
#605=EDGE_LOOP('',(#171,#172,#173,#174));
#606=EDGE_LOOP('',(#175,#176,#177,#178));
#607=EDGE_LOOP('',(#179,#180,#181,#182));
#608=EDGE_LOOP('',(#183,#184,#185,#186,#187));
#609=EDGE_LOOP('',(#188,#189,#190,#191,#192,#193));
#610=EDGE_LOOP('',(#194,#195,#196,#197,#198,#199));
#611=EDGE_LOOP('',(#200,#201,#202,#203));
#612=EDGE_LOOP('',(#204,#205,#206,#207,#208,#209));
#613=EDGE_LOOP('',(#210,#211,#212,#213,#214,#215));
#614=EDGE_LOOP('',(#216,#217,#218,#219));
#615=EDGE_LOOP('',(#220,#221,#222,#223));
#616=EDGE_LOOP('',(#224,#225,#226,#227));
#617=EDGE_LOOP('',(#228,#229,#230,#231));
#618=EDGE_LOOP('',(#232,#233,#234,#235));
#619=EDGE_LOOP('',(#236,#237,#238,#239));
#620=EDGE_LOOP('',(#240,#241,#242,#243));
#621=EDGE_LOOP('',(#244,#245,#246,#247));
#622=FACE_BOUND('',#585,.T.);
#623=FACE_BOUND('',#586,.T.);
#624=FACE_BOUND('',#587,.T.);
#625=FACE_BOUND('',#588,.T.);
#626=FACE_BOUND('',#589,.T.);
#627=FACE_BOUND('',#590,.T.);
#628=FACE_BOUND('',#591,.T.);
#629=FACE_BOUND('',#592,.T.);
#630=FACE_BOUND('',#593,.T.);
#631=FACE_BOUND('',#594,.T.);
#632=FACE_BOUND('',#595,.T.);
#633=FACE_BOUND('',#596,.T.);
#634=FACE_BOUND('',#597,.T.);
#635=FACE_BOUND('',#598,.T.);
#636=FACE_BOUND('',#599,.T.);
#637=FACE_BOUND('',#600,.T.);
#638=FACE_BOUND('',#601,.T.);
#639=FACE_BOUND('',#602,.T.);
#640=FACE_BOUND('',#603,.T.);
#641=FACE_BOUND('',#604,.T.);
#642=FACE_BOUND('',#605,.T.);
#643=FACE_BOUND('',#606,.T.);
#644=FACE_BOUND('',#607,.T.);
#645=FACE_BOUND('',#608,.T.);
#646=FACE_BOUND('',#609,.T.);
#647=FACE_BOUND('',#610,.T.);
#648=FACE_BOUND('',#611,.T.);
#649=FACE_BOUND('',#612,.T.);
#650=FACE_BOUND('',#613,.T.);
#651=FACE_BOUND('',#614,.T.);
#652=FACE_BOUND('',#615,.T.);
#653=FACE_BOUND('',#616,.T.);
#654=FACE_BOUND('',#617,.T.);
#655=FACE_BOUND('',#618,.T.);
#656=FACE_BOUND('',#619,.T.);
#657=FACE_BOUND('',#620,.T.);
#658=FACE_BOUND('',#621,.T.);
#659=PLANE('',#732);
#660=PLANE('',#734);
#661=PLANE('',#735);
#662=PLANE('',#736);
#663=PLANE('',#737);
#664=PLANE('',#739);
#665=PLANE('',#740);
#666=PLANE('',#741);
#667=PLANE('',#742);
#668=PLANE('',#743);
#669=PLANE('',#744);
#670=PLANE('',#745);
#671=PLANE('',#748);
#672=PLANE('',#751);
#673=PLANE('',#760);
#674=PLANE('',#761);
#675=PLANE('',#762);
#676=PLANE('',#763);
#677=PLANE('',#764);
#678=PLANE('',#765);
#679=PLANE('',#766);
#680=PLANE('',#769);
#681=PLANE('',#772);
#682=PLANE('',#773);
#683=PLANE('',#776);
#684=ADVANCED_FACE('',(#622),#659,.T.);
#685=ADVANCED_FACE('',(#623),#660,.F.);
#686=ADVANCED_FACE('',(#624),#661,.T.);
#687=ADVANCED_FACE('',(#625),#662,.T.);
#688=ADVANCED_FACE('',(#626),#663,.T.);
#689=ADVANCED_FACE('',(#627),#664,.T.);
#690=ADVANCED_FACE('',(#628),#665,.F.);
#691=ADVANCED_FACE('',(#629),#666,.T.);
#692=ADVANCED_FACE('',(#630),#667,.F.);
#693=ADVANCED_FACE('',(#631),#668,.T.);
#694=ADVANCED_FACE('',(#632),#669,.T.);
#695=ADVANCED_FACE('',(#633),#670,.F.);
#696=ADVANCED_FACE('',(#634),#12,.T.);
#697=ADVANCED_FACE('',(#635),#671,.F.);
#698=ADVANCED_FACE('',(#636),#13,.T.);
#699=ADVANCED_FACE('',(#637,#638,#639),#672,.T.);
#700=ADVANCED_FACE('',(#640),#673,.T.);
#701=ADVANCED_FACE('',(#641),#674,.F.);
#702=ADVANCED_FACE('',(#642),#675,.F.);
#703=ADVANCED_FACE('',(#643),#676,.T.);
#704=ADVANCED_FACE('',(#644),#677,.F.);
#705=ADVANCED_FACE('',(#645),#678,.T.);
#706=ADVANCED_FACE('',(#646),#679,.T.);
#707=ADVANCED_FACE('',(#647),#680,.T.);
#708=ADVANCED_FACE('',(#648),#681,.F.);
#709=ADVANCED_FACE('',(#649),#682,.T.);
#710=ADVANCED_FACE('',(#650),#683,.T.);
#711=ADVANCED_FACE('',(#651),#14,.F.);
#712=ADVANCED_FACE('',(#652),#15,.F.);
#713=ADVANCED_FACE('',(#653),#16,.F.);
#714=ADVANCED_FACE('',(#654),#17,.F.);
#715=ADVANCED_FACE('',(#655),#18,.F.);
#716=ADVANCED_FACE('',(#656),#19,.F.);
#717=ADVANCED_FACE('',(#657),#20,.F.);
#718=ADVANCED_FACE('',(#658),#21,.F.);
#719=CLOSED_SHELL('',(#684,#685,#686,#687,#688,#689,#690,#691,#692,#693,
#694,#695,#696,#697,#698,#699,#700,#701,#702,#703,#704,#705,#706,#707,#708,
#709,#710,#711,#712,#713,#714,#715,#716,#717,#718));
#720=STYLED_ITEM('',(#721),#728);
#721=PRESENTATION_STYLE_ASSIGNMENT((#722));
#722=SURFACE_STYLE_USAGE(.BOTH.,#723);
#723=SURFACE_SIDE_STYLE('',(#724));
#724=SURFACE_STYLE_FILL_AREA(#725);
#725=FILL_AREA_STYLE('',(#726));
#726=FILL_AREA_STYLE_COLOUR('',#727);
#727=COLOUR_RGB('',0.615686274509804,0.811764705882353,0.929411764705882);
#728=MANIFOLD_SOLID_BREP('Button Housing',#719);
#729=SHAPE_DEFINITION_REPRESENTATION(#1195,#730);
#730=SHAPE_REPRESENTATION('Button Housing',(#731),#1190);
#731=AXIS2_PLACEMENT_3D('',#982,#787,#788);
#732=AXIS2_PLACEMENT_3D('',#983,#789,#790);
#733=AXIS2_PLACEMENT_3D('',#1007,#802,#803);
#734=AXIS2_PLACEMENT_3D('',#1008,#804,#805);
#735=AXIS2_PLACEMENT_3D('',#1017,#810,#811);
#736=AXIS2_PLACEMENT_3D('',#1026,#816,#817);
#737=AXIS2_PLACEMENT_3D('',#1041,#826,#827);
#738=AXIS2_PLACEMENT_3D('',#1046,#830,#831);
#739=AXIS2_PLACEMENT_3D('',#1047,#832,#833);
#740=AXIS2_PLACEMENT_3D('',#1056,#838,#839);
#741=AXIS2_PLACEMENT_3D('',#1065,#844,#845);
#742=AXIS2_PLACEMENT_3D('',#1075,#851,#852);
#743=AXIS2_PLACEMENT_3D('',#1089,#860,#861);
#744=AXIS2_PLACEMENT_3D('',#1104,#870,#871);
#745=AXIS2_PLACEMENT_3D('',#1116,#878,#879);
#746=AXIS2_PLACEMENT_3D('',#1125,#885,#886);
#747=AXIS2_PLACEMENT_3D('',#1126,#887,#888);
#748=AXIS2_PLACEMENT_3D('',#1127,#889,#890);
#749=AXIS2_PLACEMENT_3D('',#1137,#896,#897);
#750=AXIS2_PLACEMENT_3D('',#1138,#898,#899);
#751=AXIS2_PLACEMENT_3D('',#1139,#900,#901);
#752=AXIS2_PLACEMENT_3D('',#1140,#902,#903);
#753=AXIS2_PLACEMENT_3D('',#1141,#904,#905);
#754=AXIS2_PLACEMENT_3D('',#1142,#906,#907);
#755=AXIS2_PLACEMENT_3D('',#1143,#908,#909);
#756=AXIS2_PLACEMENT_3D('',#1144,#910,#911);
#757=AXIS2_PLACEMENT_3D('',#1145,#912,#913);
#758=AXIS2_PLACEMENT_3D('',#1146,#914,#915);
#759=AXIS2_PLACEMENT_3D('',#1147,#916,#917);
#760=AXIS2_PLACEMENT_3D('',#1148,#918,#919);
#761=AXIS2_PLACEMENT_3D('',#1154,#923,#924);
#762=AXIS2_PLACEMENT_3D('',#1160,#928,#929);
#763=AXIS2_PLACEMENT_3D('',#1163,#932,#933);
#764=AXIS2_PLACEMENT_3D('',#1164,#934,#935);
#765=AXIS2_PLACEMENT_3D('',#1165,#936,#937);
#766=AXIS2_PLACEMENT_3D('',#1167,#939,#940);
#767=AXIS2_PLACEMENT_3D('',#1168,#941,#942);
#768=AXIS2_PLACEMENT_3D('',#1169,#943,#944);
#769=AXIS2_PLACEMENT_3D('',#1170,#945,#946);
#770=AXIS2_PLACEMENT_3D('',#1171,#947,#948);
#771=AXIS2_PLACEMENT_3D('',#1172,#949,#950);
#772=AXIS2_PLACEMENT_3D('',#1174,#952,#953);
#773=AXIS2_PLACEMENT_3D('',#1175,#954,#955);
#774=AXIS2_PLACEMENT_3D('',#1176,#956,#957);
#775=AXIS2_PLACEMENT_3D('',#1177,#958,#959);
#776=AXIS2_PLACEMENT_3D('',#1178,#960,#961);
#777=AXIS2_PLACEMENT_3D('',#1179,#962,#963);
#778=AXIS2_PLACEMENT_3D('',#1180,#964,#965);
#779=AXIS2_PLACEMENT_3D('',#1181,#966,#967);
#780=AXIS2_PLACEMENT_3D('',#1182,#968,#969);
#781=AXIS2_PLACEMENT_3D('',#1183,#970,#971);
#782=AXIS2_PLACEMENT_3D('',#1184,#972,#973);
#783=AXIS2_PLACEMENT_3D('',#1185,#974,#975);
#784=AXIS2_PLACEMENT_3D('',#1186,#976,#977);
#785=AXIS2_PLACEMENT_3D('',#1187,#978,#979);
#786=AXIS2_PLACEMENT_3D('',#1188,#980,#981);
#787=DIRECTION('',(0.,0.,1.));
#788=DIRECTION('',(1.,0.,0.));
#789=DIRECTION('',(-1.,0.,0.));
#790=DIRECTION('',(0.,0.,1.));
#791=DIRECTION('',(0.,1.,1.18546023415271E-16));
#792=DIRECTION('',(0.,0.,-1.));
#793=DIRECTION('',(0.,1.,1.22250586646999E-16));
#794=DIRECTION('',(0.,0.,-1.));
#795=DIRECTION('',(0.,-1.,0.));
#796=DIRECTION('',(0.,0.,1.));
#797=DIRECTION('',(0.,-1.,1.52168725962878E-16));
#798=DIRECTION('',(0.,0.,1.));
#799=DIRECTION('',(0.,-1.,1.52168725962878E-16));
#800=DIRECTION('',(0.,-1.0842021724855E-16,-1.));
#801=DIRECTION('',(0.,1.,1.22250586646999E-16));
#802=DIRECTION('',(-1.,0.,0.));
#803=DIRECTION('',(0.,0.,1.));
#804=DIRECTION('',(0.,0.,1.));
#805=DIRECTION('',(1.,0.,0.));
#806=DIRECTION('',(0.,-1.,0.));
#807=DIRECTION('',(1.,0.,0.));
#808=DIRECTION('',(0.,-1.,0.));
#809=DIRECTION('',(1.,0.,0.));
#810=DIRECTION('',(0.,-1.03257349760524E-16,1.));
#811=DIRECTION('',(0.,-1.,-1.03257349760524E-16));
#812=DIRECTION('',(0.,-1.,-1.03257349760524E-16));
#813=DIRECTION('',(1.,0.,0.));
#814=DIRECTION('',(0.,-1.,-1.03257349760524E-16));
#815=DIRECTION('',(1.,0.,0.));
#816=DIRECTION('',(0.,1.22250586646999E-16,-1.));
#817=DIRECTION('',(0.,1.,1.22250586646999E-16));
#818=DIRECTION('',(0.,1.,1.22250586646999E-16));
#819=DIRECTION('',(-1.,0.,0.));
#820=DIRECTION('',(0.,1.,1.22250586646999E-16));
#821=DIRECTION('',(1.,0.,0.));
#822=DIRECTION('',(0.,1.,1.22250586646999E-16));
#823=DIRECTION('',(1.,0.,0.));
#824=DIRECTION('',(0.,1.,1.22250586646999E-16));
#825=DIRECTION('',(-1.,0.,0.));
#826=DIRECTION('',(-1.,0.,0.));
#827=DIRECTION('',(0.,0.,1.));
#828=DIRECTION('',(0.,0.,-1.));
#829=DIRECTION('',(0.,1.,1.18546023415271E-16));
#830=DIRECTION('',(-1.,0.,0.));
#831=DIRECTION('',(0.,0.,1.));
#832=DIRECTION('',(0.,-1.,-4.01556360179816E-17));
#833=DIRECTION('',(0.,4.01556360179816E-17,-1.));
#834=DIRECTION('',(0.,4.01556360179816E-17,-1.));
#835=DIRECTION('',(1.,0.,0.));
#836=DIRECTION('',(0.,4.01556360179816E-17,-1.));
#837=DIRECTION('',(1.,0.,0.));
#838=DIRECTION('',(0.,-1.,0.));
#839=DIRECTION('',(0.,0.,-1.));
#840=DIRECTION('',(0.,0.,-1.));
#841=DIRECTION('',(1.,0.,0.));
#842=DIRECTION('',(0.,0.,-1.));
#843=DIRECTION('',(1.,0.,0.));
#844=DIRECTION('',(-0.707106781186547,0.,0.707106781186548));
#845=DIRECTION('',(0.,1.,0.));
#846=DIRECTION('',(0.707106781186548,0.,0.707106781186547));
#847=DIRECTION('',(-0.707106781186548,0.,-0.707106781186547));
#848=DIRECTION('',(0.,-1.,0.));
#849=DIRECTION('',(0.707106781186548,7.66646708341687E-17,0.707106781186547));
#850=DIRECTION('',(-1.52168725962878E-16,1.,-1.52168725962878E-16));
#851=DIRECTION('',(0.,1.52168725962878E-16,1.));
#852=DIRECTION('',(0.,-1.,1.52168725962878E-16));
#853=DIRECTION('',(0.,-1.,1.52168725962878E-16));
#854=DIRECTION('',(1.,0.,0.));
#855=DIRECTION('',(0.,-1.,0.));
#856=DIRECTION('',(-1.,0.,0.));
#857=DIRECTION('',(-1.,0.,0.));
#858=DIRECTION('',(0.,-1.,0.));
#859=DIRECTION('',(1.,0.,0.));
#860=DIRECTION('',(0.,1.52168725962878E-16,1.));
#861=DIRECTION('',(0.,-1.,1.52168725962878E-16));
#862=DIRECTION('',(0.,-1.,6.4408049850624E-17));
#863=DIRECTION('',(1.,0.,0.));
#864=DIRECTION('',(0.,-1.,1.52168725962878E-16));
#865=DIRECTION('',(1.,0.,0.));
#866=DIRECTION('',(0.,-1.,6.4408049850624E-17));
#867=DIRECTION('',(-1.,0.,0.));
#868=DIRECTION('',(1.,0.,0.));
#869=DIRECTION('',(-1.,0.,0.));
#870=DIRECTION('',(0.,-1.,0.));
#871=DIRECTION('',(0.,0.,-1.));
#872=DIRECTION('',(0.,0.,-1.));
#873=DIRECTION('',(1.,0.,0.));
#874=DIRECTION('',(0.,0.,-1.));
#875=DIRECTION('',(1.,0.,0.));
#876=DIRECTION('',(0.,0.,-1.));
#877=DIRECTION('',(-1.,0.,0.));
#878=DIRECTION('',(0.,1.18546023415271E-16,-1.));
#879=DIRECTION('',(0.,1.,1.18546023415271E-16));
#880=DIRECTION('',(0.,1.,1.18546023415271E-16));
#881=DIRECTION('',(-1.,0.,0.));
#882=DIRECTION('',(1.,0.,0.));
#883=DIRECTION('',(0.,1.,1.18546023415271E-16));
#884=DIRECTION('',(1.,0.,0.));
#885=DIRECTION('',(1.,0.,0.));
#886=DIRECTION('',(0.,0.,-1.));
#887=DIRECTION('',(-1.,0.,0.));
#888=DIRECTION('',(0.,0.,-1.));
#889=DIRECTION('',(0.,-1.,0.));
#890=DIRECTION('',(0.,0.,-1.));
#891=DIRECTION('',(0.,0.,-1.));
#892=DIRECTION('',(1.,0.,0.));
#893=DIRECTION('',(0.,0.,-1.));
#894=DIRECTION('',(0.,0.,-1.));
#895=DIRECTION('',(1.,0.,0.));
#896=DIRECTION('',(1.,0.,0.));
#897=DIRECTION('',(0.,0.,-1.));
#898=DIRECTION('',(-1.,0.,0.));
#899=DIRECTION('',(0.,0.,-1.));
#900=DIRECTION('',(1.,0.,0.));
#901=DIRECTION('',(0.,1.,0.));
#902=DIRECTION('',(1.,0.,0.));
#903=DIRECTION('',(0.,0.,-1.));
#904=DIRECTION('',(1.,0.,0.));
#905=DIRECTION('',(0.,0.,-1.));
#906=DIRECTION('',(1.,0.,0.));
#907=DIRECTION('',(0.,0.,-1.));
#908=DIRECTION('',(1.,0.,0.));
#909=DIRECTION('',(0.,0.,-1.));
#910=DIRECTION('',(1.,0.,0.));
#911=DIRECTION('',(0.,0.,-1.));
#912=DIRECTION('',(1.,0.,0.));
#913=DIRECTION('',(0.,0.,-1.));
#914=DIRECTION('',(1.,0.,0.));
#915=DIRECTION('',(0.,0.,-1.));
#916=DIRECTION('',(1.,0.,0.));
#917=DIRECTION('',(0.,0.,-1.));
#918=DIRECTION('',(0.,-1.,1.0842021724855E-16));
#919=DIRECTION('',(0.,-1.0842021724855E-16,-1.));
#920=DIRECTION('',(0.,-1.0842021724855E-16,-1.));
#921=DIRECTION('',(1.,0.,0.));
#922=DIRECTION('',(0.,-1.0842021724855E-16,-1.));
#923=DIRECTION('',(0.,-1.,0.));
#924=DIRECTION('',(0.,0.,-1.));
#925=DIRECTION('',(0.,0.,-1.));
#926=DIRECTION('',(1.,0.,0.));
#927=DIRECTION('',(0.,0.,-1.));
#928=DIRECTION('',(0.,0.,1.));
#929=DIRECTION('',(1.,0.,0.));
#930=DIRECTION('',(0.,-1.,0.));
#931=DIRECTION('',(0.,-1.,0.));
#932=DIRECTION('',(-1.,0.,0.));
#933=DIRECTION('',(0.,-1.,0.));
#934=DIRECTION('',(-1.,0.,0.));
#935=DIRECTION('',(0.,-1.,0.));
#936=DIRECTION('',(0.,-1.,0.));
#937=DIRECTION('',(0.,0.,-1.));
#938=DIRECTION('',(0.,0.,1.));
#939=DIRECTION('',(-1.,0.,0.));
#940=DIRECTION('',(0.,-1.,0.));
#941=DIRECTION('',(-1.,0.,0.));
#942=DIRECTION('',(0.,0.,1.));
#943=DIRECTION('',(-1.,0.,0.));
#944=DIRECTION('',(0.,0.,1.));
#945=DIRECTION('',(-1.,0.,0.));
#946=DIRECTION('',(0.,-1.,0.));
#947=DIRECTION('',(-1.,0.,0.));
#948=DIRECTION('',(0.,0.,1.));
#949=DIRECTION('',(-1.,0.,0.));
#950=DIRECTION('',(0.,0.,1.));
#951=DIRECTION('',(0.,0.,1.));
#952=DIRECTION('',(0.,-1.,0.));
#953=DIRECTION('',(0.,0.,-1.));
#954=DIRECTION('',(-1.,0.,0.));
#955=DIRECTION('',(0.,-1.,0.));
#956=DIRECTION('',(-1.,0.,0.));
#957=DIRECTION('',(0.,0.,1.));
#958=DIRECTION('',(-1.,0.,0.));
#959=DIRECTION('',(0.,0.,1.));
#960=DIRECTION('',(-1.,0.,0.));
#961=DIRECTION('',(0.,-1.,0.));
#962=DIRECTION('',(-1.,0.,0.));
#963=DIRECTION('',(0.,0.,1.));
#964=DIRECTION('',(-1.,0.,0.));
#965=DIRECTION('',(0.,0.,1.));
#966=DIRECTION('',(-1.,0.,0.));
#967=DIRECTION('',(0.,0.,1.));
#968=DIRECTION('',(1.,0.,0.));
#969=DIRECTION('',(0.,0.,-1.));
#970=DIRECTION('',(-1.,0.,0.));
#971=DIRECTION('',(0.,0.,1.));
#972=DIRECTION('',(1.,0.,0.));
#973=DIRECTION('',(0.,0.,-1.));
#974=DIRECTION('',(1.,0.,0.));
#975=DIRECTION('',(0.,0.,-1.));
#976=DIRECTION('',(-1.,0.,0.));
#977=DIRECTION('',(0.,0.,1.));
#978=DIRECTION('',(-1.,0.,0.));
#979=DIRECTION('',(0.,0.,1.));
#980=DIRECTION('',(1.,0.,0.));
#981=DIRECTION('',(0.,0.,-1.));
#982=CARTESIAN_POINT('',(0.,0.,0.));
#983=CARTESIAN_POINT('',(0.06765,0.00717281619999999,0.027));
#984=CARTESIAN_POINT('',(0.06765,0.00190410035000001,0.00595));
#985=CARTESIAN_POINT('',(0.06765,-0.00907089965,0.00595));
#986=CARTESIAN_POINT('',(0.06765,0.00467910035000001,0.00595));
#987=CARTESIAN_POINT('',(0.06765,0.00467910035000001,0.003));
#988=CARTESIAN_POINT('',(0.06765,0.00467910035000001,5.E-5));
#989=CARTESIAN_POINT('',(0.06765,0.00190410035000001,5.E-5));
#990=CARTESIAN_POINT('',(0.06765,0.00367910035000001,5.E-5));
#991=CARTESIAN_POINT('',(0.06765,0.00367910035000001,5.E-5));
#992=CARTESIAN_POINT('',(0.06765,0.00367910035000001,0.00205));
#993=CARTESIAN_POINT('',(0.06765,-0.00132089964999999,0.00205));
#994=CARTESIAN_POINT('',(0.06765,0.00282910035000001,0.00205));
#995=CARTESIAN_POINT('',(0.06765,0.00282910035000001,0.027));
#996=CARTESIAN_POINT('',(0.06765,0.00282910035000001,0.00435));
#997=CARTESIAN_POINT('',(0.06765,-0.00222089965,0.00435));
#998=CARTESIAN_POINT('',(0.06765,-0.00727089965,0.00435));
#999=CARTESIAN_POINT('',(0.06765,-0.00727089965,0.027));
#1000=CARTESIAN_POINT('',(0.06765,-0.00727089965,0.00165));
#1001=CARTESIAN_POINT('',(0.06765,-0.00222089965,0.00165));
#1002=CARTESIAN_POINT('',(0.06765,-0.00132089964999999,0.00165));
#1003=CARTESIAN_POINT('',(0.06765,-0.00132089964999999,5.E-5));
#1004=CARTESIAN_POINT('',(0.06765,-0.00132089964999999,5.E-5));
#1005=CARTESIAN_POINT('',(0.06765,0.00190410035000001,5.E-5));
#1006=CARTESIAN_POINT('',(0.06765,-0.00907089965,4.99999999999984E-5));
#1007=CARTESIAN_POINT('',(0.06765,-0.00907089965,0.003));
#1008=CARTESIAN_POINT('',(0.067648,0.00677910035000001,0.00435));
#1009=CARTESIAN_POINT('',(0.07,0.00677910035000001,0.00435));
#1010=CARTESIAN_POINT('',(0.07,0.00837910035000001,0.00435));
#1011=CARTESIAN_POINT('',(0.07,0.00517910035000001,0.00435));
#1012=CARTESIAN_POINT('',(0.06915,0.00517910035000001,0.00435));
#1013=CARTESIAN_POINT('',(0.06915,0.00517910035000001,0.00435));
#1014=CARTESIAN_POINT('',(0.06915,0.00677910035000001,0.00435));
#1015=CARTESIAN_POINT('',(0.06915,0.00837910035000001,0.00435));
#1016=CARTESIAN_POINT('',(0.067648,0.00837910035000001,0.00435));
#1017=CARTESIAN_POINT('',(0.067648,0.00677910035000001,0.00165));
#1018=CARTESIAN_POINT('',(0.07,0.00677910035000001,0.00165));
#1019=CARTESIAN_POINT('',(0.07,0.00837910035000001,0.00165));
#1020=CARTESIAN_POINT('',(0.07,0.00517910035000001,0.00165));
#1021=CARTESIAN_POINT('',(0.06915,0.00837910035000001,0.00165));
#1022=CARTESIAN_POINT('',(0.06915,0.00837910035000001,0.00165));
#1023=CARTESIAN_POINT('',(0.06915,0.00677910035000001,0.00165));
#1024=CARTESIAN_POINT('',(0.06915,0.00517910035000001,0.00165));
#1025=CARTESIAN_POINT('',(0.067648,0.00517910035000001,0.00165));
#1026=CARTESIAN_POINT('',(0.067648,0.00190410035000001,5.E-5));
#1027=CARTESIAN_POINT('',(0.06915,0.00190410035000001,5.E-5));
#1028=CARTESIAN_POINT('',(0.06915,0.00467910035000001,5.E-5));
#1029=CARTESIAN_POINT('',(0.06915,0.00887910035000001,5.00000000000006E-5));
#1030=CARTESIAN_POINT('',(0.06915,0.00887910035000001,5.00000000000006E-5));
#1031=CARTESIAN_POINT('',(0.06765,0.00887910035000001,5.00000000000006E-5));
#1032=CARTESIAN_POINT('',(0.06765,0.00190410035000001,5.E-5));
#1033=CARTESIAN_POINT('',(0.06765,0.01287910035,5.00000000000011E-5));
#1034=CARTESIAN_POINT('',(0.067648,0.01287910035,5.00000000000011E-5));
#1035=CARTESIAN_POINT('',(0.07,0.01287910035,5.00000000000011E-5));
#1036=CARTESIAN_POINT('',(0.07,0.00190410035000001,5.E-5));
#1037=CARTESIAN_POINT('',(0.07,-0.00907089965,4.99999999999984E-5));
#1038=CARTESIAN_POINT('',(0.067648,-0.00907089965,4.99999999999984E-5));
#1039=CARTESIAN_POINT('',(0.06765,0.00190410035000001,5.E-5));
#1040=CARTESIAN_POINT('',(0.06915,0.00467910035000001,5.E-5));
#1041=CARTESIAN_POINT('',(0.06765,0.00717281619999999,0.027));
#1042=CARTESIAN_POINT('',(0.06765,0.00887910035000001,0.003));
#1043=CARTESIAN_POINT('',(0.06765,0.00887910035000001,0.00595));
#1044=CARTESIAN_POINT('',(0.06765,0.00190410035000001,0.00595));
#1045=CARTESIAN_POINT('',(0.06765,0.01287910035,0.00595));
#1046=CARTESIAN_POINT('',(0.06765,0.01287910035,0.003));
#1047=CARTESIAN_POINT('',(0.067648,0.000629100350000004,0.003));
#1048=CARTESIAN_POINT('',(0.06915,0.000629100350000004,0.003));
#1049=CARTESIAN_POINT('',(0.06915,0.000629100350000004,0.00385));
#1050=CARTESIAN_POINT('',(0.06915,0.000629100350000004,0.00215));
#1051=CARTESIAN_POINT('',(0.07,0.000629100350000004,0.00215));
#1052=CARTESIAN_POINT('',(0.07,0.000629100350000004,0.00215));
#1053=CARTESIAN_POINT('',(0.07,0.000629100350000004,0.003));
#1054=CARTESIAN_POINT('',(0.07,0.000629100350000004,0.00385));
#1055=CARTESIAN_POINT('',(0.067648,0.000629100350000004,0.00385));
#1056=CARTESIAN_POINT('',(0.067648,-0.00507089965,0.003));
#1057=CARTESIAN_POINT('',(0.07,-0.00507089965,0.003));
#1058=CARTESIAN_POINT('',(0.07,-0.00507089965,0.00385));
#1059=CARTESIAN_POINT('',(0.07,-0.00507089965,0.00215));
#1060=CARTESIAN_POINT('',(0.067648,-0.00507089965,0.00215));
#1061=CARTESIAN_POINT('',(0.06915,-0.00507089965,0.00215));
#1062=CARTESIAN_POINT('',(0.06915,-0.00507089965,0.003));
#1063=CARTESIAN_POINT('',(0.06915,-0.00507089965,0.00385));
#1064=CARTESIAN_POINT('',(0.07,-0.00507089965,0.00385));
#1065=CARTESIAN_POINT('',(0.06765,0.00717281619999999,0.00205));
#1066=CARTESIAN_POINT('',(0.06765,0.00282910035000001,0.00205));
#1067=CARTESIAN_POINT('',(0.06725,0.00282910035000001,0.00165));
#1068=CARTESIAN_POINT('',(0.06615,0.00367910035000001,0.00055));
#1069=CARTESIAN_POINT('',(0.06665,0.00367910035000001,0.00105));
#1070=CARTESIAN_POINT('',(0.06665,0.00117910035000001,0.00105));
#1071=CARTESIAN_POINT('',(0.06665,-0.00132089964999999,0.00105));
#1072=CARTESIAN_POINT('',(0.06765,-0.00132089964999999,0.00205));
#1073=CARTESIAN_POINT('',(0.06725,-0.00132089964999999,0.00165));
#1074=CARTESIAN_POINT('',(0.06725,0.00717281619999999,0.00165));
#1075=CARTESIAN_POINT('',(0.067648,-0.00222089965,0.00435));
#1076=CARTESIAN_POINT('',(0.07,-0.00222089965,0.00435));
#1077=CARTESIAN_POINT('',(0.07,0.000129100350000004,0.00435));
#1078=CARTESIAN_POINT('',(0.07,-0.00457089965,0.00435));
#1079=CARTESIAN_POINT('',(0.06915,-0.00457089965,0.00435));
#1080=CARTESIAN_POINT('',(0.06915,-0.00457089965,0.00435));
#1081=CARTESIAN_POINT('',(0.06915,-0.00222089965,0.00435));
#1082=CARTESIAN_POINT('',(0.06915,-0.00727089965,0.00435));
#1083=CARTESIAN_POINT('',(0.06915,-0.00727089965,0.00435));
#1084=CARTESIAN_POINT('',(0.06915,0.00282910035000001,0.00435));
#1085=CARTESIAN_POINT('',(0.06915,0.00282910035000001,0.00435));
#1086=CARTESIAN_POINT('',(0.06915,-0.00222089965,0.00435));
#1087=CARTESIAN_POINT('',(0.06915,0.000129100350000004,0.00435));
#1088=CARTESIAN_POINT('',(0.067648,0.000129100350000004,0.00435));
#1089=CARTESIAN_POINT('',(0.067648,-0.00222089965,0.00165));
#1090=CARTESIAN_POINT('',(0.06915,-0.00222089965,0.00165));
#1091=CARTESIAN_POINT('',(0.06915,-0.00457089965,0.00165));
#1092=CARTESIAN_POINT('',(0.06915,-0.00727089965,0.00165));
#1093=CARTESIAN_POINT('',(0.067648,-0.00457089965,0.00165));
#1094=CARTESIAN_POINT('',(0.07,-0.00457089965,0.00165));
#1095=CARTESIAN_POINT('',(0.07,-0.00222089965,0.00165));
#1096=CARTESIAN_POINT('',(0.07,0.000129100350000003,0.00165));
#1097=CARTESIAN_POINT('',(0.06915,0.000129100350000004,0.00165));
#1098=CARTESIAN_POINT('',(0.06915,0.000129100350000003,0.00165));
#1099=CARTESIAN_POINT('',(0.06915,-0.00222089965,0.00165));
#1100=CARTESIAN_POINT('',(0.06915,0.00282910035000001,0.00165));
#1101=CARTESIAN_POINT('',(0.06915,0.00282910035000001,0.00165));
#1102=CARTESIAN_POINT('',(0.067648,-0.00132089964999999,0.00165));
#1103=CARTESIAN_POINT('',(0.06915,-0.00727089965,0.00165));
#1104=CARTESIAN_POINT('',(0.067648,0.00887910035000001,0.003));
#1105=CARTESIAN_POINT('',(0.06915,0.00887910035000001,0.003));
#1106=CARTESIAN_POINT('',(0.06915,0.00887910035000001,0.00215));
#1107=CARTESIAN_POINT('',(0.07,0.00887910035000001,0.00215));
#1108=CARTESIAN_POINT('',(0.07,0.00887910035000001,0.00215));
#1109=CARTESIAN_POINT('',(0.07,0.00887910035000001,0.003));
#1110=CARTESIAN_POINT('',(0.07,0.00887910035000001,0.00385));
#1111=CARTESIAN_POINT('',(0.067648,0.00887910035000001,0.00385));
#1112=CARTESIAN_POINT('',(0.06915,0.00887910035000001,0.00385));
#1113=CARTESIAN_POINT('',(0.06915,0.00887910035000001,0.003));
#1114=CARTESIAN_POINT('',(0.06915,0.00887910035000001,0.00595));
#1115=CARTESIAN_POINT('',(0.06915,0.00887910035000001,0.00595));
#1116=CARTESIAN_POINT('',(0.067648,0.00190410035000001,0.00595));
#1117=CARTESIAN_POINT('',(0.06915,0.00190410035000001,0.00595));
#1118=CARTESIAN_POINT('',(0.06915,0.00467910035000001,0.00595));
#1119=CARTESIAN_POINT('',(0.06915,0.00467910035000001,0.00595));
#1120=CARTESIAN_POINT('',(0.067648,-0.00907089965,0.00595));
#1121=CARTESIAN_POINT('',(0.07,-0.00907089965,0.00595));
#1122=CARTESIAN_POINT('',(0.07,0.00190410035000001,0.00595));
#1123=CARTESIAN_POINT('',(0.07,0.01287910035,0.00595));
#1124=CARTESIAN_POINT('',(0.067648,0.01287910035,0.00595));
#1125=CARTESIAN_POINT('',(0.067648,-0.00907089965,0.003));
#1126=CARTESIAN_POINT('',(0.07,-0.00907089965,0.003));
#1127=CARTESIAN_POINT('',(0.067648,0.00467910035000001,0.003));
#1128=CARTESIAN_POINT('',(0.07,0.00467910035000001,0.003));
#1129=CARTESIAN_POINT('',(0.07,0.00467910035000001,0.00385));
#1130=CARTESIAN_POINT('',(0.07,0.00467910035000001,0.00215));
#1131=CARTESIAN_POINT('',(0.067648,0.00467910035000001,0.00215));
#1132=CARTESIAN_POINT('',(0.06915,0.00467910035000001,0.00215));
#1133=CARTESIAN_POINT('',(0.06915,0.00467910035000001,0.003));
#1134=CARTESIAN_POINT('',(0.06915,0.00467910035000001,0.003));
#1135=CARTESIAN_POINT('',(0.06915,0.00467910035000001,0.00385));
#1136=CARTESIAN_POINT('',(0.07,0.00467910035000001,0.00385));
#1137=CARTESIAN_POINT('',(0.067648,0.01287910035,0.003));
#1138=CARTESIAN_POINT('',(0.07,0.01287910035,0.003));
#1139=CARTESIAN_POINT('',(0.07,0.00717281619999999,-0.00117547571882061));
#1140=CARTESIAN_POINT('',(0.07,0.00837910035000001,0.00385));
#1141=CARTESIAN_POINT('',(0.07,0.00837910035000001,0.00215));
#1142=CARTESIAN_POINT('',(0.07,0.00517910035000001,0.00215));
#1143=CARTESIAN_POINT('',(0.07,0.00517910035000001,0.00385));
#1144=CARTESIAN_POINT('',(0.07,0.000129100350000004,0.00385));
#1145=CARTESIAN_POINT('',(0.07,0.000129100350000004,0.00215));
#1146=CARTESIAN_POINT('',(0.07,-0.00457089965,0.00215));
#1147=CARTESIAN_POINT('',(0.07,-0.00457089965,0.00385));
#1148=CARTESIAN_POINT('',(0.06665,-0.00132089964999999,5.E-5));
#1149=CARTESIAN_POINT('',(0.06665,-0.00132089964999999,5.E-5));
#1150=CARTESIAN_POINT('',(0.06665,-0.00132089964999999,-0.00095));
#1151=CARTESIAN_POINT('',(0.06665,-0.00132089964999999,-0.00095));
#1152=CARTESIAN_POINT('',(0.06765,-0.00132089964999999,-0.00095));
#1153=CARTESIAN_POINT('',(0.06765,-0.00132089964999999,5.E-5));
#1154=CARTESIAN_POINT('',(0.06665,0.00367910035000001,5.E-5));
#1155=CARTESIAN_POINT('',(0.06765,0.00367910035000001,5.E-5));
#1156=CARTESIAN_POINT('',(0.06765,0.00367910035000001,-0.00095));
#1157=CARTESIAN_POINT('',(0.06665,0.00367910035000001,-0.00095));
#1158=CARTESIAN_POINT('',(0.06665,0.00367910035000001,-0.00095));
#1159=CARTESIAN_POINT('',(0.06665,0.00367910035000001,5.E-5));
#1160=CARTESIAN_POINT('',(0.06665,0.00117910035000001,-0.00095));
#1161=CARTESIAN_POINT('',(0.06765,0.00117910035000001,-0.00095));
#1162=CARTESIAN_POINT('',(0.06665,0.00117910035000001,-0.00095));
#1163=CARTESIAN_POINT('',(0.06665,0.00190410035000001,0.0025));
#1164=CARTESIAN_POINT('',(0.06765,0.00190410035000001,0.0025));
#1165=CARTESIAN_POINT('',(0.06915,0.00282910035000001,0.003));
#1166=CARTESIAN_POINT('',(0.06915,0.00282910035000001,0.003));
#1167=CARTESIAN_POINT('',(0.06915,0.00190410035000001,0.003));
#1168=CARTESIAN_POINT('',(0.06915,0.000129100350000004,0.00215));
#1169=CARTESIAN_POINT('',(0.06915,0.000129100350000004,0.00385));
#1170=CARTESIAN_POINT('',(0.06915,0.00190410035000001,0.003));
#1171=CARTESIAN_POINT('',(0.06915,-0.00457089965,0.00385));
#1172=CARTESIAN_POINT('',(0.06915,-0.00457089965,0.00215));
#1173=CARTESIAN_POINT('',(0.06915,-0.00727089965,0.003));
#1174=CARTESIAN_POINT('',(0.06915,-0.00727089965,0.003));
#1175=CARTESIAN_POINT('',(0.06915,0.00190410035000001,0.003));
#1176=CARTESIAN_POINT('',(0.06915,0.00517910035000001,0.00215));
#1177=CARTESIAN_POINT('',(0.06915,0.00837910035000001,0.00215));
#1178=CARTESIAN_POINT('',(0.06915,0.00190410035000001,0.003));
#1179=CARTESIAN_POINT('',(0.06915,0.00837910035000001,0.00385));
#1180=CARTESIAN_POINT('',(0.06915,0.00517910035000001,0.00385));
#1181=CARTESIAN_POINT('',(0.067648,0.00837910035000001,0.00215));
#1182=CARTESIAN_POINT('',(0.067648,0.00517910035000001,0.00215));
#1183=CARTESIAN_POINT('',(0.067648,0.00517910035000001,0.00385));
#1184=CARTESIAN_POINT('',(0.067648,0.00837910035000001,0.00385));
#1185=CARTESIAN_POINT('',(0.067648,-0.00457089965,0.00215));
#1186=CARTESIAN_POINT('',(0.067648,-0.00457089965,0.00385));
#1187=CARTESIAN_POINT('',(0.067648,0.000129100350000004,0.00215));
#1188=CARTESIAN_POINT('',(0.067648,0.000129100350000004,0.00385));
#1189=MECHANICAL_DESIGN_GEOMETRIC_PRESENTATION_REPRESENTATION('',(#720),
#1190);
#1190=(
GEOMETRIC_REPRESENTATION_CONTEXT(3)
GLOBAL_UNCERTAINTY_ASSIGNED_CONTEXT((#1191))
GLOBAL_UNIT_ASSIGNED_CONTEXT((#1194,#1193,#1192))
REPRESENTATION_CONTEXT('Button Housing','TOP_LEVEL_ASSEMBLY_PART')
);
#1191=UNCERTAINTY_MEASURE_WITH_UNIT(LENGTH_MEASURE(1.E-8),#1194,
'DISTANCE_ACCURACY_VALUE','Maximum Tolerance applied to model');
#1192=(
NAMED_UNIT(*)
SI_UNIT($,.STERADIAN.)
SOLID_ANGLE_UNIT()
);
#1193=(
NAMED_UNIT(*)
PLANE_ANGLE_UNIT()
SI_UNIT($,.RADIAN.)
);
#1194=(
LENGTH_UNIT()
NAMED_UNIT(*)
SI_UNIT($,.METRE.)
);
#1195=PRODUCT_DEFINITION_SHAPE('','',#1196);
#1196=PRODUCT_DEFINITION('','',#1198,#1197);
#1197=PRODUCT_DEFINITION_CONTEXT('',#1204,'design');
#1198=PRODUCT_DEFINITION_FORMATION_WITH_SPECIFIED_SOURCE('','',#1200,
 .NOT_KNOWN.);
#1199=PRODUCT_RELATED_PRODUCT_CATEGORY('','',(#1200));
#1200=PRODUCT('Button Housing','Button Housing','Button Housing',(#1202));
#1201=PRODUCT_CATEGORY('','');
#1202=PRODUCT_CONTEXT('',#1204,'mechanical');
#1203=APPLICATION_PROTOCOL_DEFINITION('international standard',
'ap242_managed_model_based_3d_engineering',2020,#1204);
#1204=APPLICATION_CONTEXT('managed model based 3d engineering');
ENDSEC;
END-ISO-10303-21;
