ISO-10303-21;
HEADER;
/* Generated by software containing ST-Developer
 * from STEP Tools, Inc. (www.steptools.com) 
 */
/* OPTION: using custom renumber hook */

FILE_DESCRIPTION(
/* description */ ('STEP AP242 Edition 2',
'CAx-IF Rec.Pracs.---Representation and Presentation of Product Manufa
cturing Information (PMI)---4.0---2014-10-13',
'CAx-IF Rec.Pracs.---3D Tessellated Geometry---0.4---2014-09-14','2;1',
'CAx-IF Rec.Pracs.---User Defined Attributes---1.5---2016-08-15'),
/* implementation_level */ '2;1');

FILE_NAME(
/* name */ 'Case2 - Case Spacer',
/* time_stamp */ '2026-04-29T19:25:04Z',
/* author */ (''),
/* organization */ (''),
/* preprocessor_version */ 'ST-DEVELOPER v20',
/* originating_system */ 'ONSHAPE BY PTC INC, 1.214',
/* authorisation */ '  ');

FILE_SCHEMA (('AP242_MANAGED_MODEL_BASED_3D_ENGINEERING_MIM_LF { 1 0 10303 442 3 1 4 }'));
ENDSEC;

DATA;
#10=SHAPE_REPRESENTATION_RELATIONSHIP('','',#995,#11);
#11=ADVANCED_BREP_SHAPE_REPRESENTATION('',(#993),#1681);
#12=PLANE('',#1000);
#13=PLANE('',#1004);
#14=PLANE('',#1008);
#15=PLANE('',#1012);
#16=PLANE('',#1016);
#17=PLANE('',#1023);
#18=PLANE('',#1027);
#19=PLANE('',#1031);
#20=PLANE('',#1035);
#21=PLANE('',#1039);
#22=PLANE('',#1043);
#23=PLANE('',#1044);
#24=PLANE('',#1045);
#25=PLANE('',#1058);
#26=PLANE('',#1072);
#27=PLANE('',#1074);
#28=PLANE('',#1076);
#29=PLANE('',#1078);
#30=PLANE('',#1080);
#31=PLANE('',#1082);
#32=PLANE('',#1084);
#33=PLANE('',#1086);
#34=PLANE('',#1088);
#35=PLANE('',#1090);
#36=PLANE('',#1092);
#37=PLANE('',#1094);
#38=LINE('',#1394,#134);
#39=LINE('',#1398,#135);
#40=LINE('',#1400,#136);
#41=LINE('',#1402,#137);
#42=LINE('',#1404,#138);
#43=LINE('',#1410,#139);
#44=LINE('',#1412,#140);
#45=LINE('',#1414,#141);
#46=LINE('',#1416,#142);
#47=LINE('',#1422,#143);
#48=LINE('',#1424,#144);
#49=LINE('',#1426,#145);
#50=LINE('',#1428,#146);
#51=LINE('',#1434,#147);
#52=LINE('',#1436,#148);
#53=LINE('',#1438,#149);
#54=LINE('',#1440,#150);
#55=LINE('',#1446,#151);
#56=LINE('',#1448,#152);
#57=LINE('',#1450,#153);
#58=LINE('',#1452,#154);
#59=LINE('',#1458,#155);
#60=LINE('',#1463,#156);
#61=LINE('',#1467,#157);
#62=LINE('',#1469,#158);
#63=LINE('',#1471,#159);
#64=LINE('',#1473,#160);
#65=LINE('',#1479,#161);
#66=LINE('',#1481,#162);
#67=LINE('',#1483,#163);
#68=LINE('',#1485,#164);
#69=LINE('',#1491,#165);
#70=LINE('',#1493,#166);
#71=LINE('',#1495,#167);
#72=LINE('',#1497,#168);
#73=LINE('',#1503,#169);
#74=LINE('',#1505,#170);
#75=LINE('',#1507,#171);
#76=LINE('',#1509,#172);
#77=LINE('',#1515,#173);
#78=LINE('',#1517,#174);
#79=LINE('',#1519,#175);
#80=LINE('',#1521,#176);
#81=LINE('',#1527,#177);
#82=LINE('',#1529,#178);
#83=LINE('',#1530,#179);
#84=LINE('',#1532,#180);
#85=LINE('',#1533,#181);
#86=LINE('',#1538,#182);
#87=LINE('',#1542,#183);
#88=LINE('',#1546,#184);
#89=LINE('',#1550,#185);
#90=LINE('',#1554,#186);
#91=LINE('',#1558,#187);
#92=LINE('',#1562,#188);
#93=LINE('',#1566,#189);
#94=LINE('',#1570,#190);
#95=LINE('',#1574,#191);
#96=LINE('',#1578,#192);
#97=LINE('',#1582,#193);
#98=LINE('',#1584,#194);
#99=LINE('',#1589,#195);
#100=LINE('',#1593,#196);
#101=LINE('',#1597,#197);
#102=LINE('',#1601,#198);
#103=LINE('',#1605,#199);
#104=LINE('',#1609,#200);
#105=LINE('',#1613,#201);
#106=LINE('',#1617,#202);
#107=LINE('',#1621,#203);
#108=LINE('',#1625,#204);
#109=LINE('',#1629,#205);
#110=LINE('',#1633,#206);
#111=LINE('',#1634,#207);
#112=LINE('',#1636,#208);
#113=LINE('',#1638,#209);
#114=LINE('',#1640,#210);
#115=LINE('',#1642,#211);
#116=LINE('',#1644,#212);
#117=LINE('',#1646,#213);
#118=LINE('',#1648,#214);
#119=LINE('',#1650,#215);
#120=LINE('',#1652,#216);
#121=LINE('',#1654,#217);
#122=LINE('',#1656,#218);
#123=LINE('',#1658,#219);
#124=LINE('',#1660,#220);
#125=LINE('',#1662,#221);
#126=LINE('',#1664,#222);
#127=LINE('',#1666,#223);
#128=LINE('',#1668,#224);
#129=LINE('',#1670,#225);
#130=LINE('',#1672,#226);
#131=LINE('',#1674,#227);
#132=LINE('',#1676,#228);
#133=LINE('',#1678,#229);
#134=VECTOR('',#1101,1.);
#135=VECTOR('',#1104,1.);
#136=VECTOR('',#1107,1.);
#137=VECTOR('',#1108,1.);
#138=VECTOR('',#1109,1.);
#139=VECTOR('',#1116,1.);
#140=VECTOR('',#1119,1.);
#141=VECTOR('',#1120,1.);
#142=VECTOR('',#1121,1.);
#143=VECTOR('',#1128,1.);
#144=VECTOR('',#1131,1.);
#145=VECTOR('',#1132,1.);
#146=VECTOR('',#1133,1.);
#147=VECTOR('',#1140,1.);
#148=VECTOR('',#1143,1.);
#149=VECTOR('',#1144,1.);
#150=VECTOR('',#1145,1.);
#151=VECTOR('',#1152,1.);
#152=VECTOR('',#1155,1.);
#153=VECTOR('',#1156,1.);
#154=VECTOR('',#1157,1.);
#155=VECTOR('',#1164,1.);
#156=VECTOR('',#1169,1.);
#157=VECTOR('',#1172,1.);
#158=VECTOR('',#1175,1.);
#159=VECTOR('',#1176,1.);
#160=VECTOR('',#1177,1.);
#161=VECTOR('',#1184,1.);
#162=VECTOR('',#1187,1.);
#163=VECTOR('',#1188,1.);
#164=VECTOR('',#1189,1.);
#165=VECTOR('',#1196,1.);
#166=VECTOR('',#1199,1.);
#167=VECTOR('',#1200,1.);
#168=VECTOR('',#1201,1.);
#169=VECTOR('',#1208,1.);
#170=VECTOR('',#1211,1.);
#171=VECTOR('',#1212,1.);
#172=VECTOR('',#1213,1.);
#173=VECTOR('',#1220,1.);
#174=VECTOR('',#1223,1.);
#175=VECTOR('',#1224,1.);
#176=VECTOR('',#1225,1.);
#177=VECTOR('',#1232,1.);
#178=VECTOR('',#1235,1.);
#179=VECTOR('',#1236,1.);
#180=VECTOR('',#1239,1.);
#181=VECTOR('',#1240,1.);
#182=VECTOR('',#1245,1.);
#183=VECTOR('',#1248,1.);
#184=VECTOR('',#1251,1.);
#185=VECTOR('',#1254,1.);
#186=VECTOR('',#1257,1.);
#187=VECTOR('',#1260,1.);
#188=VECTOR('',#1263,1.);
#189=VECTOR('',#1266,1.);
#190=VECTOR('',#1269,1.);
#191=VECTOR('',#1272,1.);
#192=VECTOR('',#1275,1.);
#193=VECTOR('',#1278,1.);
#194=VECTOR('',#1281,1.);
#195=VECTOR('',#1284,1.);
#196=VECTOR('',#1287,1.);
#197=VECTOR('',#1290,1.);
#198=VECTOR('',#1293,1.);
#199=VECTOR('',#1296,1.);
#200=VECTOR('',#1299,1.);
#201=VECTOR('',#1302,1.);
#202=VECTOR('',#1305,1.);
#203=VECTOR('',#1308,1.);
#204=VECTOR('',#1311,1.);
#205=VECTOR('',#1314,1.);
#206=VECTOR('',#1319,1.);
#207=VECTOR('',#1320,1.);
#208=VECTOR('',#1323,1.);
#209=VECTOR('',#1326,1.);
#210=VECTOR('',#1329,1.);
#211=VECTOR('',#1332,1.);
#212=VECTOR('',#1335,1.);
#213=VECTOR('',#1338,1.);
#214=VECTOR('',#1341,1.);
#215=VECTOR('',#1344,1.);
#216=VECTOR('',#1347,1.);
#217=VECTOR('',#1350,1.);
#218=VECTOR('',#1353,1.);
#219=VECTOR('',#1356,1.);
#220=VECTOR('',#1359,1.);
#221=VECTOR('',#1362,1.);
#222=VECTOR('',#1365,1.);
#223=VECTOR('',#1368,1.);
#224=VECTOR('',#1371,1.);
#225=VECTOR('',#1374,1.);
#226=VECTOR('',#1377,1.);
#227=VECTOR('',#1380,1.);
#228=VECTOR('',#1383,1.);
#229=VECTOR('',#1386,1.);
#230=ORIENTED_EDGE('',*,*,#518,.F.);
#231=ORIENTED_EDGE('',*,*,#519,.F.);
#232=ORIENTED_EDGE('',*,*,#520,.T.);
#233=ORIENTED_EDGE('',*,*,#521,.T.);
#234=ORIENTED_EDGE('',*,*,#522,.F.);
#235=ORIENTED_EDGE('',*,*,#521,.F.);
#236=ORIENTED_EDGE('',*,*,#523,.T.);
#237=ORIENTED_EDGE('',*,*,#524,.T.);
#238=ORIENTED_EDGE('',*,*,#525,.F.);
#239=ORIENTED_EDGE('',*,*,#524,.F.);
#240=ORIENTED_EDGE('',*,*,#526,.T.);
#241=ORIENTED_EDGE('',*,*,#527,.T.);
#242=ORIENTED_EDGE('',*,*,#528,.F.);
#243=ORIENTED_EDGE('',*,*,#527,.F.);
#244=ORIENTED_EDGE('',*,*,#529,.T.);
#245=ORIENTED_EDGE('',*,*,#530,.T.);
#246=ORIENTED_EDGE('',*,*,#531,.F.);
#247=ORIENTED_EDGE('',*,*,#530,.F.);
#248=ORIENTED_EDGE('',*,*,#532,.T.);
#249=ORIENTED_EDGE('',*,*,#533,.T.);
#250=ORIENTED_EDGE('',*,*,#534,.F.);
#251=ORIENTED_EDGE('',*,*,#533,.F.);
#252=ORIENTED_EDGE('',*,*,#535,.T.);
#253=ORIENTED_EDGE('',*,*,#536,.T.);
#254=ORIENTED_EDGE('',*,*,#537,.F.);
#255=ORIENTED_EDGE('',*,*,#536,.F.);
#256=ORIENTED_EDGE('',*,*,#538,.T.);
#257=ORIENTED_EDGE('',*,*,#539,.T.);
#258=ORIENTED_EDGE('',*,*,#540,.F.);
#259=ORIENTED_EDGE('',*,*,#539,.F.);
#260=ORIENTED_EDGE('',*,*,#541,.T.);
#261=ORIENTED_EDGE('',*,*,#542,.T.);
#262=ORIENTED_EDGE('',*,*,#543,.F.);
#263=ORIENTED_EDGE('',*,*,#542,.F.);
#264=ORIENTED_EDGE('',*,*,#544,.T.);
#265=ORIENTED_EDGE('',*,*,#545,.T.);
#266=ORIENTED_EDGE('',*,*,#546,.F.);
#267=ORIENTED_EDGE('',*,*,#545,.F.);
#268=ORIENTED_EDGE('',*,*,#547,.T.);
#269=ORIENTED_EDGE('',*,*,#548,.T.);
#270=ORIENTED_EDGE('',*,*,#549,.F.);
#271=ORIENTED_EDGE('',*,*,#548,.F.);
#272=ORIENTED_EDGE('',*,*,#550,.T.);
#273=ORIENTED_EDGE('',*,*,#551,.T.);
#274=ORIENTED_EDGE('',*,*,#552,.F.);
#275=ORIENTED_EDGE('',*,*,#553,.F.);
#276=ORIENTED_EDGE('',*,*,#554,.T.);
#277=ORIENTED_EDGE('',*,*,#555,.T.);
#278=ORIENTED_EDGE('',*,*,#556,.F.);
#279=ORIENTED_EDGE('',*,*,#555,.F.);
#280=ORIENTED_EDGE('',*,*,#557,.T.);
#281=ORIENTED_EDGE('',*,*,#558,.T.);
#282=ORIENTED_EDGE('',*,*,#559,.F.);
#283=ORIENTED_EDGE('',*,*,#558,.F.);
#284=ORIENTED_EDGE('',*,*,#560,.T.);
#285=ORIENTED_EDGE('',*,*,#561,.T.);
#286=ORIENTED_EDGE('',*,*,#562,.F.);
#287=ORIENTED_EDGE('',*,*,#561,.F.);
#288=ORIENTED_EDGE('',*,*,#563,.T.);
#289=ORIENTED_EDGE('',*,*,#564,.T.);
#290=ORIENTED_EDGE('',*,*,#565,.F.);
#291=ORIENTED_EDGE('',*,*,#564,.F.);
#292=ORIENTED_EDGE('',*,*,#566,.T.);
#293=ORIENTED_EDGE('',*,*,#567,.T.);
#294=ORIENTED_EDGE('',*,*,#568,.F.);
#295=ORIENTED_EDGE('',*,*,#567,.F.);
#296=ORIENTED_EDGE('',*,*,#569,.T.);
#297=ORIENTED_EDGE('',*,*,#570,.T.);
#298=ORIENTED_EDGE('',*,*,#571,.F.);
#299=ORIENTED_EDGE('',*,*,#570,.F.);
#300=ORIENTED_EDGE('',*,*,#572,.T.);
#301=ORIENTED_EDGE('',*,*,#573,.T.);
#302=ORIENTED_EDGE('',*,*,#574,.F.);
#303=ORIENTED_EDGE('',*,*,#573,.F.);
#304=ORIENTED_EDGE('',*,*,#575,.T.);
#305=ORIENTED_EDGE('',*,*,#576,.T.);
#306=ORIENTED_EDGE('',*,*,#577,.F.);
#307=ORIENTED_EDGE('',*,*,#576,.F.);
#308=ORIENTED_EDGE('',*,*,#578,.T.);
#309=ORIENTED_EDGE('',*,*,#579,.T.);
#310=ORIENTED_EDGE('',*,*,#580,.F.);
#311=ORIENTED_EDGE('',*,*,#579,.F.);
#312=ORIENTED_EDGE('',*,*,#581,.T.);
#313=ORIENTED_EDGE('',*,*,#582,.T.);
#314=ORIENTED_EDGE('',*,*,#583,.F.);
#315=ORIENTED_EDGE('',*,*,#582,.F.);
#316=ORIENTED_EDGE('',*,*,#584,.T.);
#317=ORIENTED_EDGE('',*,*,#585,.T.);
#318=ORIENTED_EDGE('',*,*,#553,.T.);
#319=ORIENTED_EDGE('',*,*,#586,.T.);
#320=ORIENTED_EDGE('',*,*,#551,.F.);
#321=ORIENTED_EDGE('',*,*,#587,.F.);
#322=ORIENTED_EDGE('',*,*,#588,.F.);
#323=ORIENTED_EDGE('',*,*,#585,.F.);
#324=ORIENTED_EDGE('',*,*,#589,.T.);
#325=ORIENTED_EDGE('',*,*,#519,.T.);
#326=ORIENTED_EDGE('',*,*,#590,.T.);
#327=ORIENTED_EDGE('',*,*,#591,.T.);
#328=ORIENTED_EDGE('',*,*,#592,.T.);
#329=ORIENTED_EDGE('',*,*,#593,.T.);
#330=ORIENTED_EDGE('',*,*,#594,.T.);
#331=ORIENTED_EDGE('',*,*,#595,.T.);
#332=ORIENTED_EDGE('',*,*,#596,.T.);
#333=ORIENTED_EDGE('',*,*,#597,.T.);
#334=ORIENTED_EDGE('',*,*,#598,.T.);
#335=ORIENTED_EDGE('',*,*,#599,.T.);
#336=ORIENTED_EDGE('',*,*,#600,.T.);
#337=ORIENTED_EDGE('',*,*,#601,.T.);
#338=ORIENTED_EDGE('',*,*,#602,.T.);
#339=ORIENTED_EDGE('',*,*,#603,.T.);
#340=ORIENTED_EDGE('',*,*,#604,.T.);
#341=ORIENTED_EDGE('',*,*,#605,.T.);
#342=ORIENTED_EDGE('',*,*,#606,.T.);
#343=ORIENTED_EDGE('',*,*,#607,.T.);
#344=ORIENTED_EDGE('',*,*,#608,.T.);
#345=ORIENTED_EDGE('',*,*,#609,.T.);
#346=ORIENTED_EDGE('',*,*,#610,.T.);
#347=ORIENTED_EDGE('',*,*,#611,.T.);
#348=ORIENTED_EDGE('',*,*,#612,.T.);
#349=ORIENTED_EDGE('',*,*,#613,.T.);
#350=ORIENTED_EDGE('',*,*,#581,.F.);
#351=ORIENTED_EDGE('',*,*,#578,.F.);
#352=ORIENTED_EDGE('',*,*,#575,.F.);
#353=ORIENTED_EDGE('',*,*,#572,.F.);
#354=ORIENTED_EDGE('',*,*,#569,.F.);
#355=ORIENTED_EDGE('',*,*,#566,.F.);
#356=ORIENTED_EDGE('',*,*,#563,.F.);
#357=ORIENTED_EDGE('',*,*,#560,.F.);
#358=ORIENTED_EDGE('',*,*,#557,.F.);
#359=ORIENTED_EDGE('',*,*,#554,.F.);
#360=ORIENTED_EDGE('',*,*,#587,.T.);
#361=ORIENTED_EDGE('',*,*,#550,.F.);
#362=ORIENTED_EDGE('',*,*,#547,.F.);
#363=ORIENTED_EDGE('',*,*,#544,.F.);
#364=ORIENTED_EDGE('',*,*,#541,.F.);
#365=ORIENTED_EDGE('',*,*,#538,.F.);
#366=ORIENTED_EDGE('',*,*,#535,.F.);
#367=ORIENTED_EDGE('',*,*,#532,.F.);
#368=ORIENTED_EDGE('',*,*,#529,.F.);
#369=ORIENTED_EDGE('',*,*,#526,.F.);
#370=ORIENTED_EDGE('',*,*,#523,.F.);
#371=ORIENTED_EDGE('',*,*,#520,.F.);
#372=ORIENTED_EDGE('',*,*,#589,.F.);
#373=ORIENTED_EDGE('',*,*,#584,.F.);
#374=ORIENTED_EDGE('',*,*,#614,.F.);
#375=ORIENTED_EDGE('',*,*,#615,.F.);
#376=ORIENTED_EDGE('',*,*,#616,.F.);
#377=ORIENTED_EDGE('',*,*,#617,.F.);
#378=ORIENTED_EDGE('',*,*,#618,.F.);
#379=ORIENTED_EDGE('',*,*,#619,.F.);
#380=ORIENTED_EDGE('',*,*,#620,.F.);
#381=ORIENTED_EDGE('',*,*,#621,.F.);
#382=ORIENTED_EDGE('',*,*,#622,.F.);
#383=ORIENTED_EDGE('',*,*,#623,.F.);
#384=ORIENTED_EDGE('',*,*,#624,.F.);
#385=ORIENTED_EDGE('',*,*,#625,.F.);
#386=ORIENTED_EDGE('',*,*,#626,.F.);
#387=ORIENTED_EDGE('',*,*,#627,.F.);
#388=ORIENTED_EDGE('',*,*,#628,.F.);
#389=ORIENTED_EDGE('',*,*,#629,.F.);
#390=ORIENTED_EDGE('',*,*,#630,.F.);
#391=ORIENTED_EDGE('',*,*,#631,.F.);
#392=ORIENTED_EDGE('',*,*,#632,.F.);
#393=ORIENTED_EDGE('',*,*,#633,.F.);
#394=ORIENTED_EDGE('',*,*,#634,.F.);
#395=ORIENTED_EDGE('',*,*,#635,.F.);
#396=ORIENTED_EDGE('',*,*,#636,.F.);
#397=ORIENTED_EDGE('',*,*,#637,.F.);
#398=ORIENTED_EDGE('',*,*,#583,.T.);
#399=ORIENTED_EDGE('',*,*,#588,.T.);
#400=ORIENTED_EDGE('',*,*,#518,.T.);
#401=ORIENTED_EDGE('',*,*,#522,.T.);
#402=ORIENTED_EDGE('',*,*,#525,.T.);
#403=ORIENTED_EDGE('',*,*,#528,.T.);
#404=ORIENTED_EDGE('',*,*,#531,.T.);
#405=ORIENTED_EDGE('',*,*,#534,.T.);
#406=ORIENTED_EDGE('',*,*,#537,.T.);
#407=ORIENTED_EDGE('',*,*,#540,.T.);
#408=ORIENTED_EDGE('',*,*,#543,.T.);
#409=ORIENTED_EDGE('',*,*,#546,.T.);
#410=ORIENTED_EDGE('',*,*,#549,.T.);
#411=ORIENTED_EDGE('',*,*,#586,.F.);
#412=ORIENTED_EDGE('',*,*,#552,.T.);
#413=ORIENTED_EDGE('',*,*,#556,.T.);
#414=ORIENTED_EDGE('',*,*,#559,.T.);
#415=ORIENTED_EDGE('',*,*,#562,.T.);
#416=ORIENTED_EDGE('',*,*,#565,.T.);
#417=ORIENTED_EDGE('',*,*,#568,.T.);
#418=ORIENTED_EDGE('',*,*,#571,.T.);
#419=ORIENTED_EDGE('',*,*,#574,.T.);
#420=ORIENTED_EDGE('',*,*,#577,.T.);
#421=ORIENTED_EDGE('',*,*,#580,.T.);
#422=ORIENTED_EDGE('',*,*,#638,.T.);
#423=ORIENTED_EDGE('',*,*,#637,.T.);
#424=ORIENTED_EDGE('',*,*,#639,.F.);
#425=ORIENTED_EDGE('',*,*,#590,.F.);
#426=ORIENTED_EDGE('',*,*,#639,.T.);
#427=ORIENTED_EDGE('',*,*,#636,.T.);
#428=ORIENTED_EDGE('',*,*,#640,.F.);
#429=ORIENTED_EDGE('',*,*,#591,.F.);
#430=ORIENTED_EDGE('',*,*,#640,.T.);
#431=ORIENTED_EDGE('',*,*,#635,.T.);
#432=ORIENTED_EDGE('',*,*,#641,.F.);
#433=ORIENTED_EDGE('',*,*,#592,.F.);
#434=ORIENTED_EDGE('',*,*,#641,.T.);
#435=ORIENTED_EDGE('',*,*,#634,.T.);
#436=ORIENTED_EDGE('',*,*,#642,.F.);
#437=ORIENTED_EDGE('',*,*,#593,.F.);
#438=ORIENTED_EDGE('',*,*,#642,.T.);
#439=ORIENTED_EDGE('',*,*,#633,.T.);
#440=ORIENTED_EDGE('',*,*,#643,.F.);
#441=ORIENTED_EDGE('',*,*,#594,.F.);
#442=ORIENTED_EDGE('',*,*,#643,.T.);
#443=ORIENTED_EDGE('',*,*,#632,.T.);
#444=ORIENTED_EDGE('',*,*,#644,.F.);
#445=ORIENTED_EDGE('',*,*,#595,.F.);
#446=ORIENTED_EDGE('',*,*,#644,.T.);
#447=ORIENTED_EDGE('',*,*,#631,.T.);
#448=ORIENTED_EDGE('',*,*,#645,.F.);
#449=ORIENTED_EDGE('',*,*,#596,.F.);
#450=ORIENTED_EDGE('',*,*,#645,.T.);
#451=ORIENTED_EDGE('',*,*,#630,.T.);
#452=ORIENTED_EDGE('',*,*,#646,.F.);
#453=ORIENTED_EDGE('',*,*,#597,.F.);
#454=ORIENTED_EDGE('',*,*,#646,.T.);
#455=ORIENTED_EDGE('',*,*,#629,.T.);
#456=ORIENTED_EDGE('',*,*,#647,.F.);
#457=ORIENTED_EDGE('',*,*,#598,.F.);
#458=ORIENTED_EDGE('',*,*,#647,.T.);
#459=ORIENTED_EDGE('',*,*,#628,.T.);
#460=ORIENTED_EDGE('',*,*,#648,.F.);
#461=ORIENTED_EDGE('',*,*,#599,.F.);
#462=ORIENTED_EDGE('',*,*,#648,.T.);
#463=ORIENTED_EDGE('',*,*,#627,.T.);
#464=ORIENTED_EDGE('',*,*,#649,.F.);
#465=ORIENTED_EDGE('',*,*,#600,.F.);
#466=ORIENTED_EDGE('',*,*,#649,.T.);
#467=ORIENTED_EDGE('',*,*,#626,.T.);
#468=ORIENTED_EDGE('',*,*,#650,.F.);
#469=ORIENTED_EDGE('',*,*,#601,.F.);
#470=ORIENTED_EDGE('',*,*,#650,.T.);
#471=ORIENTED_EDGE('',*,*,#625,.T.);
#472=ORIENTED_EDGE('',*,*,#651,.F.);
#473=ORIENTED_EDGE('',*,*,#602,.F.);
#474=ORIENTED_EDGE('',*,*,#651,.T.);
#475=ORIENTED_EDGE('',*,*,#624,.T.);
#476=ORIENTED_EDGE('',*,*,#652,.F.);
#477=ORIENTED_EDGE('',*,*,#603,.F.);
#478=ORIENTED_EDGE('',*,*,#652,.T.);
#479=ORIENTED_EDGE('',*,*,#623,.T.);
#480=ORIENTED_EDGE('',*,*,#653,.F.);
#481=ORIENTED_EDGE('',*,*,#604,.F.);
#482=ORIENTED_EDGE('',*,*,#653,.T.);
#483=ORIENTED_EDGE('',*,*,#622,.T.);
#484=ORIENTED_EDGE('',*,*,#654,.F.);
#485=ORIENTED_EDGE('',*,*,#605,.F.);
#486=ORIENTED_EDGE('',*,*,#654,.T.);
#487=ORIENTED_EDGE('',*,*,#621,.T.);
#488=ORIENTED_EDGE('',*,*,#655,.F.);
#489=ORIENTED_EDGE('',*,*,#606,.F.);
#490=ORIENTED_EDGE('',*,*,#655,.T.);
#491=ORIENTED_EDGE('',*,*,#620,.T.);
#492=ORIENTED_EDGE('',*,*,#656,.F.);
#493=ORIENTED_EDGE('',*,*,#607,.F.);
#494=ORIENTED_EDGE('',*,*,#656,.T.);
#495=ORIENTED_EDGE('',*,*,#619,.T.);
#496=ORIENTED_EDGE('',*,*,#657,.F.);
#497=ORIENTED_EDGE('',*,*,#608,.F.);
#498=ORIENTED_EDGE('',*,*,#657,.T.);
#499=ORIENTED_EDGE('',*,*,#618,.T.);
#500=ORIENTED_EDGE('',*,*,#658,.F.);
#501=ORIENTED_EDGE('',*,*,#609,.F.);
#502=ORIENTED_EDGE('',*,*,#658,.T.);
#503=ORIENTED_EDGE('',*,*,#617,.T.);
#504=ORIENTED_EDGE('',*,*,#659,.F.);
#505=ORIENTED_EDGE('',*,*,#610,.F.);
#506=ORIENTED_EDGE('',*,*,#659,.T.);
#507=ORIENTED_EDGE('',*,*,#616,.T.);
#508=ORIENTED_EDGE('',*,*,#660,.F.);
#509=ORIENTED_EDGE('',*,*,#611,.F.);
#510=ORIENTED_EDGE('',*,*,#660,.T.);
#511=ORIENTED_EDGE('',*,*,#615,.T.);
#512=ORIENTED_EDGE('',*,*,#661,.F.);
#513=ORIENTED_EDGE('',*,*,#612,.F.);
#514=ORIENTED_EDGE('',*,*,#661,.T.);
#515=ORIENTED_EDGE('',*,*,#614,.T.);
#516=ORIENTED_EDGE('',*,*,#638,.F.);
#517=ORIENTED_EDGE('',*,*,#613,.F.);
#518=EDGE_CURVE('',#662,#663,#758,.T.);
#519=EDGE_CURVE('',#664,#662,#38,.T.);
#520=EDGE_CURVE('',#664,#665,#759,.T.);
#521=EDGE_CURVE('',#665,#663,#39,.T.);
#522=EDGE_CURVE('',#663,#666,#40,.T.);
#523=EDGE_CURVE('',#665,#667,#41,.T.);
#524=EDGE_CURVE('',#667,#666,#42,.T.);
#525=EDGE_CURVE('',#666,#668,#760,.T.);
#526=EDGE_CURVE('',#667,#669,#761,.T.);
#527=EDGE_CURVE('',#669,#668,#43,.T.);
#528=EDGE_CURVE('',#668,#670,#44,.T.);
#529=EDGE_CURVE('',#669,#671,#45,.T.);
#530=EDGE_CURVE('',#671,#670,#46,.T.);
#531=EDGE_CURVE('',#670,#672,#762,.F.);
#532=EDGE_CURVE('',#671,#673,#763,.F.);
#533=EDGE_CURVE('',#673,#672,#47,.T.);
#534=EDGE_CURVE('',#672,#674,#48,.T.);
#535=EDGE_CURVE('',#673,#675,#49,.T.);
#536=EDGE_CURVE('',#675,#674,#50,.T.);
#537=EDGE_CURVE('',#674,#676,#764,.T.);
#538=EDGE_CURVE('',#675,#677,#765,.T.);
#539=EDGE_CURVE('',#677,#676,#51,.T.);
#540=EDGE_CURVE('',#676,#678,#52,.T.);
#541=EDGE_CURVE('',#677,#679,#53,.T.);
#542=EDGE_CURVE('',#679,#678,#54,.T.);
#543=EDGE_CURVE('',#678,#680,#766,.F.);
#544=EDGE_CURVE('',#679,#681,#767,.F.);
#545=EDGE_CURVE('',#681,#680,#55,.T.);
#546=EDGE_CURVE('',#680,#682,#56,.T.);
#547=EDGE_CURVE('',#681,#683,#57,.T.);
#548=EDGE_CURVE('',#683,#682,#58,.T.);
#549=EDGE_CURVE('',#682,#684,#768,.T.);
#550=EDGE_CURVE('',#683,#685,#769,.T.);
#551=EDGE_CURVE('',#685,#684,#59,.T.);
#552=EDGE_CURVE('',#686,#687,#770,.T.);
#553=EDGE_CURVE('',#688,#686,#60,.T.);
#554=EDGE_CURVE('',#688,#689,#771,.T.);
#555=EDGE_CURVE('',#689,#687,#61,.T.);
#556=EDGE_CURVE('',#687,#690,#62,.T.);
#557=EDGE_CURVE('',#689,#691,#63,.T.);
#558=EDGE_CURVE('',#691,#690,#64,.T.);
#559=EDGE_CURVE('',#690,#692,#772,.F.);
#560=EDGE_CURVE('',#691,#693,#773,.F.);
#561=EDGE_CURVE('',#693,#692,#65,.T.);
#562=EDGE_CURVE('',#692,#694,#66,.T.);
#563=EDGE_CURVE('',#693,#695,#67,.T.);
#564=EDGE_CURVE('',#695,#694,#68,.T.);
#565=EDGE_CURVE('',#694,#696,#774,.T.);
#566=EDGE_CURVE('',#695,#697,#775,.T.);
#567=EDGE_CURVE('',#697,#696,#69,.T.);
#568=EDGE_CURVE('',#696,#698,#70,.T.);
#569=EDGE_CURVE('',#697,#699,#71,.T.);
#570=EDGE_CURVE('',#699,#698,#72,.T.);
#571=EDGE_CURVE('',#698,#700,#776,.T.);
#572=EDGE_CURVE('',#699,#701,#777,.T.);
#573=EDGE_CURVE('',#701,#700,#73,.T.);
#574=EDGE_CURVE('',#700,#702,#74,.T.);
#575=EDGE_CURVE('',#701,#703,#75,.T.);
#576=EDGE_CURVE('',#703,#702,#76,.T.);
#577=EDGE_CURVE('',#702,#704,#778,.F.);
#578=EDGE_CURVE('',#703,#705,#779,.F.);
#579=EDGE_CURVE('',#705,#704,#77,.T.);
#580=EDGE_CURVE('',#704,#706,#78,.T.);
#581=EDGE_CURVE('',#705,#707,#79,.T.);
#582=EDGE_CURVE('',#707,#706,#80,.T.);
#583=EDGE_CURVE('',#706,#708,#780,.T.);
#584=EDGE_CURVE('',#707,#709,#781,.T.);
#585=EDGE_CURVE('',#709,#708,#81,.T.);
#586=EDGE_CURVE('',#686,#684,#82,.T.);
#587=EDGE_CURVE('',#688,#685,#83,.T.);
#588=EDGE_CURVE('',#708,#662,#84,.T.);
#589=EDGE_CURVE('',#709,#664,#85,.T.);
#590=EDGE_CURVE('',#710,#711,#782,.T.);
#591=EDGE_CURVE('',#711,#712,#86,.T.);
#592=EDGE_CURVE('',#712,#713,#783,.T.);
#593=EDGE_CURVE('',#713,#714,#87,.T.);
#594=EDGE_CURVE('',#714,#715,#784,.T.);
#595=EDGE_CURVE('',#715,#716,#88,.T.);
#596=EDGE_CURVE('',#716,#717,#785,.F.);
#597=EDGE_CURVE('',#717,#718,#89,.T.);
#598=EDGE_CURVE('',#718,#719,#786,.T.);
#599=EDGE_CURVE('',#719,#720,#90,.T.);
#600=EDGE_CURVE('',#720,#721,#787,.F.);
#601=EDGE_CURVE('',#721,#722,#91,.T.);
#602=EDGE_CURVE('',#722,#723,#788,.T.);
#603=EDGE_CURVE('',#723,#724,#92,.T.);
#604=EDGE_CURVE('',#724,#725,#789,.T.);
#605=EDGE_CURVE('',#725,#726,#93,.T.);
#606=EDGE_CURVE('',#726,#727,#790,.F.);
#607=EDGE_CURVE('',#727,#728,#94,.T.);
#608=EDGE_CURVE('',#728,#729,#791,.T.);
#609=EDGE_CURVE('',#729,#730,#95,.T.);
#610=EDGE_CURVE('',#730,#731,#792,.T.);
#611=EDGE_CURVE('',#731,#732,#96,.T.);
#612=EDGE_CURVE('',#732,#733,#793,.F.);
#613=EDGE_CURVE('',#733,#710,#97,.T.);
#614=EDGE_CURVE('',#734,#735,#98,.T.);
#615=EDGE_CURVE('',#736,#734,#794,.F.);
#616=EDGE_CURVE('',#737,#736,#99,.T.);
#617=EDGE_CURVE('',#738,#737,#795,.T.);
#618=EDGE_CURVE('',#739,#738,#100,.T.);
#619=EDGE_CURVE('',#740,#739,#796,.T.);
#620=EDGE_CURVE('',#741,#740,#101,.T.);
#621=EDGE_CURVE('',#742,#741,#797,.F.);
#622=EDGE_CURVE('',#743,#742,#102,.T.);
#623=EDGE_CURVE('',#744,#743,#798,.T.);
#624=EDGE_CURVE('',#745,#744,#103,.T.);
#625=EDGE_CURVE('',#746,#745,#799,.T.);
#626=EDGE_CURVE('',#747,#746,#104,.T.);
#627=EDGE_CURVE('',#748,#747,#800,.F.);
#628=EDGE_CURVE('',#749,#748,#105,.T.);
#629=EDGE_CURVE('',#750,#749,#801,.T.);
#630=EDGE_CURVE('',#751,#750,#106,.T.);
#631=EDGE_CURVE('',#752,#751,#802,.F.);
#632=EDGE_CURVE('',#753,#752,#107,.T.);
#633=EDGE_CURVE('',#754,#753,#803,.T.);
#634=EDGE_CURVE('',#755,#754,#108,.T.);
#635=EDGE_CURVE('',#756,#755,#804,.T.);
#636=EDGE_CURVE('',#757,#756,#109,.T.);
#637=EDGE_CURVE('',#735,#757,#805,.T.);
#638=EDGE_CURVE('',#710,#735,#110,.T.);
#639=EDGE_CURVE('',#711,#757,#111,.T.);
#640=EDGE_CURVE('',#712,#756,#112,.T.);
#641=EDGE_CURVE('',#713,#755,#113,.T.);
#642=EDGE_CURVE('',#714,#754,#114,.T.);
#643=EDGE_CURVE('',#715,#753,#115,.T.);
#644=EDGE_CURVE('',#716,#752,#116,.T.);
#645=EDGE_CURVE('',#717,#751,#117,.T.);
#646=EDGE_CURVE('',#718,#750,#118,.T.);
#647=EDGE_CURVE('',#719,#749,#119,.T.);
#648=EDGE_CURVE('',#720,#748,#120,.T.);
#649=EDGE_CURVE('',#721,#747,#121,.T.);
#650=EDGE_CURVE('',#722,#746,#122,.T.);
#651=EDGE_CURVE('',#723,#745,#123,.T.);
#652=EDGE_CURVE('',#724,#744,#124,.T.);
#653=EDGE_CURVE('',#725,#743,#125,.T.);
#654=EDGE_CURVE('',#726,#742,#126,.T.);
#655=EDGE_CURVE('',#727,#741,#127,.T.);
#656=EDGE_CURVE('',#728,#740,#128,.T.);
#657=EDGE_CURVE('',#729,#739,#129,.T.);
#658=EDGE_CURVE('',#730,#738,#130,.T.);
#659=EDGE_CURVE('',#731,#737,#131,.T.);
#660=EDGE_CURVE('',#732,#736,#132,.T.);
#661=EDGE_CURVE('',#733,#734,#133,.T.);
#662=VERTEX_POINT('',#1392);
#663=VERTEX_POINT('',#1393);
#664=VERTEX_POINT('',#1395);
#665=VERTEX_POINT('',#1397);
#666=VERTEX_POINT('',#1401);
#667=VERTEX_POINT('',#1403);
#668=VERTEX_POINT('',#1407);
#669=VERTEX_POINT('',#1409);
#670=VERTEX_POINT('',#1413);
#671=VERTEX_POINT('',#1415);
#672=VERTEX_POINT('',#1419);
#673=VERTEX_POINT('',#1421);
#674=VERTEX_POINT('',#1425);
#675=VERTEX_POINT('',#1427);
#676=VERTEX_POINT('',#1431);
#677=VERTEX_POINT('',#1433);
#678=VERTEX_POINT('',#1437);
#679=VERTEX_POINT('',#1439);
#680=VERTEX_POINT('',#1443);
#681=VERTEX_POINT('',#1445);
#682=VERTEX_POINT('',#1449);
#683=VERTEX_POINT('',#1451);
#684=VERTEX_POINT('',#1455);
#685=VERTEX_POINT('',#1457);
#686=VERTEX_POINT('',#1461);
#687=VERTEX_POINT('',#1462);
#688=VERTEX_POINT('',#1464);
#689=VERTEX_POINT('',#1466);
#690=VERTEX_POINT('',#1470);
#691=VERTEX_POINT('',#1472);
#692=VERTEX_POINT('',#1476);
#693=VERTEX_POINT('',#1478);
#694=VERTEX_POINT('',#1482);
#695=VERTEX_POINT('',#1484);
#696=VERTEX_POINT('',#1488);
#697=VERTEX_POINT('',#1490);
#698=VERTEX_POINT('',#1494);
#699=VERTEX_POINT('',#1496);
#700=VERTEX_POINT('',#1500);
#701=VERTEX_POINT('',#1502);
#702=VERTEX_POINT('',#1506);
#703=VERTEX_POINT('',#1508);
#704=VERTEX_POINT('',#1512);
#705=VERTEX_POINT('',#1514);
#706=VERTEX_POINT('',#1518);
#707=VERTEX_POINT('',#1520);
#708=VERTEX_POINT('',#1524);
#709=VERTEX_POINT('',#1526);
#710=VERTEX_POINT('',#1536);
#711=VERTEX_POINT('',#1537);
#712=VERTEX_POINT('',#1539);
#713=VERTEX_POINT('',#1541);
#714=VERTEX_POINT('',#1543);
#715=VERTEX_POINT('',#1545);
#716=VERTEX_POINT('',#1547);
#717=VERTEX_POINT('',#1549);
#718=VERTEX_POINT('',#1551);
#719=VERTEX_POINT('',#1553);
#720=VERTEX_POINT('',#1555);
#721=VERTEX_POINT('',#1557);
#722=VERTEX_POINT('',#1559);
#723=VERTEX_POINT('',#1561);
#724=VERTEX_POINT('',#1563);
#725=VERTEX_POINT('',#1565);
#726=VERTEX_POINT('',#1567);
#727=VERTEX_POINT('',#1569);
#728=VERTEX_POINT('',#1571);
#729=VERTEX_POINT('',#1573);
#730=VERTEX_POINT('',#1575);
#731=VERTEX_POINT('',#1577);
#732=VERTEX_POINT('',#1579);
#733=VERTEX_POINT('',#1581);
#734=VERTEX_POINT('',#1585);
#735=VERTEX_POINT('',#1586);
#736=VERTEX_POINT('',#1588);
#737=VERTEX_POINT('',#1590);
#738=VERTEX_POINT('',#1592);
#739=VERTEX_POINT('',#1594);
#740=VERTEX_POINT('',#1596);
#741=VERTEX_POINT('',#1598);
#742=VERTEX_POINT('',#1600);
#743=VERTEX_POINT('',#1602);
#744=VERTEX_POINT('',#1604);
#745=VERTEX_POINT('',#1606);
#746=VERTEX_POINT('',#1608);
#747=VERTEX_POINT('',#1610);
#748=VERTEX_POINT('',#1612);
#749=VERTEX_POINT('',#1614);
#750=VERTEX_POINT('',#1616);
#751=VERTEX_POINT('',#1618);
#752=VERTEX_POINT('',#1620);
#753=VERTEX_POINT('',#1622);
#754=VERTEX_POINT('',#1624);
#755=VERTEX_POINT('',#1626);
#756=VERTEX_POINT('',#1628);
#757=VERTEX_POINT('',#1630);
#758=ELLIPSE('',#998,0.00853246861911867,0.00850000000000022);
#759=ELLIPSE('',#999,0.00853246861911867,0.00850000000000022);
#760=ELLIPSE('',#1002,0.00853246861911847,0.0085);
#761=ELLIPSE('',#1003,0.00853246861911847,0.0085);
#762=ELLIPSE('',#1006,0.00150572975631496,0.00149999999999994);
#763=ELLIPSE('',#1007,0.00150572975631496,0.00149999999999994);
#764=ELLIPSE('',#1010,0.00853246861911848,0.0085);
#765=ELLIPSE('',#1011,0.00853246861911848,0.0085);
#766=ELLIPSE('',#1014,0.001505729756315,0.00149999999999998);
#767=ELLIPSE('',#1015,0.001505729756315,0.00149999999999998);
#768=ELLIPSE('',#1018,0.00853246861911846,0.0085);
#769=ELLIPSE('',#1019,0.00853246861911846,0.0085);
#770=ELLIPSE('',#1021,0.00853246861911843,0.0085);
#771=ELLIPSE('',#1022,0.00853246861911843,0.0085);
#772=ELLIPSE('',#1025,0.001505729756315,0.00149999999999998);
#773=ELLIPSE('',#1026,0.001505729756315,0.00149999999999998);
#774=ELLIPSE('',#1029,0.00853246861911844,0.0085);
#775=ELLIPSE('',#1030,0.00853246861911844,0.0085);
#776=ELLIPSE('',#1033,0.0085324686191184,0.0085);
#777=ELLIPSE('',#1034,0.0085324686191184,0.0085);
#778=ELLIPSE('',#1037,0.00150572975631498,0.00149999999999996);
#779=ELLIPSE('',#1038,0.00150572975631498,0.00149999999999996);
#780=ELLIPSE('',#1041,0.00853246861911849,0.0085);
#781=ELLIPSE('',#1042,0.00853246861911849,0.0085);
#782=ELLIPSE('',#1046,0.00516967216334824,0.00515);
#783=ELLIPSE('',#1047,0.00516967216334845,0.00515000000000021);
#784=ELLIPSE('',#1048,0.00516967216334825,0.00515);
#785=ELLIPSE('',#1049,0.00486852621208496,0.00484999999999972);
#786=ELLIPSE('',#1050,0.00516967216334821,0.00515);
#787=ELLIPSE('',#1051,0.00486852621208524,0.00485);
#788=ELLIPSE('',#1052,0.00516967216334824,0.00515);
#789=ELLIPSE('',#1053,0.00516967216334824,0.00515);
#790=ELLIPSE('',#1054,0.00486852621208528,0.00485);
#791=ELLIPSE('',#1055,0.0051696721633482,0.00515);
#792=ELLIPSE('',#1056,0.0051696721633482,0.00515);
#793=ELLIPSE('',#1057,0.00486852621208526,0.00485);
#794=ELLIPSE('',#1059,0.00486852621208526,0.00485);
#795=ELLIPSE('',#1060,0.0051696721633482,0.00515);
#796=ELLIPSE('',#1061,0.0051696721633482,0.00515);
#797=ELLIPSE('',#1062,0.00486852621208528,0.00485);
#798=ELLIPSE('',#1063,0.00516967216334824,0.00515);
#799=ELLIPSE('',#1064,0.00516967216334824,0.00515);
#800=ELLIPSE('',#1065,0.00486852621208524,0.00485);
#801=ELLIPSE('',#1066,0.00516967216334821,0.00515);
#802=ELLIPSE('',#1067,0.00486852621208496,0.00484999999999972);
#803=ELLIPSE('',#1068,0.00516967216334825,0.00515);
#804=ELLIPSE('',#1069,0.00516967216334845,0.00515000000000021);
#805=ELLIPSE('',#1070,0.00516967216334824,0.00515);
#806=EDGE_LOOP('',(#230,#231,#232,#233));
#807=EDGE_LOOP('',(#234,#235,#236,#237));
#808=EDGE_LOOP('',(#238,#239,#240,#241));
#809=EDGE_LOOP('',(#242,#243,#244,#245));
#810=EDGE_LOOP('',(#246,#247,#248,#249));
#811=EDGE_LOOP('',(#250,#251,#252,#253));
#812=EDGE_LOOP('',(#254,#255,#256,#257));
#813=EDGE_LOOP('',(#258,#259,#260,#261));
#814=EDGE_LOOP('',(#262,#263,#264,#265));
#815=EDGE_LOOP('',(#266,#267,#268,#269));
#816=EDGE_LOOP('',(#270,#271,#272,#273));
#817=EDGE_LOOP('',(#274,#275,#276,#277));
#818=EDGE_LOOP('',(#278,#279,#280,#281));
#819=EDGE_LOOP('',(#282,#283,#284,#285));
#820=EDGE_LOOP('',(#286,#287,#288,#289));
#821=EDGE_LOOP('',(#290,#291,#292,#293));
#822=EDGE_LOOP('',(#294,#295,#296,#297));
#823=EDGE_LOOP('',(#298,#299,#300,#301));
#824=EDGE_LOOP('',(#302,#303,#304,#305));
#825=EDGE_LOOP('',(#306,#307,#308,#309));
#826=EDGE_LOOP('',(#310,#311,#312,#313));
#827=EDGE_LOOP('',(#314,#315,#316,#317));
#828=EDGE_LOOP('',(#318,#319,#320,#321));
#829=EDGE_LOOP('',(#322,#323,#324,#325));
#830=EDGE_LOOP('',(#326,#327,#328,#329,#330,#331,#332,#333,#334,#335,#336,
#337,#338,#339,#340,#341,#342,#343,#344,#345,#346,#347,#348,#349));
#831=EDGE_LOOP('',(#350,#351,#352,#353,#354,#355,#356,#357,#358,#359,#360,
#361,#362,#363,#364,#365,#366,#367,#368,#369,#370,#371,#372,#373));
#832=EDGE_LOOP('',(#374,#375,#376,#377,#378,#379,#380,#381,#382,#383,#384,
#385,#386,#387,#388,#389,#390,#391,#392,#393,#394,#395,#396,#397));
#833=EDGE_LOOP('',(#398,#399,#400,#401,#402,#403,#404,#405,#406,#407,#408,
#409,#410,#411,#412,#413,#414,#415,#416,#417,#418,#419,#420,#421));
#834=EDGE_LOOP('',(#422,#423,#424,#425));
#835=EDGE_LOOP('',(#426,#427,#428,#429));
#836=EDGE_LOOP('',(#430,#431,#432,#433));
#837=EDGE_LOOP('',(#434,#435,#436,#437));
#838=EDGE_LOOP('',(#438,#439,#440,#441));
#839=EDGE_LOOP('',(#442,#443,#444,#445));
#840=EDGE_LOOP('',(#446,#447,#448,#449));
#841=EDGE_LOOP('',(#450,#451,#452,#453));
#842=EDGE_LOOP('',(#454,#455,#456,#457));
#843=EDGE_LOOP('',(#458,#459,#460,#461));
#844=EDGE_LOOP('',(#462,#463,#464,#465));
#845=EDGE_LOOP('',(#466,#467,#468,#469));
#846=EDGE_LOOP('',(#470,#471,#472,#473));
#847=EDGE_LOOP('',(#474,#475,#476,#477));
#848=EDGE_LOOP('',(#478,#479,#480,#481));
#849=EDGE_LOOP('',(#482,#483,#484,#485));
#850=EDGE_LOOP('',(#486,#487,#488,#489));
#851=EDGE_LOOP('',(#490,#491,#492,#493));
#852=EDGE_LOOP('',(#494,#495,#496,#497));
#853=EDGE_LOOP('',(#498,#499,#500,#501));
#854=EDGE_LOOP('',(#502,#503,#504,#505));
#855=EDGE_LOOP('',(#506,#507,#508,#509));
#856=EDGE_LOOP('',(#510,#511,#512,#513));
#857=EDGE_LOOP('',(#514,#515,#516,#517));
#858=FACE_BOUND('',#806,.T.);
#859=FACE_BOUND('',#807,.T.);
#860=FACE_BOUND('',#808,.T.);
#861=FACE_BOUND('',#809,.T.);
#862=FACE_BOUND('',#810,.T.);
#863=FACE_BOUND('',#811,.T.);
#864=FACE_BOUND('',#812,.T.);
#865=FACE_BOUND('',#813,.T.);
#866=FACE_BOUND('',#814,.T.);
#867=FACE_BOUND('',#815,.T.);
#868=FACE_BOUND('',#816,.T.);
#869=FACE_BOUND('',#817,.T.);
#870=FACE_BOUND('',#818,.T.);
#871=FACE_BOUND('',#819,.T.);
#872=FACE_BOUND('',#820,.T.);
#873=FACE_BOUND('',#821,.T.);
#874=FACE_BOUND('',#822,.T.);
#875=FACE_BOUND('',#823,.T.);
#876=FACE_BOUND('',#824,.T.);
#877=FACE_BOUND('',#825,.T.);
#878=FACE_BOUND('',#826,.T.);
#879=FACE_BOUND('',#827,.T.);
#880=FACE_BOUND('',#828,.T.);
#881=FACE_BOUND('',#829,.T.);
#882=FACE_BOUND('',#830,.T.);
#883=FACE_BOUND('',#831,.T.);
#884=FACE_BOUND('',#832,.T.);
#885=FACE_BOUND('',#833,.T.);
#886=FACE_BOUND('',#834,.T.);
#887=FACE_BOUND('',#835,.T.);
#888=FACE_BOUND('',#836,.T.);
#889=FACE_BOUND('',#837,.T.);
#890=FACE_BOUND('',#838,.T.);
#891=FACE_BOUND('',#839,.T.);
#892=FACE_BOUND('',#840,.T.);
#893=FACE_BOUND('',#841,.T.);
#894=FACE_BOUND('',#842,.T.);
#895=FACE_BOUND('',#843,.T.);
#896=FACE_BOUND('',#844,.T.);
#897=FACE_BOUND('',#845,.T.);
#898=FACE_BOUND('',#846,.T.);
#899=FACE_BOUND('',#847,.T.);
#900=FACE_BOUND('',#848,.T.);
#901=FACE_BOUND('',#849,.T.);
#902=FACE_BOUND('',#850,.T.);
#903=FACE_BOUND('',#851,.T.);
#904=FACE_BOUND('',#852,.T.);
#905=FACE_BOUND('',#853,.T.);
#906=FACE_BOUND('',#854,.T.);
#907=FACE_BOUND('',#855,.T.);
#908=FACE_BOUND('',#856,.T.);
#909=FACE_BOUND('',#857,.T.);
#910=CYLINDRICAL_SURFACE('',#997,0.00850000000000022);
#911=CYLINDRICAL_SURFACE('',#1001,0.0085);
#912=CYLINDRICAL_SURFACE('',#1005,0.00149999999999994);
#913=CYLINDRICAL_SURFACE('',#1009,0.0085);
#914=CYLINDRICAL_SURFACE('',#1013,0.00149999999999998);
#915=CYLINDRICAL_SURFACE('',#1017,0.0085);
#916=CYLINDRICAL_SURFACE('',#1020,0.0085);
#917=CYLINDRICAL_SURFACE('',#1024,0.00149999999999998);
#918=CYLINDRICAL_SURFACE('',#1028,0.0085);
#919=CYLINDRICAL_SURFACE('',#1032,0.0085);
#920=CYLINDRICAL_SURFACE('',#1036,0.00149999999999996);
#921=CYLINDRICAL_SURFACE('',#1040,0.0085);
#922=CYLINDRICAL_SURFACE('',#1071,0.00515);
#923=CYLINDRICAL_SURFACE('',#1073,0.00515000000000021);
#924=CYLINDRICAL_SURFACE('',#1075,0.00515);
#925=CYLINDRICAL_SURFACE('',#1077,0.00484999999999972);
#926=CYLINDRICAL_SURFACE('',#1079,0.00515);
#927=CYLINDRICAL_SURFACE('',#1081,0.00485);
#928=CYLINDRICAL_SURFACE('',#1083,0.00515);
#929=CYLINDRICAL_SURFACE('',#1085,0.00515);
#930=CYLINDRICAL_SURFACE('',#1087,0.00485);
#931=CYLINDRICAL_SURFACE('',#1089,0.00515);
#932=CYLINDRICAL_SURFACE('',#1091,0.00515);
#933=CYLINDRICAL_SURFACE('',#1093,0.00485);
#934=ADVANCED_FACE('',(#858),#910,.T.);
#935=ADVANCED_FACE('',(#859),#12,.F.);
#936=ADVANCED_FACE('',(#860),#911,.T.);
#937=ADVANCED_FACE('',(#861),#13,.F.);
#938=ADVANCED_FACE('',(#862),#912,.F.);
#939=ADVANCED_FACE('',(#863),#14,.F.);
#940=ADVANCED_FACE('',(#864),#913,.T.);
#941=ADVANCED_FACE('',(#865),#15,.F.);
#942=ADVANCED_FACE('',(#866),#914,.F.);
#943=ADVANCED_FACE('',(#867),#16,.F.);
#944=ADVANCED_FACE('',(#868),#915,.T.);
#945=ADVANCED_FACE('',(#869),#916,.T.);
#946=ADVANCED_FACE('',(#870),#17,.F.);
#947=ADVANCED_FACE('',(#871),#917,.F.);
#948=ADVANCED_FACE('',(#872),#18,.F.);
#949=ADVANCED_FACE('',(#873),#918,.T.);
#950=ADVANCED_FACE('',(#874),#19,.F.);
#951=ADVANCED_FACE('',(#875),#919,.T.);
#952=ADVANCED_FACE('',(#876),#20,.F.);
#953=ADVANCED_FACE('',(#877),#920,.F.);
#954=ADVANCED_FACE('',(#878),#21,.F.);
#955=ADVANCED_FACE('',(#879),#921,.T.);
#956=ADVANCED_FACE('',(#880),#22,.F.);
#957=ADVANCED_FACE('',(#881),#23,.F.);
#958=ADVANCED_FACE('',(#882,#883),#24,.F.);
#959=ADVANCED_FACE('',(#884,#885),#25,.T.);
#960=ADVANCED_FACE('',(#886),#922,.F.);
#961=ADVANCED_FACE('',(#887),#26,.T.);
#962=ADVANCED_FACE('',(#888),#923,.F.);
#963=ADVANCED_FACE('',(#889),#27,.T.);
#964=ADVANCED_FACE('',(#890),#924,.F.);
#965=ADVANCED_FACE('',(#891),#28,.T.);
#966=ADVANCED_FACE('',(#892),#925,.T.);
#967=ADVANCED_FACE('',(#893),#29,.T.);
#968=ADVANCED_FACE('',(#894),#926,.F.);
#969=ADVANCED_FACE('',(#895),#30,.T.);
#970=ADVANCED_FACE('',(#896),#927,.T.);
#971=ADVANCED_FACE('',(#897),#31,.T.);
#972=ADVANCED_FACE('',(#898),#928,.F.);
#973=ADVANCED_FACE('',(#899),#32,.T.);
#974=ADVANCED_FACE('',(#900),#929,.F.);
#975=ADVANCED_FACE('',(#901),#33,.T.);
#976=ADVANCED_FACE('',(#902),#930,.T.);
#977=ADVANCED_FACE('',(#903),#34,.T.);
#978=ADVANCED_FACE('',(#904),#931,.F.);
#979=ADVANCED_FACE('',(#905),#35,.T.);
#980=ADVANCED_FACE('',(#906),#932,.F.);
#981=ADVANCED_FACE('',(#907),#36,.T.);
#982=ADVANCED_FACE('',(#908),#933,.T.);
#983=ADVANCED_FACE('',(#909),#37,.T.);
#984=CLOSED_SHELL('',(#934,#935,#936,#937,#938,#939,#940,#941,#942,#943,
#944,#945,#946,#947,#948,#949,#950,#951,#952,#953,#954,#955,#956,#957,#958,
#959,#960,#961,#962,#963,#964,#965,#966,#967,#968,#969,#970,#971,#972,#973,
#974,#975,#976,#977,#978,#979,#980,#981,#982,#983));
#985=STYLED_ITEM('',(#986),#993);
#986=PRESENTATION_STYLE_ASSIGNMENT((#987));
#987=SURFACE_STYLE_USAGE(.BOTH.,#988);
#988=SURFACE_SIDE_STYLE('',(#989));
#989=SURFACE_STYLE_FILL_AREA(#990);
#990=FILL_AREA_STYLE('',(#991));
#991=FILL_AREA_STYLE_COLOUR('',#992);
#992=COLOUR_RGB('',0.498039215686275,0.498039215686275,0.498039215686275);
#993=MANIFOLD_SOLID_BREP('Case Spacer',#984);
#994=SHAPE_DEFINITION_REPRESENTATION(#1686,#995);
#995=SHAPE_REPRESENTATION('Case Spacer',(#996),#1681);
#996=AXIS2_PLACEMENT_3D('',#1389,#1095,#1096);
#997=AXIS2_PLACEMENT_3D('',#1390,#1097,#1098);
#998=AXIS2_PLACEMENT_3D('',#1391,#1099,#1100);
#999=AXIS2_PLACEMENT_3D('',#1396,#1102,#1103);
#1000=AXIS2_PLACEMENT_3D('',#1399,#1105,#1106);
#1001=AXIS2_PLACEMENT_3D('',#1405,#1110,#1111);
#1002=AXIS2_PLACEMENT_3D('',#1406,#1112,#1113);
#1003=AXIS2_PLACEMENT_3D('',#1408,#1114,#1115);
#1004=AXIS2_PLACEMENT_3D('',#1411,#1117,#1118);
#1005=AXIS2_PLACEMENT_3D('',#1417,#1122,#1123);
#1006=AXIS2_PLACEMENT_3D('',#1418,#1124,#1125);
#1007=AXIS2_PLACEMENT_3D('',#1420,#1126,#1127);
#1008=AXIS2_PLACEMENT_3D('',#1423,#1129,#1130);
#1009=AXIS2_PLACEMENT_3D('',#1429,#1134,#1135);
#1010=AXIS2_PLACEMENT_3D('',#1430,#1136,#1137);
#1011=AXIS2_PLACEMENT_3D('',#1432,#1138,#1139);
#1012=AXIS2_PLACEMENT_3D('',#1435,#1141,#1142);
#1013=AXIS2_PLACEMENT_3D('',#1441,#1146,#1147);
#1014=AXIS2_PLACEMENT_3D('',#1442,#1148,#1149);
#1015=AXIS2_PLACEMENT_3D('',#1444,#1150,#1151);
#1016=AXIS2_PLACEMENT_3D('',#1447,#1153,#1154);
#1017=AXIS2_PLACEMENT_3D('',#1453,#1158,#1159);
#1018=AXIS2_PLACEMENT_3D('',#1454,#1160,#1161);
#1019=AXIS2_PLACEMENT_3D('',#1456,#1162,#1163);
#1020=AXIS2_PLACEMENT_3D('',#1459,#1165,#1166);
#1021=AXIS2_PLACEMENT_3D('',#1460,#1167,#1168);
#1022=AXIS2_PLACEMENT_3D('',#1465,#1170,#1171);
#1023=AXIS2_PLACEMENT_3D('',#1468,#1173,#1174);
#1024=AXIS2_PLACEMENT_3D('',#1474,#1178,#1179);
#1025=AXIS2_PLACEMENT_3D('',#1475,#1180,#1181);
#1026=AXIS2_PLACEMENT_3D('',#1477,#1182,#1183);
#1027=AXIS2_PLACEMENT_3D('',#1480,#1185,#1186);
#1028=AXIS2_PLACEMENT_3D('',#1486,#1190,#1191);
#1029=AXIS2_PLACEMENT_3D('',#1487,#1192,#1193);
#1030=AXIS2_PLACEMENT_3D('',#1489,#1194,#1195);
#1031=AXIS2_PLACEMENT_3D('',#1492,#1197,#1198);
#1032=AXIS2_PLACEMENT_3D('',#1498,#1202,#1203);
#1033=AXIS2_PLACEMENT_3D('',#1499,#1204,#1205);
#1034=AXIS2_PLACEMENT_3D('',#1501,#1206,#1207);
#1035=AXIS2_PLACEMENT_3D('',#1504,#1209,#1210);
#1036=AXIS2_PLACEMENT_3D('',#1510,#1214,#1215);
#1037=AXIS2_PLACEMENT_3D('',#1511,#1216,#1217);
#1038=AXIS2_PLACEMENT_3D('',#1513,#1218,#1219);
#1039=AXIS2_PLACEMENT_3D('',#1516,#1221,#1222);
#1040=AXIS2_PLACEMENT_3D('',#1522,#1226,#1227);
#1041=AXIS2_PLACEMENT_3D('',#1523,#1228,#1229);
#1042=AXIS2_PLACEMENT_3D('',#1525,#1230,#1231);
#1043=AXIS2_PLACEMENT_3D('',#1528,#1233,#1234);
#1044=AXIS2_PLACEMENT_3D('',#1531,#1237,#1238);
#1045=AXIS2_PLACEMENT_3D('',#1534,#1241,#1242);
#1046=AXIS2_PLACEMENT_3D('',#1535,#1243,#1244);
#1047=AXIS2_PLACEMENT_3D('',#1540,#1246,#1247);
#1048=AXIS2_PLACEMENT_3D('',#1544,#1249,#1250);
#1049=AXIS2_PLACEMENT_3D('',#1548,#1252,#1253);
#1050=AXIS2_PLACEMENT_3D('',#1552,#1255,#1256);
#1051=AXIS2_PLACEMENT_3D('',#1556,#1258,#1259);
#1052=AXIS2_PLACEMENT_3D('',#1560,#1261,#1262);
#1053=AXIS2_PLACEMENT_3D('',#1564,#1264,#1265);
#1054=AXIS2_PLACEMENT_3D('',#1568,#1267,#1268);
#1055=AXIS2_PLACEMENT_3D('',#1572,#1270,#1271);
#1056=AXIS2_PLACEMENT_3D('',#1576,#1273,#1274);
#1057=AXIS2_PLACEMENT_3D('',#1580,#1276,#1277);
#1058=AXIS2_PLACEMENT_3D('',#1583,#1279,#1280);
#1059=AXIS2_PLACEMENT_3D('',#1587,#1282,#1283);
#1060=AXIS2_PLACEMENT_3D('',#1591,#1285,#1286);
#1061=AXIS2_PLACEMENT_3D('',#1595,#1288,#1289);
#1062=AXIS2_PLACEMENT_3D('',#1599,#1291,#1292);
#1063=AXIS2_PLACEMENT_3D('',#1603,#1294,#1295);
#1064=AXIS2_PLACEMENT_3D('',#1607,#1297,#1298);
#1065=AXIS2_PLACEMENT_3D('',#1611,#1300,#1301);
#1066=AXIS2_PLACEMENT_3D('',#1615,#1303,#1304);
#1067=AXIS2_PLACEMENT_3D('',#1619,#1306,#1307);
#1068=AXIS2_PLACEMENT_3D('',#1623,#1309,#1310);
#1069=AXIS2_PLACEMENT_3D('',#1627,#1312,#1313);
#1070=AXIS2_PLACEMENT_3D('',#1631,#1315,#1316);
#1071=AXIS2_PLACEMENT_3D('',#1632,#1317,#1318);
#1072=AXIS2_PLACEMENT_3D('',#1635,#1321,#1322);
#1073=AXIS2_PLACEMENT_3D('',#1637,#1324,#1325);
#1074=AXIS2_PLACEMENT_3D('',#1639,#1327,#1328);
#1075=AXIS2_PLACEMENT_3D('',#1641,#1330,#1331);
#1076=AXIS2_PLACEMENT_3D('',#1643,#1333,#1334);
#1077=AXIS2_PLACEMENT_3D('',#1645,#1336,#1337);
#1078=AXIS2_PLACEMENT_3D('',#1647,#1339,#1340);
#1079=AXIS2_PLACEMENT_3D('',#1649,#1342,#1343);
#1080=AXIS2_PLACEMENT_3D('',#1651,#1345,#1346);
#1081=AXIS2_PLACEMENT_3D('',#1653,#1348,#1349);
#1082=AXIS2_PLACEMENT_3D('',#1655,#1351,#1352);
#1083=AXIS2_PLACEMENT_3D('',#1657,#1354,#1355);
#1084=AXIS2_PLACEMENT_3D('',#1659,#1357,#1358);
#1085=AXIS2_PLACEMENT_3D('',#1661,#1360,#1361);
#1086=AXIS2_PLACEMENT_3D('',#1663,#1363,#1364);
#1087=AXIS2_PLACEMENT_3D('',#1665,#1366,#1367);
#1088=AXIS2_PLACEMENT_3D('',#1667,#1369,#1370);
#1089=AXIS2_PLACEMENT_3D('',#1669,#1372,#1373);
#1090=AXIS2_PLACEMENT_3D('',#1671,#1375,#1376);
#1091=AXIS2_PLACEMENT_3D('',#1673,#1378,#1379);
#1092=AXIS2_PLACEMENT_3D('',#1675,#1381,#1382);
#1093=AXIS2_PLACEMENT_3D('',#1677,#1384,#1385);
#1094=AXIS2_PLACEMENT_3D('',#1679,#1387,#1388);
#1095=DIRECTION('',(0.,0.,1.));
#1096=DIRECTION('',(1.,0.,0.));
#1097=DIRECTION('',(0.,0.,-1.));
#1098=DIRECTION('',(-1.,0.,0.));
#1099=DIRECTION('',(0.0871557427476584,0.,-0.996194698091746));
#1100=DIRECTION('',(-0.996194698091746,0.,-0.0871557427476584));
#1101=DIRECTION('',(0.,0.,-1.));
#1102=DIRECTION('',(-0.0871557427476583,0.,-0.996194698091746));
#1103=DIRECTION('',(0.996194698091746,0.,-0.0871557427476583));
#1104=DIRECTION('',(0.,0.,-1.));
#1105=DIRECTION('',(-0.866025403276253,0.500000000880203,0.));
#1106=DIRECTION('',(-0.500000000880203,-0.866025403276253,0.));
#1107=DIRECTION('',(-0.49952229472001,-0.865197991937652,-0.0437025379664565));
#1108=DIRECTION('',(-0.49952229472001,-0.865197991937652,0.0437025379664564));
#1109=DIRECTION('',(0.,0.,-1.));
#1110=DIRECTION('',(0.,0.,-1.));
#1111=DIRECTION('',(-1.,0.,0.));
#1112=DIRECTION('',(0.0871557427476584,0.,-0.996194698091746));
#1113=DIRECTION('',(-0.996194698091746,0.,-0.0871557427476584));
#1114=DIRECTION('',(-0.0871557427476583,0.,-0.996194698091746));
#1115=DIRECTION('',(0.996194698091746,0.,-0.0871557427476583));
#1116=DIRECTION('',(0.,0.,-1.));
#1117=DIRECTION('',(0.500000001128066,0.86602540313315,0.));
#1118=DIRECTION('',(-0.86602540313315,0.500000001128066,0.));
#1119=DIRECTION('',(-0.863550258968702,0.49857097597414,-0.0755508580446375));
#1120=DIRECTION('',(-0.863550258968702,0.49857097597414,0.0755508580446374));
#1121=DIRECTION('',(0.,0.,-1.));
#1122=DIRECTION('',(0.,0.,-1.));
#1123=DIRECTION('',(-1.,0.,0.));
#1124=DIRECTION('',(0.0871557427476584,0.,-0.996194698091746));
#1125=DIRECTION('',(-0.996194698091746,0.,-0.0871557427476584));
#1126=DIRECTION('',(-0.0871557427476583,0.,-0.996194698091746));
#1127=DIRECTION('',(0.996194698091746,0.,-0.0871557427476583));
#1128=DIRECTION('',(0.,0.,-1.));
#1129=DIRECTION('',(0.183969363772402,0.982931977907514,0.));
#1130=DIRECTION('',(-0.982931977907514,0.183969363772402,0.));
#1131=DIRECTION('',(-0.979317518814158,0.183292867580669,-0.0856791808885748));
#1132=DIRECTION('',(-0.979317518814158,0.183292867580669,0.0856791808885747));
#1133=DIRECTION('',(0.,0.,-1.));
#1134=DIRECTION('',(0.,0.,-1.));
#1135=DIRECTION('',(-1.,0.,0.));
#1136=DIRECTION('',(0.0871557427476584,0.,-0.996194698091746));
#1137=DIRECTION('',(-0.996194698091746,0.,-0.0871557427476584));
#1138=DIRECTION('',(-0.0871557427476583,0.,-0.996194698091746));
#1139=DIRECTION('',(0.996194698091746,0.,-0.0871557427476583));
#1140=DIRECTION('',(0.,0.,-1.));
#1141=DIRECTION('',(0.881479968611872,0.472221415160318,0.));
#1142=DIRECTION('',(-0.472221415160318,0.881479968611872,0.));
#1143=DIRECTION('',(-0.471818925171638,0.880728653971751,-0.0412788071895046));
#1144=DIRECTION('',(-0.471818925171638,0.880728653971751,0.0412788071895046));
#1145=DIRECTION('',(0.,0.,-1.));
#1146=DIRECTION('',(0.,0.,-1.));
#1147=DIRECTION('',(-1.,0.,0.));
#1148=DIRECTION('',(0.0871557427476584,0.,-0.996194698091746));
#1149=DIRECTION('',(-0.996194698091746,0.,-0.0871557427476584));
#1150=DIRECTION('',(-0.0871557427476583,0.,-0.996194698091746));
#1151=DIRECTION('',(0.996194698091746,0.,-0.0871557427476583));
#1152=DIRECTION('',(0.,0.,-1.));
#1153=DIRECTION('',(0.,1.,0.));
#1154=DIRECTION('',(0.,0.,1.));
#1155=DIRECTION('',(-0.996194698091746,0.,-0.0871557427476584));
#1156=DIRECTION('',(-0.996194698091746,0.,0.0871557427476583));
#1157=DIRECTION('',(0.,0.,-1.));
#1158=DIRECTION('',(0.,0.,-1.));
#1159=DIRECTION('',(-1.,0.,0.));
#1160=DIRECTION('',(0.0871557427476584,0.,-0.996194698091746));
#1161=DIRECTION('',(-0.996194698091746,0.,-0.0871557427476584));
#1162=DIRECTION('',(-0.0871557427476583,0.,-0.996194698091746));
#1163=DIRECTION('',(0.996194698091746,0.,-0.0871557427476583));
#1164=DIRECTION('',(0.,0.,-1.));
#1165=DIRECTION('',(0.,0.,-1.));
#1166=DIRECTION('',(-1.,0.,0.));
#1167=DIRECTION('',(0.0871557427476584,0.,-0.996194698091746));
#1168=DIRECTION('',(-0.996194698091746,0.,-0.0871557427476584));
#1169=DIRECTION('',(0.,0.,-1.));
#1170=DIRECTION('',(-0.0871557427476583,0.,-0.996194698091746));
#1171=DIRECTION('',(0.996194698091746,0.,-0.0871557427476583));
#1172=DIRECTION('',(0.,0.,-1.));
#1173=DIRECTION('',(0.,-1.,0.));
#1174=DIRECTION('',(0.,0.,-1.));
#1175=DIRECTION('',(0.996194698091746,0.,0.0871557427476584));
#1176=DIRECTION('',(0.996194698091746,0.,-0.0871557427476583));
#1177=DIRECTION('',(0.,0.,-1.));
#1178=DIRECTION('',(0.,0.,-1.));
#1179=DIRECTION('',(-1.,0.,0.));
#1180=DIRECTION('',(0.0871557427476584,0.,-0.996194698091746));
#1181=DIRECTION('',(-0.996194698091746,0.,-0.0871557427476584));
#1182=DIRECTION('',(-0.0871557427476583,0.,-0.996194698091746));
#1183=DIRECTION('',(0.996194698091746,0.,-0.0871557427476583));
#1184=DIRECTION('',(0.,0.,-1.));
#1185=DIRECTION('',(0.847998309779694,-0.52999893076381,0.));
#1186=DIRECTION('',(0.52999893076381,0.847998309779694,0.));
#1187=DIRECTION('',(0.529430079255057,0.847088147343626,0.0463191300644491));
#1188=DIRECTION('',(0.529430079255057,0.847088147343626,-0.046319130064449));
#1189=DIRECTION('',(0.,0.,-1.));
#1190=DIRECTION('',(0.,0.,-1.));
#1191=DIRECTION('',(-1.,0.,0.));
#1192=DIRECTION('',(0.0871557427476584,0.,-0.996194698091746));
#1193=DIRECTION('',(-0.996194698091746,0.,-0.0871557427476584));
#1194=DIRECTION('',(-0.0871557427476583,0.,-0.996194698091746));
#1195=DIRECTION('',(0.996194698091746,0.,-0.0871557427476583));
#1196=DIRECTION('',(0.,0.,-1.));
#1197=DIRECTION('',(0.,-1.,0.));
#1198=DIRECTION('',(0.,0.,-1.));
#1199=DIRECTION('',(0.996194698091746,0.,0.0871557427476584));
#1200=DIRECTION('',(0.996194698091746,0.,-0.0871557427476583));
#1201=DIRECTION('',(0.,0.,-1.));
#1202=DIRECTION('',(0.,0.,-1.));
#1203=DIRECTION('',(-1.,0.,0.));
#1204=DIRECTION('',(0.0871557427476584,0.,-0.996194698091746));
#1205=DIRECTION('',(-0.996194698091746,0.,-0.0871557427476584));
#1206=DIRECTION('',(-0.0871557427476583,0.,-0.996194698091746));
#1207=DIRECTION('',(0.996194698091746,0.,-0.0871557427476583));
#1208=DIRECTION('',(0.,0.,-1.));
#1209=DIRECTION('',(-0.707106781186554,-0.707106781186542,0.));
#1210=DIRECTION('',(0.707106781186542,-0.707106781186554,0.));
#1211=DIRECTION('',(0.705757556807946,-0.705757556807958,0.0617457854184487));
#1212=DIRECTION('',(0.705757556807946,-0.705757556807958,-0.0617457854184486));
#1213=DIRECTION('',(0.,0.,-1.));
#1214=DIRECTION('',(0.,0.,-1.));
#1215=DIRECTION('',(-1.,0.,0.));
#1216=DIRECTION('',(0.0871557427476584,0.,-0.996194698091746));
#1217=DIRECTION('',(-0.996194698091746,0.,-0.0871557427476584));
#1218=DIRECTION('',(-0.0871557427476583,0.,-0.996194698091746));
#1219=DIRECTION('',(0.996194698091746,0.,-0.0871557427476583));
#1220=DIRECTION('',(0.,0.,-1.));
#1221=DIRECTION('',(0.,-1.,0.));
#1222=DIRECTION('',(0.,0.,-1.));
#1223=DIRECTION('',(0.996194698091746,0.,0.0871557427476584));
#1224=DIRECTION('',(0.996194698091746,0.,-0.0871557427476583));
#1225=DIRECTION('',(0.,0.,-1.));
#1226=DIRECTION('',(0.,0.,-1.));
#1227=DIRECTION('',(-1.,0.,0.));
#1228=DIRECTION('',(0.0871557427476584,0.,-0.996194698091746));
#1229=DIRECTION('',(-0.996194698091746,0.,-0.0871557427476584));
#1230=DIRECTION('',(-0.0871557427476583,0.,-0.996194698091746));
#1231=DIRECTION('',(0.996194698091746,0.,-0.0871557427476583));
#1232=DIRECTION('',(0.,0.,-1.));
#1233=DIRECTION('',(1.,0.,0.));
#1234=DIRECTION('',(0.,0.,-1.));
#1235=DIRECTION('',(0.,-1.,0.));
#1236=DIRECTION('',(0.,-1.,0.));
#1237=DIRECTION('',(-1.,0.,0.));
#1238=DIRECTION('',(0.,0.,1.));
#1239=DIRECTION('',(0.,-1.,0.));
#1240=DIRECTION('',(0.,-1.,0.));
#1241=DIRECTION('',(-0.0871557427476583,0.,-0.996194698091746));
#1242=DIRECTION('',(-0.996194698091746,0.,0.0871557427476583));
#1243=DIRECTION('',(-0.0871557427476583,0.,-0.996194698091746));
#1244=DIRECTION('',(0.996194698091746,0.,-0.0871557427476583));
#1245=DIRECTION('',(0.,-1.,0.));
#1246=DIRECTION('',(-0.0871557427476583,0.,-0.996194698091746));
#1247=DIRECTION('',(0.996194698091746,0.,-0.0871557427476583));
#1248=DIRECTION('',(-0.49952229472001,-0.865197991937652,0.0437025379664564));
#1249=DIRECTION('',(-0.0871557427476583,0.,-0.996194698091746));
#1250=DIRECTION('',(0.996194698091746,0.,-0.0871557427476583));
#1251=DIRECTION('',(-0.863550258968702,0.49857097597414,0.0755508580446374));
#1252=DIRECTION('',(-0.0871557427476583,0.,-0.996194698091746));
#1253=DIRECTION('',(0.996194698091746,0.,-0.0871557427476583));
#1254=DIRECTION('',(-0.979317518814158,0.18329286758067,0.0856791808885747));
#1255=DIRECTION('',(-0.0871557427476583,0.,-0.996194698091746));
#1256=DIRECTION('',(0.996194698091746,0.,-0.0871557427476583));
#1257=DIRECTION('',(-0.471818925171638,0.880728653971751,0.0412788071895046));
#1258=DIRECTION('',(-0.0871557427476583,0.,-0.996194698091746));
#1259=DIRECTION('',(0.996194698091746,0.,-0.0871557427476583));
#1260=DIRECTION('',(-0.996194698091746,0.,0.0871557427476583));
#1261=DIRECTION('',(-0.0871557427476583,0.,-0.996194698091746));
#1262=DIRECTION('',(0.996194698091746,0.,-0.0871557427476583));
#1263=DIRECTION('',(0.,1.,0.));
#1264=DIRECTION('',(-0.0871557427476583,0.,-0.996194698091746));
#1265=DIRECTION('',(0.996194698091746,0.,-0.0871557427476583));
#1266=DIRECTION('',(0.996194698091746,0.,-0.0871557427476583));
#1267=DIRECTION('',(-0.0871557427476583,0.,-0.996194698091746));
#1268=DIRECTION('',(0.996194698091746,0.,-0.0871557427476583));
#1269=DIRECTION('',(0.529430079255058,0.847088147343626,-0.0463191300644491));
#1270=DIRECTION('',(-0.0871557427476583,0.,-0.996194698091746));
#1271=DIRECTION('',(0.996194698091746,0.,-0.0871557427476583));
#1272=DIRECTION('',(0.996194698091746,0.,-0.0871557427476583));
#1273=DIRECTION('',(-0.0871557427476583,0.,-0.996194698091746));
#1274=DIRECTION('',(0.996194698091746,0.,-0.0871557427476583));
#1275=DIRECTION('',(0.705757556807947,-0.705757556807957,-0.0617457854184487));
#1276=DIRECTION('',(-0.0871557427476583,0.,-0.996194698091746));
#1277=DIRECTION('',(0.996194698091746,0.,-0.0871557427476583));
#1278=DIRECTION('',(0.996194698091746,0.,-0.0871557427476583));
#1279=DIRECTION('',(0.0871557427476584,0.,-0.996194698091746));
#1280=DIRECTION('',(-0.996194698091746,0.,-0.0871557427476584));
#1281=DIRECTION('',(0.996194698091746,0.,0.0871557427476584));
#1282=DIRECTION('',(0.0871557427476584,0.,-0.996194698091746));
#1283=DIRECTION('',(-0.996194698091746,0.,-0.0871557427476584));
#1284=DIRECTION('',(0.705757556807947,-0.705757556807957,0.0617457854184488));
#1285=DIRECTION('',(0.0871557427476584,0.,-0.996194698091746));
#1286=DIRECTION('',(-0.996194698091746,0.,-0.0871557427476584));
#1287=DIRECTION('',(0.996194698091746,0.,0.0871557427476584));
#1288=DIRECTION('',(0.0871557427476584,0.,-0.996194698091746));
#1289=DIRECTION('',(-0.996194698091746,0.,-0.0871557427476584));
#1290=DIRECTION('',(0.529430079255058,0.847088147343626,0.0463191300644492));
#1291=DIRECTION('',(0.0871557427476584,0.,-0.996194698091746));
#1292=DIRECTION('',(-0.996194698091746,0.,-0.0871557427476584));
#1293=DIRECTION('',(0.996194698091746,0.,0.0871557427476584));
#1294=DIRECTION('',(0.0871557427476584,0.,-0.996194698091746));
#1295=DIRECTION('',(-0.996194698091746,0.,-0.0871557427476584));
#1296=DIRECTION('',(0.,1.,0.));
#1297=DIRECTION('',(0.0871557427476584,0.,-0.996194698091746));
#1298=DIRECTION('',(-0.996194698091746,0.,-0.0871557427476584));
#1299=DIRECTION('',(-0.996194698091746,0.,-0.0871557427476584));
#1300=DIRECTION('',(0.0871557427476584,0.,-0.996194698091746));
#1301=DIRECTION('',(-0.996194698091746,0.,-0.0871557427476584));
#1302=DIRECTION('',(-0.471818925171638,0.880728653971751,-0.0412788071895046));
#1303=DIRECTION('',(0.0871557427476584,0.,-0.996194698091746));
#1304=DIRECTION('',(-0.996194698091746,0.,-0.0871557427476584));
#1305=DIRECTION('',(-0.979317518814158,0.18329286758067,-0.0856791808885748));
#1306=DIRECTION('',(0.0871557427476584,0.,-0.996194698091746));
#1307=DIRECTION('',(-0.996194698091746,0.,-0.0871557427476584));
#1308=DIRECTION('',(-0.863550258968702,0.49857097597414,-0.0755508580446375));
#1309=DIRECTION('',(0.0871557427476584,0.,-0.996194698091746));
#1310=DIRECTION('',(-0.996194698091746,0.,-0.0871557427476584));
#1311=DIRECTION('',(-0.49952229472001,-0.865197991937652,-0.0437025379664565));
#1312=DIRECTION('',(0.0871557427476584,0.,-0.996194698091746));
#1313=DIRECTION('',(-0.996194698091746,0.,-0.0871557427476584));
#1314=DIRECTION('',(0.,-1.,0.));
#1315=DIRECTION('',(0.0871557427476584,0.,-0.996194698091746));
#1316=DIRECTION('',(-0.996194698091746,0.,-0.0871557427476584));
#1317=DIRECTION('',(0.,0.,-1.));
#1318=DIRECTION('',(-1.,0.,0.));
#1319=DIRECTION('',(0.,0.,-1.));
#1320=DIRECTION('',(0.,0.,-1.));
#1321=DIRECTION('',(-1.,0.,0.));
#1322=DIRECTION('',(0.,0.,1.));
#1323=DIRECTION('',(0.,0.,-1.));
#1324=DIRECTION('',(0.,0.,-1.));
#1325=DIRECTION('',(-1.,0.,0.));
#1326=DIRECTION('',(0.,0.,-1.));
#1327=DIRECTION('',(-0.866025403276253,0.500000000880203,0.));
#1328=DIRECTION('',(-0.500000000880203,-0.866025403276253,0.));
#1329=DIRECTION('',(0.,0.,-1.));
#1330=DIRECTION('',(0.,0.,-1.));
#1331=DIRECTION('',(-1.,0.,0.));
#1332=DIRECTION('',(0.,0.,-1.));
#1333=DIRECTION('',(0.500000001128066,0.86602540313315,0.));
#1334=DIRECTION('',(-0.86602540313315,0.500000001128066,0.));
#1335=DIRECTION('',(0.,0.,-1.));
#1336=DIRECTION('',(0.,0.,-1.));
#1337=DIRECTION('',(-1.,0.,0.));
#1338=DIRECTION('',(0.,0.,-1.));
#1339=DIRECTION('',(0.183969363772402,0.982931977907514,0.));
#1340=DIRECTION('',(-0.982931977907514,0.183969363772402,0.));
#1341=DIRECTION('',(0.,0.,-1.));
#1342=DIRECTION('',(0.,0.,-1.));
#1343=DIRECTION('',(-1.,0.,0.));
#1344=DIRECTION('',(0.,0.,-1.));
#1345=DIRECTION('',(0.881479968611872,0.472221415160318,0.));
#1346=DIRECTION('',(-0.472221415160318,0.881479968611872,0.));
#1347=DIRECTION('',(0.,0.,-1.));
#1348=DIRECTION('',(0.,0.,-1.));
#1349=DIRECTION('',(-1.,0.,0.));
#1350=DIRECTION('',(0.,0.,-1.));
#1351=DIRECTION('',(0.,1.,0.));
#1352=DIRECTION('',(0.,0.,1.));
#1353=DIRECTION('',(0.,0.,-1.));
#1354=DIRECTION('',(0.,0.,-1.));
#1355=DIRECTION('',(-1.,0.,0.));
#1356=DIRECTION('',(0.,0.,-1.));
#1357=DIRECTION('',(1.,0.,0.));
#1358=DIRECTION('',(0.,0.,-1.));
#1359=DIRECTION('',(0.,0.,-1.));
#1360=DIRECTION('',(0.,0.,-1.));
#1361=DIRECTION('',(-1.,0.,0.));
#1362=DIRECTION('',(0.,0.,-1.));
#1363=DIRECTION('',(0.,-1.,0.));
#1364=DIRECTION('',(0.,0.,-1.));
#1365=DIRECTION('',(0.,0.,-1.));
#1366=DIRECTION('',(0.,0.,-1.));
#1367=DIRECTION('',(-1.,0.,0.));
#1368=DIRECTION('',(0.,0.,-1.));
#1369=DIRECTION('',(0.847998309779694,-0.52999893076381,0.));
#1370=DIRECTION('',(0.52999893076381,0.847998309779694,0.));
#1371=DIRECTION('',(0.,0.,-1.));
#1372=DIRECTION('',(0.,0.,-1.));
#1373=DIRECTION('',(-1.,0.,0.));
#1374=DIRECTION('',(0.,0.,-1.));
#1375=DIRECTION('',(0.,-1.,0.));
#1376=DIRECTION('',(0.,0.,-1.));
#1377=DIRECTION('',(0.,0.,-1.));
#1378=DIRECTION('',(0.,0.,-1.));
#1379=DIRECTION('',(-1.,0.,0.));
#1380=DIRECTION('',(0.,0.,-1.));
#1381=DIRECTION('',(-0.707106781186552,-0.707106781186543,0.));
#1382=DIRECTION('',(0.707106781186543,-0.707106781186552,0.));
#1383=DIRECTION('',(0.,0.,-1.));
#1384=DIRECTION('',(0.,0.,-1.));
#1385=DIRECTION('',(-1.,0.,0.));
#1386=DIRECTION('',(0.,0.,-1.));
#1387=DIRECTION('',(0.,-1.,0.));
#1388=DIRECTION('',(0.,0.,-1.));
#1389=CARTESIAN_POINT('',(0.,0.,0.));
#1390=CARTESIAN_POINT('',(0.0625,-0.03293346795,0.1));
#1391=CARTESIAN_POINT('',(0.0625,-0.03293346795,0.0642563463600297));
#1392=CARTESIAN_POINT('',(0.071,-0.03293346795,0.065));
#1393=CARTESIAN_POINT('',(0.0698612159278482,-0.0371834679574818,0.0649003693034829));
#1394=CARTESIAN_POINT('',(0.071,-0.03293346795,0.1));
#1395=CARTESIAN_POINT('',(0.071,-0.03293346795,0.085));
#1396=CARTESIAN_POINT('',(0.0625,-0.03293346795,0.0857436536399704));
#1397=CARTESIAN_POINT('',(0.0698612159278482,-0.0371834679574818,0.0850996306965172));
#1398=CARTESIAN_POINT('',(0.0698612159278482,-0.0371834679574818,0.1));
#1399=CARTESIAN_POINT('',(0.0642766128636565,-0.0468562841492882,0.1));
#1400=CARTESIAN_POINT('',(0.0650535176620036,-0.0455106455690655,0.0644797502075682));
#1401=CARTESIAN_POINT('',(0.0586920098136565,-0.0565291003492882,0.0639231903879067));
#1402=CARTESIAN_POINT('',(0.0639619980594989,-0.0474012129736234,0.0856157453836673));
#1403=CARTESIAN_POINT('',(0.0586920098136565,-0.0565291003492882,0.0860768096120934));
#1404=CARTESIAN_POINT('',(0.0586920098136565,-0.0565291003492882,0.1));
#1405=CARTESIAN_POINT('',(0.0513307939,-0.05227910035,0.1));
#1406=CARTESIAN_POINT('',(0.0513307939,-0.05227910035,0.0632791674456951));
#1407=CARTESIAN_POINT('',(0.0470807938904114,-0.0596403162766318,0.062907340624871));
#1408=CARTESIAN_POINT('',(0.0513307939,-0.05227910035,0.086720832554305));
#1409=CARTESIAN_POINT('',(0.0470807938904114,-0.0596403162766318,0.087092659375129));
#1410=CARTESIAN_POINT('',(0.0470807938904114,-0.0596403162766318,0.1));
#1411=CARTESIAN_POINT('',(0.0416051831460518,-0.056478970910966,0.1));
#1412=CARTESIAN_POINT('',(0.0440564354722949,-0.0578942021056314,0.0626427435488466));
#1413=CARTESIAN_POINT('',(0.0361295723934986,-0.0533176255594919,0.0619492328921297));
#1414=CARTESIAN_POINT('',(0.0407943373208071,-0.0560108288540815,0.0876426530587175));
#1415=CARTESIAN_POINT('',(0.0361295723934986,-0.0533176255594919,0.0880507671078703));
#1416=CARTESIAN_POINT('',(0.0361295723934986,-0.0533176255594919,0.1));
#1417=CARTESIAN_POINT('',(0.0353795724,-0.05461666365,0.1));
#1418=CARTESIAN_POINT('',(0.0353795724,-0.05461666365,0.0618836163950541));
#1419=CARTESIAN_POINT('',(0.0356555264456586,-0.0531422656831388,0.0619077592457033));
#1420=CARTESIAN_POINT('',(0.0353795724,-0.05461666365,0.088116383604946));
#1421=CARTESIAN_POINT('',(0.0356555264456586,-0.0531422656831388,0.0880922407542967));
#1422=CARTESIAN_POINT('',(0.0356555264456586,-0.0531422656831388,0.1));
#1423=CARTESIAN_POINT('',(0.0181837089767966,-0.0498721724726763,0.1));
#1424=CARTESIAN_POINT('',(0.0215081785509843,-0.0504943931005432,0.060670026685962));
#1425=CARTESIAN_POINT('',(0.000711891499912101,-0.0466020793050773,0.0588505873255622));
#1426=CARTESIAN_POINT('',(0.0173128224088929,-0.0497091739626917,0.0896970194159249));
#1427=CARTESIAN_POINT('',(0.000711891499912101,-0.0466020793050773,0.0911494126744379));
#1428=CARTESIAN_POINT('',(0.000711891499912101,-0.0466020793050773,0.1));
#1429=CARTESIAN_POINT('',(0.00227563110000003,-0.03824715745,0.1));
#1430=CARTESIAN_POINT('',(0.00227563110000003,-0.03824715745,0.0589873968132764));
#1431=CARTESIAN_POINT('',(-0.00521694863320091,-0.0422610394788627,0.0583318810260573));
#1432=CARTESIAN_POINT('',(0.00227563110000003,-0.03824715745,0.0910126031867236));
#1433=CARTESIAN_POINT('',(-0.00521694863320091,-0.0422610394788627,0.0916681189739428));
#1434=CARTESIAN_POINT('',(-0.00521694863320091,-0.0422610394788627,0.1));
#1435=CARTESIAN_POINT('',(-0.0076942179512912,-0.0376368034822485,0.1));
#1436=CARTESIAN_POINT('',(-0.00687846344619747,-0.0391595452141136,0.0581865173156397));
#1437=CARTESIAN_POINT('',(-0.0101714872566909,-0.0330125674788357,0.0578984150635006));
#1438=CARTESIAN_POINT('',(-0.00785226956822344,-0.037341773799435,0.0918986796805098));
#1439=CARTESIAN_POINT('',(-0.0101714872566909,-0.0330125674788357,0.0921015849364995));
#1440=CARTESIAN_POINT('',(-0.0101714872566909,-0.0330125674788357,0.1));
#1441=CARTESIAN_POINT('',(-0.0114937073,-0.03372089965,0.1));
#1442=CARTESIAN_POINT('',(-0.0114937073,-0.03372089965,0.0577827357990243));
#1443=CARTESIAN_POINT('',(-0.0114937073,-0.03222089965,0.0577827357990243));
#1444=CARTESIAN_POINT('',(-0.0114937073,-0.03372089965,0.0922172642009758));
#1445=CARTESIAN_POINT('',(-0.0114937073,-0.03222089965,0.0922172642009758));
#1446=CARTESIAN_POINT('',(-0.0114937073,-0.03222089965,0.1));
#1447=CARTESIAN_POINT('',(-0.03699685365,-0.03222089965,0.1));
#1448=CARTESIAN_POINT('',(-0.0331376531035511,-0.03222089965,0.055889135907244));
#1449=CARTESIAN_POINT('',(-0.0625,-0.03222089965,0.0533202634192891));
#1450=CARTESIAN_POINT('',(-0.0374788575452244,-0.03222089965,0.0944906702674508));
#1451=CARTESIAN_POINT('',(-0.0625,-0.03222089965,0.0966797365807109));
#1452=CARTESIAN_POINT('',(-0.0625,-0.03222089965,0.1));
#1453=CARTESIAN_POINT('',(-0.0625,-0.02372089965,0.1));
#1454=CARTESIAN_POINT('',(-0.0625,-0.02372089965,0.0533202634192891));
#1455=CARTESIAN_POINT('',(-0.071,-0.02372089965,0.0525766097793188));
#1456=CARTESIAN_POINT('',(-0.0625,-0.02372089965,0.0966797365807109));
#1457=CARTESIAN_POINT('',(-0.071,-0.02372089965,0.0974233902206812));
#1458=CARTESIAN_POINT('',(-0.071,-0.02372089965,0.1));
#1459=CARTESIAN_POINT('',(-0.0625,0.04427910035,0.1));
#1460=CARTESIAN_POINT('',(-0.0625,0.04427910035,0.0533202634192892));
#1461=CARTESIAN_POINT('',(-0.071,0.04427910035,0.0525766097793188));
#1462=CARTESIAN_POINT('',(-0.0625,0.05277910035,0.0533202634192892));
#1463=CARTESIAN_POINT('',(-0.071,0.04427910035,0.1));
#1464=CARTESIAN_POINT('',(-0.071,0.04427910035,0.0974233902206812));
#1465=CARTESIAN_POINT('',(-0.0625,0.04427910035,0.0966797365807109));
#1466=CARTESIAN_POINT('',(-0.0625,0.05277910035,0.0966797365807109));
#1467=CARTESIAN_POINT('',(-0.0625,0.05277910035,0.1));
#1468=CARTESIAN_POINT('',(-0.0481356191,0.05277910035,0.1));
#1469=CARTESIAN_POINT('',(-0.0441918071156234,0.05277910035,0.0549220227463181));
#1470=CARTESIAN_POINT('',(-0.0337712382,0.05277910035,0.0558337043939258));
#1471=CARTESIAN_POINT('',(-0.0485330115572966,0.05277910035,0.0954577834283767));
#1472=CARTESIAN_POINT('',(-0.0337712382,0.05277910035,0.0941662956060743));
#1473=CARTESIAN_POINT('',(-0.0337712382,0.05277910035,0.1));
#1474=CARTESIAN_POINT('',(-0.0337712382,0.05427910035,0.1));
#1475=CARTESIAN_POINT('',(-0.0337712382,0.05427910035,0.0558337043939258));
#1476=CARTESIAN_POINT('',(-0.0324992407353304,0.0534841019538543,0.0559449897521181));
#1477=CARTESIAN_POINT('',(-0.0337712382,0.05427910035,0.0941662956060743));
#1478=CARTESIAN_POINT('',(-0.0324992407353304,0.0534841019538543,0.094055010247882));
#1479=CARTESIAN_POINT('',(-0.0324992407353304,0.0534841019538543,0.1));
#1480=CARTESIAN_POINT('',(-0.0314679940842289,0.0551340966076733,0.1));
#1481=CARTESIAN_POINT('',(-0.0303898569916447,0.0568591159976268,0.0561295369167165));
#1482=CARTESIAN_POINT('',(-0.0304367474456862,0.0567840912693417,0.0561254345335602));
#1483=CARTESIAN_POINT('',(-0.031615994026697,0.0548972966939837,0.0939777361737799));
#1484=CARTESIAN_POINT('',(-0.0304367474456862,0.0567840912693417,0.0938745654664398));
#1485=CARTESIAN_POINT('',(-0.0304367474456862,0.0567840912693417,0.1));
#1486=CARTESIAN_POINT('',(-0.0232287618,0.05227910035,0.1));
#1487=CARTESIAN_POINT('',(-0.0232287618,0.05227910035,0.0567560515644154));
#1488=CARTESIAN_POINT('',(-0.0232287618,0.06077910035,0.0567560515644154));
#1489=CARTESIAN_POINT('',(-0.0232287618,0.05227910035,0.0932439484355847));
#1490=CARTESIAN_POINT('',(-0.0232287618,0.06077910035,0.0932439484355847));
#1491=CARTESIAN_POINT('',(-0.0232287618,0.06077910035,0.1));
#1492=CARTESIAN_POINT('',(0.000350085199999995,0.06077910035,0.1));
#1493=CARTESIAN_POINT('',(0.00392559378682531,0.06077910035,0.0591317498436144));
#1494=CARTESIAN_POINT('',(0.0239289322,0.06077910035,0.0608818151874399));
#1495=CARTESIAN_POINT('',(-0.000415610654847953,0.06077910035,0.0912480563310804));
#1496=CARTESIAN_POINT('',(0.0239289322,0.06077910035,0.0891181848125602));
#1497=CARTESIAN_POINT('',(0.0239289322,0.06077910035,0.1));
#1498=CARTESIAN_POINT('',(0.0239289322,0.0522791003500001,0.1));
#1499=CARTESIAN_POINT('',(0.0239289322,0.0522791003500001,0.0608818151874399));
#1500=CARTESIAN_POINT('',(0.0299393398400857,0.0582895079900856,0.061407657719117));
#1501=CARTESIAN_POINT('',(0.0239289322,0.0522791003500001,0.0891181848125602));
#1502=CARTESIAN_POINT('',(0.0299393398400857,0.0582895079900856,0.0885923422808831));
#1503=CARTESIAN_POINT('',(0.0299393398400857,0.0582895079900856,0.1));
#1504=CARTESIAN_POINT('',(0.030974873734153,0.0572539740841529,0.1));
#1505=CARTESIAN_POINT('',(0.0326526856228787,0.055576162195427,0.0616450447153372));
#1506=CARTESIAN_POINT('',(0.0320104076341529,0.0562184401841529,0.0615888526724915));
#1507=CARTESIAN_POINT('',(0.0304738078898731,0.0577550399284327,0.0885455823855099));
#1508=CARTESIAN_POINT('',(0.0320104076341529,0.0562184401841529,0.0884111473275085));
#1509=CARTESIAN_POINT('',(0.0320104076341529,0.0562184401841529,0.1));
#1510=CARTESIAN_POINT('',(0.0330710678,0.05727910035,0.1));
#1511=CARTESIAN_POINT('',(0.0330710678,0.05727910035,0.0616816484128566));
#1512=CARTESIAN_POINT('',(0.0330710678,0.05577910035,0.0616816484128566));
#1513=CARTESIAN_POINT('',(0.0330710678,0.05727910035,0.0883183515871434));
#1514=CARTESIAN_POINT('',(0.0330710678,0.05577910035,0.0883183515871434));
#1515=CARTESIAN_POINT('',(0.0330710678,0.05577910035,0.1));
#1516=CARTESIAN_POINT('',(0.0477855339,0.05577910035,0.1));
#1517=CARTESIAN_POINT('',(0.0510007169605118,0.05577910035,0.0632502894553985));
#1518=CARTESIAN_POINT('',(0.0625,0.05577910035,0.0642563463600297));
#1519=CARTESIAN_POINT('',(0.0466595125188385,0.05577910035,0.0871295167192963));
#1520=CARTESIAN_POINT('',(0.0625,0.05577910035,0.0857436536399704));
#1521=CARTESIAN_POINT('',(0.0625,0.05577910035,0.1));
#1522=CARTESIAN_POINT('',(0.0625,0.04727910035,0.1));
#1523=CARTESIAN_POINT('',(0.0625,0.04727910035,0.0642563463600297));
#1524=CARTESIAN_POINT('',(0.071,0.04727910035,0.065));
#1525=CARTESIAN_POINT('',(0.0625,0.04727910035,0.0857436536399704));
#1526=CARTESIAN_POINT('',(0.071,0.04727910035,0.085));
#1527=CARTESIAN_POINT('',(0.071,0.04727910035,0.1));
#1528=CARTESIAN_POINT('',(-0.071,0.01027910035,0.1));
#1529=CARTESIAN_POINT('',(-0.071,0.42017954308728,0.0525766097793188));
#1530=CARTESIAN_POINT('',(-0.071,0.42017954308728,0.0974233902206812));
#1531=CARTESIAN_POINT('',(0.071,0.00717281619999999,0.1));
#1532=CARTESIAN_POINT('',(0.071,0.42017954308728,0.065));
#1533=CARTESIAN_POINT('',(0.071,0.42017954308728,0.085));
#1534=CARTESIAN_POINT('',(0.,0.42017954308728,0.0912116951103406));
#1535=CARTESIAN_POINT('',(0.0625,0.04727910035,0.0857436536399704));
#1536=CARTESIAN_POINT('',(0.0625,0.05242910035,0.0857436536399704));
#1537=CARTESIAN_POINT('',(0.06765,0.04727910035,0.0852930870228119));
#1538=CARTESIAN_POINT('',(0.06765,0.00717281619999999,0.0852930870228119));
#1539=CARTESIAN_POINT('',(0.06765,-0.03293346795,0.0852930870228119));
#1540=CARTESIAN_POINT('',(0.0625,-0.03293346795,0.0857436536399704));
#1541=CARTESIAN_POINT('',(0.0669600308079505,-0.0355084679545331,0.0853534515052983));
#1542=CARTESIAN_POINT('',(0.0610663539662535,-0.0457166156637837,0.0858690814154321));
#1543=CARTESIAN_POINT('',(0.0557908247126811,-0.0548541003463395,0.0863306304192191));
#1544=CARTESIAN_POINT('',(0.0513307939,-0.05227910035,0.086720832554305));
#1545=CARTESIAN_POINT('',(0.0487557938941905,-0.0567391311572135,0.0869461158633925));
#1546=CARTESIAN_POINT('',(0.0424597765382112,-0.0531041238309816,0.0874969460074031));
#1547=CARTESIAN_POINT('',(0.0378045723972775,-0.0504164404589959,0.0879042235961338));
#1548=CARTESIAN_POINT('',(0.0353795724000002,-0.0546166636499998,0.0881163836049459));
#1549=CARTESIAN_POINT('',(0.0362718238142961,-0.0498494435127837,0.0880383217211801));
#1550=CARTESIAN_POINT('',(0.0179245955865952,-0.0464155050715676,0.0896434961982267));
#1551=CARTESIAN_POINT('',(0.00132818886854964,-0.0433092571790871,0.0910954936413212));
#1552=CARTESIAN_POINT('',(0.00227563109999999,-0.0382471574500001,0.0910126031867236));
#1553=CARTESIAN_POINT('',(-0.00226399075468378,-0.0406790977380756,0.091409768635703));
#1554=CARTESIAN_POINT('',(-0.00490434333622161,-0.0357504396213994,0.0916407695542989));
#1555=CARTESIAN_POINT('',(-0.00721852936184114,-0.0314306257380485,0.0918432345968307));
#1556=CARTESIAN_POINT('',(-0.0114937073,-0.03372089965,0.0922172642009758));
#1557=CARTESIAN_POINT('',(-0.0114937073,-0.02887089965,0.0922172642009758));
#1558=CARTESIAN_POINT('',(-0.0374788575452244,-0.02887089965,0.0944906702674508));
#1559=CARTESIAN_POINT('',(-0.0625,-0.02887089965,0.0966797365807109));
#1560=CARTESIAN_POINT('',(-0.0625,-0.02372089965,0.0966797365807109));
#1561=CARTESIAN_POINT('',(-0.06765,-0.02372089965,0.0971303031978694));
#1562=CARTESIAN_POINT('',(-0.06765,0.01027910035,0.0971303031978694));
#1563=CARTESIAN_POINT('',(-0.06765,0.04427910035,0.0971303031978694));
#1564=CARTESIAN_POINT('',(-0.0625,0.04427910035,0.0966797365807109));
#1565=CARTESIAN_POINT('',(-0.0625,0.04942910035,0.0966797365807109));
#1566=CARTESIAN_POINT('',(-0.0485330115572966,0.04942910035,0.0954577834283767));
#1567=CARTESIAN_POINT('',(-0.0337712382,0.04942910035,0.0941662956060743));
#1568=CARTESIAN_POINT('',(-0.0337712382,0.05427910035,0.0941662956060743));
#1569=CARTESIAN_POINT('',(-0.0296584463801038,0.0517086055357955,0.0938064729463912));
#1570=CARTESIAN_POINT('',(-0.0287812945046966,0.0531120485704701,0.0937297321011026));
#1571=CARTESIAN_POINT('',(-0.0275959531079243,0.0550085948512829,0.093626028166477));
#1572=CARTESIAN_POINT('',(-0.0232287618,0.05227910035,0.0932439484355847));
#1573=CARTESIAN_POINT('',(-0.0232287618,0.05742910035,0.0932439484355847));
#1574=CARTESIAN_POINT('',(-0.000415610654847964,0.05742910035,0.0912480563310804));
#1575=CARTESIAN_POINT('',(0.0239289322,0.05742910035,0.0891181848125602));
#1576=CARTESIAN_POINT('',(0.0239289322,0.05227910035,0.0891181848125602));
#1577=CARTESIAN_POINT('',(0.0275705321231107,0.0559207002612452,0.0887995861021911));
#1578=CARTESIAN_POINT('',(0.0281140313518493,0.0553772010325067,0.0887520360810414));
#1579=CARTESIAN_POINT('',(0.0296415999171779,0.053849632467178,0.0886183911488166));
#1580=CARTESIAN_POINT('',(0.0330710678,0.05727910035,0.0883183515871434));
#1581=CARTESIAN_POINT('',(0.0330710678,0.05242910035,0.0883183515871434));
#1582=CARTESIAN_POINT('',(0.0466595125188385,0.05242910035,0.0871295167192963));
#1583=CARTESIAN_POINT('',(-2.77555756156289E-17,0.42017954308728,0.0587883048896594));
#1584=CARTESIAN_POINT('',(0.0510007169605118,0.05242910035,0.0632502894553985));
#1585=CARTESIAN_POINT('',(0.0330710678,0.05242910035,0.0616816484128566));
#1586=CARTESIAN_POINT('',(0.0625,0.05242910035,0.0642563463600297));
#1587=CARTESIAN_POINT('',(0.0330710678,0.05727910035,0.0616816484128566));
#1588=CARTESIAN_POINT('',(0.0296415999171779,0.053849632467178,0.0613816088511835));
#1589=CARTESIAN_POINT('',(0.0302929090848548,0.0531983232995011,0.0614385910198057));
#1590=CARTESIAN_POINT('',(0.0275705321231107,0.0559207002612452,0.0612004138978089));
#1591=CARTESIAN_POINT('',(0.0239289322,0.05227910035,0.0608818151874399));
#1592=CARTESIAN_POINT('',(0.0239289322,0.05742910035,0.0608818151874399));
#1593=CARTESIAN_POINT('',(0.00392559378682531,0.05742910035,0.0591317498436144));
#1594=CARTESIAN_POINT('',(-0.0232287618,0.05742910035,0.0567560515644154));
#1595=CARTESIAN_POINT('',(-0.0232287618,0.05227910035,0.0567560515644154));
#1596=CARTESIAN_POINT('',(-0.0275959531079243,0.0550085948512829,0.056373971833523));
#1597=CARTESIAN_POINT('',(-0.0275551574696442,0.0550738678741133,0.0563775409893939));
#1598=CARTESIAN_POINT('',(-0.0296584463801038,0.0517086055357955,0.0561935270536088));
#1599=CARTESIAN_POINT('',(-0.0337712382,0.05427910035,0.0558337043939258));
#1600=CARTESIAN_POINT('',(-0.0337712382,0.04942910035,0.0558337043939258));
#1601=CARTESIAN_POINT('',(-0.0441918071156234,0.04942910035,0.0549220227463181));
#1602=CARTESIAN_POINT('',(-0.0625,0.04942910035,0.0533202634192891));
#1603=CARTESIAN_POINT('',(-0.0625,0.04427910035,0.0533202634192891));
#1604=CARTESIAN_POINT('',(-0.06765,0.04427910035,0.0528696968021306));
#1605=CARTESIAN_POINT('',(-0.06765,0.01027910035,0.0528696968021306));
#1606=CARTESIAN_POINT('',(-0.06765,-0.02372089965,0.0528696968021306));
#1607=CARTESIAN_POINT('',(-0.0625,-0.02372089965,0.0533202634192891));
#1608=CARTESIAN_POINT('',(-0.0625,-0.02887089965,0.0533202634192891));
#1609=CARTESIAN_POINT('',(-0.0331376531035511,-0.02887089965,0.055889135907244));
#1610=CARTESIAN_POINT('',(-0.0114937073,-0.02887089965,0.0577827357990242));
#1611=CARTESIAN_POINT('',(-0.0114937073,-0.03372089965,0.0577827357990242));
#1612=CARTESIAN_POINT('',(-0.00721852936184114,-0.0314306257380485,0.0581567654031693));
#1613=CARTESIAN_POINT('',(-0.00393053721419564,-0.037568211036078,0.0584444274418505));
#1614=CARTESIAN_POINT('',(-0.00226399075468378,-0.0406790977380756,0.0585902313642971));
#1615=CARTESIAN_POINT('',(0.00227563109999999,-0.0382471574500001,0.0589873968132764));
#1616=CARTESIAN_POINT('',(0.00132818886854964,-0.0433092571790871,0.0589045063586788));
#1617=CARTESIAN_POINT('',(0.0221199517286867,-0.0472007242094191,0.0607235499036602));
#1618=CARTESIAN_POINT('',(0.0362718238142961,-0.0498494435127837,0.06196167827882));
#1619=CARTESIAN_POINT('',(0.0353795724000002,-0.0546166636499998,0.0618836163950541));
#1620=CARTESIAN_POINT('',(0.0378045723972775,-0.0504164404589959,0.0620957764038663));
#1621=CARTESIAN_POINT('',(0.0457218746896989,-0.0549874970825315,0.0627884506001609));
#1622=CARTESIAN_POINT('',(0.0487557938941905,-0.0567391311572135,0.0630538841366076));
#1623=CARTESIAN_POINT('',(0.0513307939,-0.05227910035,0.0632791674456951));
#1624=CARTESIAN_POINT('',(0.0557908247126811,-0.0548541003463395,0.063669369580781));
#1625=CARTESIAN_POINT('',(0.0621578735687581,-0.0438260482592259,0.0642264141758034));
#1626=CARTESIAN_POINT('',(0.0669600308079505,-0.0355084679545331,0.0646465484947017));
#1627=CARTESIAN_POINT('',(0.0625,-0.03293346795,0.0642563463600297));
#1628=CARTESIAN_POINT('',(0.06765,-0.03293346795,0.0647069129771882));
#1629=CARTESIAN_POINT('',(0.06765,0.00717281619999999,0.0647069129771882));
#1630=CARTESIAN_POINT('',(0.06765,0.04727910035,0.0647069129771882));
#1631=CARTESIAN_POINT('',(0.0625,0.04727910035,0.0642563463600297));
#1632=CARTESIAN_POINT('',(0.0625,0.04727910035,0.1));
#1633=CARTESIAN_POINT('',(0.0625,0.05242910035,0.1));
#1634=CARTESIAN_POINT('',(0.06765,0.04727910035,0.1));
#1635=CARTESIAN_POINT('',(0.06765,0.00717281619999999,0.1));
#1636=CARTESIAN_POINT('',(0.06765,-0.03293346795,0.1));
#1637=CARTESIAN_POINT('',(0.0625,-0.03293346795,0.1));
#1638=CARTESIAN_POINT('',(0.0669600308268727,-0.0355084679545331,0.1));
#1639=CARTESIAN_POINT('',(0.0613754277626811,-0.0451812841463395,0.1));
#1640=CARTESIAN_POINT('',(0.0557908247126811,-0.0548541003463395,0.1));
#1641=CARTESIAN_POINT('',(0.0513307939,-0.05227910035,0.1));
#1642=CARTESIAN_POINT('',(0.0487557938941905,-0.0567391311761357,0.1));
#1643=CARTESIAN_POINT('',(0.0432801831498308,-0.05357778581047,0.1));
#1644=CARTESIAN_POINT('',(0.0378045723972775,-0.0504164404589959,0.1));
#1645=CARTESIAN_POINT('',(0.0353795724000002,-0.0546166636499998,0.1));
#1646=CARTESIAN_POINT('',(0.0362718238142961,-0.0498494435571486,0.1));
#1647=CARTESIAN_POINT('',(0.0188000063454342,-0.0465793503466861,0.1));
#1648=CARTESIAN_POINT('',(0.00132818886854964,-0.0433092571790871,0.1));
#1649=CARTESIAN_POINT('',(0.00227563109999999,-0.0382471574500001,0.1));
#1650=CARTESIAN_POINT('',(-0.00226399073835114,-0.0406790977380756,0.1));
#1651=CARTESIAN_POINT('',(-0.00474126005644143,-0.0360548617414614,0.1));
#1652=CARTESIAN_POINT('',(-0.00721852936184114,-0.0314306257380485,0.1));
#1653=CARTESIAN_POINT('',(-0.0114937073,-0.03372089965,0.1));
#1654=CARTESIAN_POINT('',(-0.0114937073,-0.02887089965,0.1));
#1655=CARTESIAN_POINT('',(-0.03699685365,-0.02887089965,0.1));
#1656=CARTESIAN_POINT('',(-0.0625,-0.02887089965,0.1));
#1657=CARTESIAN_POINT('',(-0.0625,-0.02372089965,0.1));
#1658=CARTESIAN_POINT('',(-0.06765,-0.02372089965,0.1));
#1659=CARTESIAN_POINT('',(-0.06765,0.01027910035,0.1));
#1660=CARTESIAN_POINT('',(-0.06765,0.04427910035,0.1));
#1661=CARTESIAN_POINT('',(-0.0625,0.04427910035,0.1));
#1662=CARTESIAN_POINT('',(-0.0625,0.04942910035,0.1));
#1663=CARTESIAN_POINT('',(-0.0481356191,0.04942910035,0.1));
#1664=CARTESIAN_POINT('',(-0.0337712382,0.04942910035,0.1));
#1665=CARTESIAN_POINT('',(-0.0337712382,0.05427910035,0.1));
#1666=CARTESIAN_POINT('',(-0.0296584463975685,0.0517086055357955,0.1));
#1667=CARTESIAN_POINT('',(-0.0286271997464669,0.0533586001896146,0.1));
#1668=CARTESIAN_POINT('',(-0.0275959531079243,0.0550085948512829,0.1));
#1669=CARTESIAN_POINT('',(-0.0232287618,0.05227910035,0.1));
#1670=CARTESIAN_POINT('',(-0.0232287618,0.05742910035,0.1));
#1671=CARTESIAN_POINT('',(0.000350085199999986,0.05742910035,0.1));
#1672=CARTESIAN_POINT('',(0.0239289322,0.05742910035,0.1));
#1673=CARTESIAN_POINT('',(0.0239289322,0.05227910035,0.1));
#1674=CARTESIAN_POINT('',(0.0275705321231107,0.0559207002731107,0.1));
#1675=CARTESIAN_POINT('',(0.028606066017178,0.054885166367178,0.1));
#1676=CARTESIAN_POINT('',(0.0296415999171779,0.053849632467178,0.1));
#1677=CARTESIAN_POINT('',(0.0330710678,0.05727910035,0.1));
#1678=CARTESIAN_POINT('',(0.0330710678,0.05242910035,0.1));
#1679=CARTESIAN_POINT('',(0.0477855339,0.05242910035,0.1));
#1680=MECHANICAL_DESIGN_GEOMETRIC_PRESENTATION_REPRESENTATION('',(#985),
#1681);
#1681=(
GEOMETRIC_REPRESENTATION_CONTEXT(3)
GLOBAL_UNCERTAINTY_ASSIGNED_CONTEXT((#1682))
GLOBAL_UNIT_ASSIGNED_CONTEXT((#1685,#1684,#1683))
REPRESENTATION_CONTEXT('Case Spacer','TOP_LEVEL_ASSEMBLY_PART')
);
#1682=UNCERTAINTY_MEASURE_WITH_UNIT(LENGTH_MEASURE(1.E-8),#1685,
'DISTANCE_ACCURACY_VALUE','Maximum Tolerance applied to model');
#1683=(
NAMED_UNIT(*)
SI_UNIT($,.STERADIAN.)
SOLID_ANGLE_UNIT()
);
#1684=(
NAMED_UNIT(*)
PLANE_ANGLE_UNIT()
SI_UNIT($,.RADIAN.)
);
#1685=(
LENGTH_UNIT()
NAMED_UNIT(*)
SI_UNIT($,.METRE.)
);
#1686=PRODUCT_DEFINITION_SHAPE('','',#1687);
#1687=PRODUCT_DEFINITION('','',#1689,#1688);
#1688=PRODUCT_DEFINITION_CONTEXT('',#1695,'design');
#1689=PRODUCT_DEFINITION_FORMATION_WITH_SPECIFIED_SOURCE('','',#1691,
 .NOT_KNOWN.);
#1690=PRODUCT_RELATED_PRODUCT_CATEGORY('','',(#1691));
#1691=PRODUCT('Case Spacer','Case Spacer','Case Spacer',(#1693));
#1692=PRODUCT_CATEGORY('','');
#1693=PRODUCT_CONTEXT('',#1695,'mechanical');
#1694=APPLICATION_PROTOCOL_DEFINITION('international standard',
'ap242_managed_model_based_3d_engineering',2020,#1695);
#1695=APPLICATION_CONTEXT('managed model based 3d engineering');
ENDSEC;
END-ISO-10303-21;
